<svg width="182" height="92" viewBox="0 0 182 92" xmlns="http://www.w3.org/2000/svg"><title>field</title><desc>Created with Sketch.</desc><g transform="translate(1 1)" fill="none"><path id="Rectangle-path" stroke="#ccc" d="M.063.14h179.908v89.915h-179.908zM.023 23.119h25.975v43.958h-25.975z"/><ellipse stroke="#ccc" cx="90.017" cy="45.098" rx="14.986" ry="14.986"/><path d="M121.179 50.077h1.427l2.699-4.014 2.686 4.014h1.496l-3.441-5.035 3.133-4.755h-1.427l-2.42 3.79-2.392-3.79h-1.511l3.161 4.812-3.413 4.979zm10.602-1.007l2.671-2.769c1.469-1.469 2.084-2.364 2.084-3.567 0-1.707-1.245-2.616-2.951-2.616-1.748 0-3.091 1.035-3.245 3.371l1.189.098c.126-1.72.937-2.462 2.056-2.462.979 0 1.721.518 1.721 1.609 0 1.077-.812 1.888-1.959 3.077l-3.231 3.343v.923h6.657v-1.007h-4.993z" id="Shape" fill="#ccc" fill-rule="nonzero"/><path stroke="#ccc" d="M.103.14h89.914v89.914h-89.914zM153.91 23.119h25.975v43.958h-25.975z"/><path d="M10.093.015c0 5.518-4.473 9.991-9.991 9.991M179.931 10.131c-5.518 0-9.991-4.472-9.991-9.99M.103 80.065c5.518 0 9.991 4.472 9.991 9.99M169.941 90.055c0-5.518 4.473-9.99 9.991-9.99" stroke="#ccc"/></g></svg>