<?xml version="1.0" encoding="UTF-8"?>
<svg width="1440px" height="503px" viewBox="0 0 1440 503" version="1.1" xmlns="http://www.w3.org/2000/svg" xmlns:xlink="http://www.w3.org/1999/xlink">
    <!-- Generator: Sketch 51.2 (57519) - http://www.bohemiancoding.com/sketch -->
    <title>A1</title>
    <desc>Created with Sketch.</desc>
    <defs>
        <linearGradient x1="39.4999173%" y1="99.0042111%" x2="60.5000827%" y2="0.995788939%" id="linearGradient-1">
            <stop stop-color="#000000" offset="0%"></stop>
            <stop stop-color="#000000" offset="40%"></stop>
            <stop stop-color="#1F1F1F" offset="100%"></stop>
        </linearGradient>
        <linearGradient x1="50%" y1="100%" x2="50%" y2="-8.59363719e-14%" id="linearGradient-2">
            <stop stop-color="#000000" offset="0%"></stop>
            <stop stop-color="#262626" offset="100%"></stop>
        </linearGradient>
        <linearGradient x1="50%" y1="100%" x2="50%" y2="0%" id="linearGradient-3">
            <stop stop-color="#000000" offset="0%"></stop>
            <stop stop-color="#333333" offset="100%"></stop>
        </linearGradient>
        <linearGradient x1="50%" y1="100%" x2="50%" y2="0%" id="linearGradient-4">
            <stop stop-color="#000000" offset="0%"></stop>
            <stop stop-color="#262626" offset="100%"></stop>
        </linearGradient>
        <linearGradient x1="37.3404326%" y1="99.8021622%" x2="62.6595674%" y2="0.197837787%" id="linearGradient-5">
            <stop stop-color="#000000" offset="0%"></stop>
            <stop stop-color="#000000" offset="40%"></stop>
            <stop stop-color="#333333" offset="100%"></stop>
        </linearGradient>
        <linearGradient x1="25.9329601%" y1="95.1139044%" x2="74.0670399%" y2="4.88609559%" id="linearGradient-6">
            <stop stop-color="#000000" offset="0%"></stop>
            <stop stop-color="#000000" offset="40%"></stop>
            <stop stop-color="#1F1F1F" offset="100%"></stop>
        </linearGradient>
    </defs>
    <g id="Letters" stroke="none" stroke-width="1" fill="none" fill-rule="evenodd">
        <g id="Artboard" transform="translate(0.000000, -4009.000000)">
            <g id="A1" transform="translate(0.000000, 4009.000000)">
                <polygon id="Shape" fill="#000000" points="720.02381 502.094059 0.0544230542 240.047053 0.0544230542 0.0561237747 720.027212 0.0561237747 1439.99546 262.10313 1439.99546 502.094059 1200.00454 502.094059 960.015873 414.745057 960.01474 502.094059"></polygon>
                <polygon id="Shape" fill="url(#linearGradient-1)" points="870.018283 141.998252 630.029621 54.64925 630.029621 174.644715 868.256336 262.103697"></polygon>
                <rect id="Rectangle-path" fill="url(#linearGradient-2)" x="720.024944" y="174.754128" width="239.990929" height="239.990929"></rect>
                <rect id="Rectangle-path" fill="url(#linearGradient-3)" x="1200.00454" y="262.10313" width="239.990929" height="239.990929"></rect>
                <rect id="Rectangle-path" fill="url(#linearGradient-4)" x="390.038691" y="54.64925" width="239.990929" height="120.104878"></rect>
                <polygon id="Shape" fill="url(#linearGradient-5)" points="720.02381 262.10313 0.0544230542 0.0561237747 0.0544230542 240.047053 720.02381 502.094059"></polygon>
                <polygon id="Shape" fill="url(#linearGradient-6)" points="1200.00454 262.10313 960.015873 174.754128 960.015873 414.745057 1200.00454 502.094059"></polygon>
                <path d="M630.029621,54.64925 L390.039825,54.64925 L570.032172,120.161002 L810.020834,120.161002 L630.029621,54.64925 Z M720.02381,262.10313 L0.0544230542,0.0561237747 L720.027212,0.0561237747 L1439.99546,262.10313 L1200.00454,262.10313 L960.015873,174.754128 L720.02381,174.754128 L960.01474,262.10313 L720.02381,262.10313 Z" id="Shape" fill="#000000"></path>
                <rect id="Rectangle-path" fill="url(#linearGradient-3)" x="720.02381" y="262.10313" width="239.990929" height="239.990929"></rect>
            </g>
        </g>
    </g>
</svg>