<svg width="1440" height="503" viewBox="0 0 1440 503" xmlns="http://www.w3.org/2000/svg"><title>A1</title><desc>Created with Sketch.</desc><defs><linearGradient x1="39.5%" y1="99.004%" x2="60.5%" y2=".996%" id="a"><stop offset="0%"/><stop offset="40%"/><stop stop-color="#1F1F1F" offset="100%"/></linearGradient><linearGradient x1="50%" y1="100%" x2="50%" y2="0%" id="b"><stop offset="0%"/><stop stop-color="#262626" offset="100%"/></linearGradient><linearGradient x1="50%" y1="100%" x2="50%" y2="0%" id="c"><stop offset="0%"/><stop stop-color="#333" offset="100%"/></linearGradient><linearGradient x1="50%" y1="100%" x2="50%" y2="0%" id="d"><stop offset="0%"/><stop stop-color="#262626" offset="100%"/></linearGradient><linearGradient x1="37.34%" y1="99.802%" x2="62.66%" y2=".198%" id="e"><stop offset="0%"/><stop offset="40%"/><stop stop-color="#333" offset="100%"/></linearGradient><linearGradient x1="25.933%" y1="95.114%" x2="74.067%" y2="4.886%" id="f"><stop offset="0%"/><stop offset="40%"/><stop stop-color="#1F1F1F" offset="100%"/></linearGradient></defs><g fill="none"><path id="Shape" fill="#000" d="M720.024 502.094l-719.969-262.047v-239.991h719.973l719.968 262.047v239.991h-239.991l-239.989-87.349-.001 87.349z"/><path id="Shape" fill="url(#a)" d="M870.018 141.998l-239.989-87.349v119.995l238.227 87.459z"/><path id="Rectangle-path" fill="url(#b)" d="M720.025 174.754h239.991v239.991h-239.991z"/><path id="Rectangle-path" fill="url(#c)" d="M1200.005 262.103h239.991v239.991h-239.991z"/><path id="Rectangle-path" fill="url(#d)" d="M390.039 54.649h239.991v120.105h-239.991z"/><path id="Shape" fill="url(#e)" d="M720.024 262.103l-719.969-262.047v239.991l719.969 262.047z"/><path id="Shape" fill="url(#f)" d="M1200.005 262.103l-239.989-87.349v239.991l239.989 87.349z"/><path d="M630.03 54.649h-239.99l179.992 65.512h239.989l-179.991-65.512zm89.994 207.454l-719.969-262.047h719.973l719.968 262.047h-239.991l-239.989-87.349h-239.992l239.991 87.349h-239.991z" fill="#000"/><path fill="url(#c)" d="M720.024 262.103h239.991v239.991h-239.991z"/></g></svg>