<svg xmlns="http://www.w3.org/2000/svg" viewBox="0 0 720 250.5" enable-background="new 0 0 720 250.5"><style type="text/css">.st0{fill:#FFFFFF;} .st1{fill:url(#Прямоугольник_x0020__1_);} .st2{fill:url(#Прямоугольник_x0020__0_1_);} .st3{fill:url(#SVGID_1_);} .st4{fill:url(#SVGID_2_);} .st5{fill:url(#Прямоугольник_x0020__1_1_);} .st6{fill:#FFFFFF;stroke:#000000;stroke-miterlimit:10;}</style><g id="Слой_x0020_1"><path class="st0" d="M0 0h360l75 27.3v21.8h60l225 81.9v120h-360l-360-131z"/><linearGradient id="Прямоугольник_x0020__1_" gradientUnits="userSpaceOnUse" x1="16048.526" y1="-133487.344" x2="16048.526" y2="-131368.75" gradientTransform="matrix(.028 0 0 -.028 -139.918 -3696.541)"><stop offset="0" stop-color="#fff"/><stop offset="1" stop-color="#EDEDED"/></linearGradient><path id="Прямоугольник_x0020_" class="st1" d="M195 27.3h240v60.1h-240z"/><linearGradient id="Прямоугольник_x0020__0_1_" gradientUnits="userSpaceOnUse" x1="18978.051" y1="-135220.75" x2="18978.051" y2="-133102.156" gradientTransform="matrix(.028 0 0 -.028 -139.918 -3696.541)"><stop offset="0" stop-color="#fff"/><stop offset="1" stop-color="#EDEDED"/></linearGradient><path id="Прямоугольник_x0020__0" class="st2" d="M330 76.4h136.1v60.1h-136.1z"/><linearGradient id="SVGID_1_" gradientUnits="userSpaceOnUse" x1="22962.031" y1="-136854.109" x2="24519.051" y2="-133186.344" gradientTransform="matrix(.028 0 0 -.028 -139.918 -3696.541)"><stop offset="0" stop-color="#FEFEFE"/><stop offset=".4" stop-color="#fff"/><stop offset="1" stop-color="#F0F0F0"/></linearGradient><path class="st3" d="M600 125.2l-133.9-48.8v60l133.9 48.8z"/><path class="st0" d="M0 0h360l75 27.3h-240l60 21.8h240l225 81.9h-360l-360-131zm466.1 76.4h-136.1l60 21.8h136.1l-60-21.8z"/><linearGradient id="SVGID_2_" gradientUnits="userSpaceOnUse" x1="9678.241" y1="-139243.969" x2="12893.761" y2="-130423.266" gradientTransform="matrix(.028 0 0 -.028 -139.918 -3696.541)"><stop offset="0" stop-color="#FEFEFE"/><stop offset=".4" stop-color="#fff"/><stop offset="1" stop-color="#F0F0F0"/></linearGradient><path class="st4" d="M360 131l-360-131v120l360 131z"/><linearGradient id="Прямоугольник_x0020__1_1_" gradientUnits="userSpaceOnUse" x1="23985.981" y1="-139261.484" x2="23985.981" y2="-135028.156" gradientTransform="matrix(.028 0 0 -.028 -139.918 -3696.541)"><stop offset="0" stop-color="#fff"/><stop offset="1" stop-color="#EDEDED"/></linearGradient><path id="Прямоугольник_x0020__1" class="st5" d="M360 131h360v120h-360z"/></g><path class="st6" d="M691-2852.2z"/></svg>