<?xml version="1.0" encoding="UTF-8"?>
<!DOCTYPE svg PUBLIC "-//W3C//DTD SVG 1.1//EN" "http://www.w3.org/Graphics/SVG/1.1/DTD/svg11.dtd">
<!-- Creator: CorelDRAW 2018 (64-Bit Оценочная версия) -->
<svg xmlns="http://www.w3.org/2000/svg" xml:space="preserve" width="254mm" height="1763.89mm" version="1.1" style="shape-rendering:geometricPrecision; text-rendering:geometricPrecision; image-rendering:optimizeQuality; fill-rule:evenodd; clip-rule:evenodd"
viewBox="0 0 25400 176388.88"
 xmlns:xlink="http://www.w3.org/1999/xlink">
 <defs>
  <style type="text/css">
   <![CDATA[
    .fil0 {fill:white}
    .fil4 {fill:url(#id0)}
    .fil3 {fill:url(#id1)}
    .fil2 {fill:url(#id2)}
    .fil5 {fill:url(#id3)}
    .fil1 {fill:url(#id4)}
   ]]>
  </style>
  <linearGradient id="id0" gradientUnits="userSpaceOnUse" x1="4742.18" y1="24713.21" x2="7957.7" y2="15892.51">
   <stop offset="0" style="stop-opacity:1; stop-color:#FEFEFE"/>
   <stop offset="0.4" style="stop-opacity:1; stop-color:white"/>
   <stop offset="1" style="stop-opacity:1; stop-color:#F0F0F0"/>
  </linearGradient>
  <linearGradient id="id1" gradientUnits="userSpaceOnUse" xlink:href="#id0" x1="18025.97" y1="22323.35" x2="19582.99" y2="18655.58">
  </linearGradient>
  <linearGradient id="id2" gradientUnits="userSpaceOnUse" x1="14041.99" y1="20689.99" x2="14041.99" y2="18571.39">
   <stop offset="0" style="stop-opacity:1; stop-color:white"/>
   <stop offset="1" style="stop-opacity:1; stop-color:#EDEDED"/>
  </linearGradient>
  <linearGradient id="id3" gradientUnits="userSpaceOnUse" xlink:href="#id2" x1="19049.92" y1="24730.73" x2="19049.92" y2="20497.39">
  </linearGradient>
  <linearGradient id="id4" gradientUnits="userSpaceOnUse" xlink:href="#id2" x1="11112.46" y1="18956.59" x2="11112.46" y2="16837.99">
  </linearGradient>
 </defs>
 <g id="Слой_x0020_1">
  <metadata id="CorelCorpID_0Corel-Layer"/>
  <polygon class="fil0" points="-0.04,15874.99 12699.98,15874.99 15345.79,16837.99 15345.79,17608.39 17462.47,17608.39 25399.92,20497.39 25399.92,24730.73 12699.92,24730.73 -0.04,20108.33 "/>
  <rect id="Прямоугольник_x0020_" class="fil1" x="6879.14" y="16837.99" width="8466.65" height="2118.6"/>
  <rect id="Прямоугольник_x0020__0" class="fil2" x="11641.62" y="18571.39" width="4800.74" height="2118.6"/>
  <polygon class="fil3" points="21166.6,20290.87 16442.36,18571.39 16442.36,20688.05 21166.6,22407.54 "/>
  <path class="fil0" d="M-0.04 15874.99l12700.02 0 2645.81 963 -8466.65 0 2116.64 770.4 8466.69 0 7937.45 2889 -12700 0 -12699.96 -4622.4zm16442.4 2696.4l-4800.74 0 2116.68 770.41 4800.75 0 -2116.69 -770.41z"/>
  <polygon class="fil4" points="12699.92,20497.39 -0.04,15874.99 -0.04,20108.33 12699.92,24730.73 "/>
  <rect id="Прямоугольник_x0020__1" class="fil5" x="12699.92" y="20497.39" width="12700" height="4233.34"/>
 </g>
</svg>
