<?xml version="1.0" encoding="utf-8"?>
<!-- Generator: Adobe Illustrator 22.0.1, SVG Export Plug-In . SVG Version: 6.00 Build 0)  -->
<svg version="1.1" id="Слой_1" xmlns="http://www.w3.org/2000/svg" xmlns:xlink="http://www.w3.org/1999/xlink" x="0px" y="0px"
	 viewBox="0 0 720 250.9" style="enable-background:new 0 0 720 250.9;" xml:space="preserve">
<style type="text/css">
	.st0{fill:#1F1B20;}
	.st1{fill:url(#SVGID_1_);}
	.st2{fill:url(#SVGID_2_);}
	.st3{fill:url(#SVGID_3_);}
</style>
<g id="Слой_x0020_1">
	<polygon class="st0" points="480,43.7 360,0 0,0 0,120 360,251 720,251 720,131 600,87.4 480,87.4 	"/>
	
		<linearGradient id="SVGID_1_" gradientUnits="userSpaceOnUse" x1="17636.0156" y1="-136172.8281" x2="17636.0156" y2="-131939.5" gradientTransform="matrix(2.834646e-02 0 0 -2.834646e-02 -139.9181 -3696.3398)">
		<stop  offset="0" style="stop-color:#000000"/>
		<stop  offset="1" style="stop-color:#333333"/>
	</linearGradient>
	<rect x="240" y="43.7" class="st1" width="240" height="120"/>
	
		<linearGradient id="SVGID_2_" gradientUnits="userSpaceOnUse" x1="23986.0254" y1="-139254.4375" x2="23986.0254" y2="-135021.1094" gradientTransform="matrix(2.834646e-02 0 0 -2.834646e-02 -139.9181 -3696.3398)">
		<stop  offset="0" style="stop-color:#000000"/>
		<stop  offset="1" style="stop-color:#333333"/>
	</linearGradient>
	<rect x="360" y="131" class="st2" width="360" height="120"/>
	
		<linearGradient id="SVGID_3_" gradientUnits="userSpaceOnUse" x1="9678.2803" y1="-139236.9219" x2="12893.7998" y2="-130416.2188" gradientTransform="matrix(2.834646e-02 0 0 -2.834646e-02 -139.9181 -3696.3398)">
		<stop  offset="0" style="stop-color:#000000"/>
		<stop  offset="0.4" style="stop-color:#000000"/>
		<stop  offset="1" style="stop-color:#333333"/>
	</linearGradient>
	<polygon class="st3" points="360,131 0,0 0,120 360,251 	"/>
	<polygon class="st0" points="480,43.7 360,0 0,0 360,131 720,131 600,87.4 360,87.4 240,43.7 	"/>
</g>
</svg>
