<svg width="182" height="202" viewBox="0 0 182 202" xmlns="http://www.w3.org/2000/svg"><title>church</title><desc>Created with Sketch.</desc><path d="M158.414 110.06h-16.304v7.618c3.487.934 6.403 3.221 8.189 6.23.421-.711.907-1.385 1.455-2.016 1.771-2.032 4.092-3.482 6.66-4.188v-7.644zm2.182 11.059c-4.147.608-7.404 3.824-8.203 7.819h19.274c-.885-4.511-4.872-7.924-9.637-7.924-.488 0-.972.036-1.434.105zm-78.383-40.612l-2.356-5.05h47.321l-2.219 5.05v52.232h46.894v28.768h-144.226v-35.381h26.955v15.218h3.8v-15.218h18.246v15.218h3.8v-15.579c3.45-1.242 7.291-5.626 7.291-11.927 0-4.546-2.607-9.347-5.506-13.888v-19.443zm24.772-30.382h-7.004l-12.561 21.531h32.271l-12.706-21.531zm-6.195-3.8h5.38v-5.919h-5.38v5.919zm39.159 74.785c-.449-.064-.907-.096-1.367-.096-4.765 0-8.749 3.414-9.637 7.924h19.274c-.8-4.027-4.09-7.249-8.27-7.828zm-121.49 41.79c.133-.481.201-.99.201-1.518 0-2.35-2.056-5.489-3.557-7.781-.467-.712-.908-1.385-1.256-1.981-.728-1.25-1.448-2.316-2.118-3.245v-8.559h4.576v-3.8h-4.576v-4.876h-3.8v4.876h-4.573v3.8h4.573v8.675c-.671.922-1.402 1.973-2.142 3.169-.313.506-.677 1.057-1.062 1.641-1.572 2.38-3.726 5.64-3.726 8.081 0 2.386 1.661 4.086 2.245 4.248h12.99c.329-.037 1.69-.802 2.225-2.73zm7.267-40.575h24.752c-1.656-2.231-2.822-5.245-2.822-8.487 0-4.553 2.601-9.425 5.573-14.073-.856-1.394-1.74-2.745-2.539-3.964-.904-1.38-1.758-2.683-2.417-3.815-2.521-4.328-4.981-7.545-6.958-10.13l-.639-.838v-11.618h5.926v-3.801h-5.926v-6.289h-3.801v6.289h-5.924v3.801h5.924v11.809l-1.101 1.47c-1.852 2.461-4.156 5.525-6.519 9.348-.602.974-1.311 2.048-2.061 3.184-3.222 4.88-7.633 11.56-7.633 16.915 0 5.893 4.326 10.199 6.165 10.199zm30.755 0h22.047c1.563 0 5.39-2.974 5.39-8.487 0-3.731-2.63-8.312-5.203-12.301-.338-.524-.674-1.035-.997-1.528-.789-1.203-1.535-2.34-2.11-3.328-1.606-2.758-3.192-5.31-4.59-7.562-.494-.794-.958-1.544-1.394-2.25v-11.754h4.773v-3.8h-4.773v-4.837h-3.8v4.837h-4.909v3.8h4.909v11.826c-.98 1.62-2.11 3.421-3.332 5.373-.889 1.418-1.809 2.884-2.75 4.407-.514.831-1.116 1.742-1.753 2.707l-.929 1.41c-2.911 4.454-5.604 9.111-5.604 12.999 0 5.06 3.772 8.487 5.025 8.487zm-42.138 47.106h-9.247v31.512999999999998h175.902v-35.637h-159.394c-.823 1.753-2.133 3.013-3.461 3.649-1.15.472-2.517.417-3.801.475zm84.881-147.688c-.86 1.595-1.71 2.927-2.46 4.104-1.579 2.48-2.622 4.117-2.622 6.221 0 2.597 1.803 4.391 2.428 4.54l2.685-.001h10.939c.533-.065 2.62-1.419 2.62-4.538 0-2.154-1.149-3.948-2.739-6.431-.729-1.138-1.556-2.429-2.344-3.896-.788-1.468-1.595-3.171-2.353-4.881v-6.863h4.88v-3.8h-4.88v-5.196h-3.8v5.196h-4.879v3.8h4.879v6.879c-.767 1.724-1.579 3.432-2.354 4.868zm44.837 59.828l-1.054 1.412c-1.864 2.516-7.536 10.17-7.536 15.588 0 4.584 3.371 7.689 4.491 7.689h20.35c1.123 0 4.827-2.397 4.827-7.689 0-5.41-5.474-12.804-7.534-15.587l-.872-1.171c-1.591-2.134-3.178-4.282-4.527-6.223v-8.175h6.447v-3.8h-6.447v-6.837h-3.8v6.837h-6.449v3.8h6.449v8.213c-1.277 1.828-2.782 3.858-4.345 5.943z" stroke="#ccc" fill="none"/></svg>