<?xml version="1.0" encoding="UTF-8"?>
<svg width="182px" height="202px" viewBox="0 0 182 202" version="1.1" xmlns="http://www.w3.org/2000/svg" xmlns:xlink="http://www.w3.org/1999/xlink">
    <!-- Generator: Sketch 51.2 (57519) - http://www.bohemiancoding.com/sketch -->
    <title>church</title>
    <desc>Created with Sketch.</desc>
    <defs></defs>
    <g id="Page-2" stroke="none" stroke-width="1" fill="none" fill-rule="evenodd">
        <g id="church" transform="translate(1.000000, 1.000000)" stroke="#CCCCCC">
            <path d="M157.414329,109.059978 L141.110469,109.059978 L141.110469,116.678111 C144.597354,117.611706 147.513099,119.899196 149.299011,122.907934 C149.720044,122.196938 150.205513,121.522553 150.753954,120.892102 C152.524489,118.86016 154.845662,117.410342 157.414329,116.703739 L157.414329,109.059978 Z M159.596378,120.118866 C155.449753,120.726617 152.192056,123.942577 151.393192,127.93763 L170.666981,127.93763 C169.781714,123.427086 165.794715,120.013424 161.030087,120.013424 C160.542421,120.013424 160.058416,120.049304 159.596378,120.118866 Z M81.2132257,79.5063948 L78.8569058,74.4561963 L83.1045789,74.4561963 C83.1060433,74.4561963 83.10824,74.4561963 83.1097045,74.4561963 C83.111169,74.4561963 83.1126334,74.4561963 83.1140979,74.4561963 L122.015344,74.4561963 C122.016809,74.4561963 122.018273,74.4561963 122.019738,74.4561963 C122.021934,74.4561963 122.023399,74.4561963 122.024863,74.4561963 L126.178811,74.4561963 L123.96015,79.5063948 L123.96015,131.73791 L170.8537,131.73791 L170.8537,160.505809 L26.6275872,160.505809 L26.6275872,125.12513 L53.5824818,125.12513 L53.5824818,140.343091 L57.3827617,140.343091 L57.3827617,125.12513 L75.6284984,125.12513 L75.6284984,140.343091 L79.4287783,140.343091 L79.4287783,124.76414 C82.8790517,123.522276 86.7196043,119.137676 86.7196043,112.837559 C86.7196043,108.291867 84.112129,103.490627 81.2132257,98.9493296 L81.2132257,79.5063948 Z M105.985339,49.1246583 L98.9815478,49.1246583 L86.4201217,70.6559164 L118.691015,70.6559164 L105.985339,49.1246583 Z M99.7906632,45.3243784 L105.170366,45.3243784 L105.170366,39.4057537 L99.7906632,39.4057537 L99.7906632,45.3243784 Z M138.949655,120.109347 C138.500797,120.045642 138.043153,120.013424 137.582579,120.013424 C132.817219,120.013424 128.833149,123.427086 127.945685,127.93763 L147.219474,127.93763 C146.419878,123.910359 143.129963,120.688541 138.949655,120.109347 Z M17.4600527,161.899245 C17.5933188,161.418169 17.6606841,160.909268 17.6606841,160.38133 C17.6606841,158.0316 15.6045789,154.892525 14.1035049,152.600641 C13.6363414,151.88818 13.1955383,151.215992 12.8477285,150.619224 C12.1198907,149.369305 11.3993752,148.303176 10.7293836,147.373975 L10.7293836,138.814924 L15.3050963,138.814924 L15.3050963,135.014645 L10.7293836,135.014645 L10.7293836,130.138717 L6.92910375,130.138717 L6.92910375,135.014645 L2.35631997,135.014645 L2.35631997,138.814924 L6.92910375,138.814924 L6.92910375,147.4904 C6.25764775,148.412279 5.52688102,149.46303 4.78732752,150.659496 C4.4746648,151.165468 4.1107459,151.716838 3.72559229,152.300426 C2.15349193,154.680178 0,157.940803 0,160.38133 C0,162.767671 1.66070034,164.46718 2.24502083,164.629003 L15.2348021,164.629003 C15.5635739,164.591659 16.9247917,163.82721 17.4600527,161.899245 Z M24.7274473,121.324118 L49.4797904,121.324118 C47.8234835,119.09301 46.6577714,116.079146 46.6577714,112.837559 C46.6577714,108.284545 49.2586566,103.412279 52.230783,98.7648073 C51.3748047,97.3706392 50.4910017,96.0196726 49.6921375,94.8005077 C48.7885642,93.4209841 47.9340504,92.1176126 47.2750423,90.9855832 C44.7539703,86.6573646 42.2944058,83.440673 40.3173815,80.8558969 C40.09698,80.5673978 39.8846329,80.28915 39.6781437,80.0174922 L39.6781437,68.3991799 L45.6040907,68.3991799 L45.6040907,64.5981678 L39.6781437,64.5981678 L39.6781437,58.3090341 L35.8771316,58.3090341 L35.8771316,64.5981678 L29.9533813,64.5981678 L29.9533813,68.3991799 L35.8771316,68.3991799 L35.8771316,80.2086045 C35.5285896,80.6772325 35.162474,81.1641662 34.7758559,81.6781925 C32.9240432,84.1392216 30.6197117,87.2028769 28.2568016,91.0258559 C27.6549076,91.9997234 26.9461078,93.0739065 26.1955708,94.2103293 C22.9737536,99.089918 18.5627929,105.770795 18.5627929,111.12487 C18.5627929,117.017866 22.8888148,121.324118 24.7274473,121.324118 Z M55.4826217,121.324118 L77.5293706,121.324118 C79.0926842,121.324118 82.9193244,118.350527 82.9193244,112.837559 C82.9193244,109.106841 80.28915,104.52527 77.7160896,100.536807 C77.3777988,100.012529 77.0424369,99.5021641 76.7195229,99.0086403 C75.9301777,97.8055845 75.1847663,96.6684294 74.6099649,95.6806496 C73.0041819,92.9230669 71.4181691,90.370509 70.0196075,88.1188981 C69.5260837,87.3251595 69.0611169,86.5753547 68.6254393,85.8687516 L68.6254393,74.1149766 L73.3988545,74.1149766 L73.3988545,70.3146967 L68.6254393,70.3146967 L68.6254393,65.4775775 L64.8258917,65.4775775 L64.8258917,70.3146967 L59.9170138,70.3146967 L59.9170138,74.1149766 L64.8258917,74.1149766 L64.8258917,85.9405103 C63.8454341,87.5609379 62.7163336,89.3614944 61.4935076,91.3136228 C60.6045789,92.7319546 59.6848965,94.1978814 58.7439794,95.7209223 C58.2299531,96.5520047 57.6280591,97.4629003 56.991018,98.427981 C56.6893387,98.8834288 56.3781405,99.3542534 56.0618166,99.8382583 C53.1511976,104.292421 50.4580513,108.949411 50.4580513,112.837559 C50.4580513,117.897276 54.2305064,121.324118 55.4826217,121.324118 Z M13.3449134,168.430015 L4.09756574,168.430015 L4.09756574,177.905087 L4.09756574,199.943049 L180,199.943049 L180,164.306089 L20.6064501,164.306089 C19.7834223,166.05905 18.4734607,167.31922 17.1459255,167.954797 C15.9963226,168.427086 14.6292469,168.371436 13.3449134,168.430015 Z M98.2258852,20.7419129 C97.3655135,22.3367124 96.5153931,23.668641 95.7663206,24.8460687 C94.1868979,27.3261358 93.1442007,28.9626725 93.1442007,31.0671049 C93.1442007,33.664329 94.9476861,35.4582954 95.5722794,35.6069383 L98.2573711,35.6054738 L106.703658,35.6054738 L109.196173,35.6054738 C109.729237,35.5403053 111.816096,34.1864098 111.816096,31.0671049 C111.816096,28.9128808 110.667225,27.1189143 109.076819,24.6359184 C108.347517,23.4980311 107.520828,22.2071075 106.732947,20.7397162 C105.945066,19.2715927 105.138148,17.5684229 104.380288,15.8586631 L104.380288,8.99546017 L109.259877,8.99546017 L109.259877,5.19591252 L104.380288,5.19591252 L104.380288,0 L100.580008,0 L100.580008,5.19591252 L95.701152,5.19591252 L95.701152,8.99546017 L100.580008,8.99546017 L100.580008,15.87404 C99.8126302,17.5984444 99.001318,19.3060076 98.2258852,20.7419129 Z M143.062598,80.5703267 C142.667925,81.0975332 142.310596,81.5742157 142.008917,81.9820685 C140.144656,84.4980148 134.472794,92.1520275 134.472794,97.5705383 C134.472794,102.155038 137.843986,105.259698 138.963567,105.259698 L159.313737,105.259698 C160.436247,105.259698 164.140605,102.863105 164.140605,97.5705383 C164.140605,92.160082 158.666444,84.7667437 156.606678,81.9835329 C156.351861,81.6393843 156.058237,81.2447117 155.734591,80.8126953 C154.143452,78.6789736 152.556707,76.5306073 151.207205,74.5894624 L151.207205,66.4148334 L157.653769,66.4148334 L157.653769,62.6145535 L151.207205,62.6145535 L151.207205,55.7777109 L147.407658,55.7777109 L147.407658,62.6145535 L140.958897,62.6145535 L140.958897,66.4148334 L147.407658,66.4148334 L147.407658,74.6275384 C146.130646,76.4559197 144.625179,78.4856645 143.062598,80.5703267 Z" id="Shape"></path>
        </g>
    </g>
</svg>
