<?xml version="1.0" encoding="UTF-8"?>
<svg width="182px" height="92px" viewBox="0 0 182 92" version="1.1" xmlns="http://www.w3.org/2000/svg" xmlns:xlink="http://www.w3.org/1999/xlink">
    <!-- Generator: Sketch 51.2 (57519) - http://www.bohemiancoding.com/sketch -->
    <title>field</title>
    <desc>Created with Sketch.</desc>
    <defs></defs>
    <g id="Page-2" stroke="none" stroke-width="1" fill="none" fill-rule="evenodd">
        <g id="field" transform="translate(1.000000, 1.000000)">
            <rect id="Rectangle-path" stroke="#CCCCCC" x="0.0628697294" y="0.140465702" width="179.908244" height="89.9150409"></rect>
            <rect id="Rectangle-path" stroke="#CCCCCC" x="0.0226557583" y="23.1185022" width="25.9753933" height="43.9584015"></rect>
            <ellipse id="Oval" stroke="#CCCCCC" cx="90.0169918" cy="45.0979862" rx="14.9862177" ry="14.9856514"></ellipse>
            <path d="M121.179421,50.0771554 L122.606167,50.0771554 L125.305035,46.0631215 L127.990875,50.0771554 L129.487288,50.0771554 L126.046444,45.0419132 L129.179736,40.2864695 L127.752989,40.2864695 L125.333354,44.0767778 L122.941473,40.2864695 L121.4309,40.2864695 L124.591945,45.0979862 L121.179421,50.0771554 Z M131.781183,49.070107 L134.452297,46.3010069 C135.920957,44.8323474 136.536627,43.9368785 136.536627,42.7344242 C136.536627,41.0278792 135.291693,40.1188169 133.585148,40.1188169 C131.83669,40.1188169 130.494336,41.1536186 130.340277,43.4894273 L131.529138,43.5874135 C131.654877,41.867275 132.46652,41.1258653 133.585148,41.1258653 C134.564443,41.1258653 135.305853,41.6435494 135.305853,42.7344242 C135.305853,43.8111391 134.49421,44.6222152 133.347262,45.8110761 L130.116551,49.1539333 L130.116551,50.0771554 L136.773946,50.0771554 L136.773946,49.070107 L131.781183,49.070107 Z" id="Shape" fill="#CCCCCC" fill-rule="nonzero"></path>
            <rect id="Rectangle-path" stroke="#CCCCCC" x="0.102517306" y="0.140465702" width="89.9144745" height="89.9144745"></rect>
            <rect id="Rectangle-path" stroke="#CCCCCC" x="153.910195" y="23.1185022" width="25.9753933" height="43.9584015"></rect>
            <path d="M10.0931403,0.0147262429 C10.0931403,5.53253619 5.62032725,10.0053493 0.102517306,10.0053493" id="Shape" stroke="#CCCCCC"></path>
            <path d="M179.931466,10.1305223 C174.413656,10.1305223 169.940843,5.65827565 169.940843,0.140465702" id="Shape" stroke="#CCCCCC"></path>
            <path d="M0.102517306,80.0648836 C5.62032725,80.0648836 10.0931403,84.5371303 10.0931403,90.0549402" id="Shape" stroke="#CCCCCC"></path>
            <path d="M169.940843,90.0549402 C169.940843,84.5371303 174.413656,80.0648836 179.931466,80.0648836" id="Shape" stroke="#CCCCCC"></path>
        </g>
    </g>
</svg>
