<svg width="182" height="52" viewBox="0 0 182 52" xmlns="http://www.w3.org/2000/svg"><title>flags</title><desc>Created with Sketch.</desc><g transform="translate(1 1)" fill="none"><path stroke="#ccc" d="M.052.036h79.975v49.984h-79.975zM100.02.036h79.975v49.984h-79.975zM.052.036h39.987v24.992h-39.987z"/><circle id="Oval" fill="#ccc" cx="20.045" cy="12.533" r="1.5"/><circle id="Oval" fill="#ccc" cx="10.048" cy="12.533" r="1.5"/><circle id="Oval" fill="#ccc" cx="30.042" cy="12.533" r="1.5"/><circle id="Oval" fill="#ccc" cx="20.045" cy="20.03" r="1.5"/><circle id="Oval" fill="#ccc" cx="10.048" cy="20.03" r="1.5"/><circle id="Oval" fill="#ccc" cx="30.042" cy="20.03" r="1.5"/><circle id="Oval" fill="#ccc" cx="20.045" cy="5.035" r="1.5"/><circle id="Oval" fill="#ccc" cx="10.048" cy="5.035" r="1.5"/><circle id="Oval" fill="#ccc" cx="30.042" cy="5.035" r="1.5"/><path d="M40.039 25.028h39.988M40.039 12.533h39.988M.052 37.525h79.975" stroke="#ccc"/><circle id="Oval" fill="#ccc" cx="140.007" cy="40.023" r="1.5"/><circle id="Oval" fill="#ccc" cx="140.007" cy="10.033" r="1.5"/><circle id="Oval" fill="#ccc" cx="124.804" cy="25.028" r="1.5"/><circle id="Oval" fill="#ccc" cx="155.211" cy="25.028" r="1.5"/><circle id="Oval" fill="#ccc" cx="129.331" cy="35.705" r="1.5"/><circle id="Oval" fill="#ccc" cx="150.683" cy="14.352" r="1.5"/><circle id="Oval" fill="#ccc" cx="150.683" cy="35.704" r="1.5"/><circle fill="#ccc" cx="129.331" cy="14.352" r="1.5"/></g></svg>