<?xml version="1.0" encoding="UTF-8"?>
<svg width="182px" height="52px" viewBox="0 0 182 52" version="1.1" xmlns="http://www.w3.org/2000/svg" xmlns:xlink="http://www.w3.org/1999/xlink">
    <!-- Generator: Sketch 51.2 (57519) - http://www.bohemiancoding.com/sketch -->
    <title>flags</title>
    <desc>Created with Sketch.</desc>
    <defs></defs>
    <g id="Page-2" stroke="none" stroke-width="1" fill="none" fill-rule="evenodd">
        <g id="flags" transform="translate(1.000000, 1.000000)">
            <rect id="Rectangle-path" stroke="#CCCCCC" x="0.0515743073" y="0.0362720403" width="79.9747481" height="49.984005"></rect>
            <rect id="Rectangle-path" stroke="#CCCCCC" x="100.020151" y="0.0362720403" width="79.9747481" height="49.984005"></rect>
            <rect id="Rectangle-path" stroke="#CCCCCC" x="0.0515743073" y="0.0362720403" width="39.9870907" height="24.9920025"></rect>
            <circle id="Oval" fill="#CCCCCC" cx="20.0448363" cy="12.5325567" r="1.49962217"></circle>
            <circle id="Oval" fill="#CCCCCC" cx="10.0479219" cy="12.5325567" r="1.49962217"></circle>
            <circle id="Oval" fill="#CCCCCC" cx="30.0417506" cy="12.5325567" r="1.49962217"></circle>
            <circle id="Oval" fill="#CCCCCC" cx="20.0448363" cy="20.029534" r="1.49962217"></circle>
            <circle id="Oval" fill="#CCCCCC" cx="10.0479219" cy="20.029534" r="1.49962217"></circle>
            <circle id="Oval" fill="#CCCCCC" cx="30.0417506" cy="20.029534" r="1.49962217"></circle>
            <circle id="Oval" fill="#CCCCCC" cx="20.0448363" cy="5.03501259" r="1.49962217"></circle>
            <circle id="Oval" fill="#CCCCCC" cx="10.0479219" cy="5.03501259" r="1.49962217"></circle>
            <circle id="Oval" fill="#CCCCCC" cx="30.0417506" cy="5.03501259" r="1.49962217"></circle>
            <path d="M40.038665,25.0282746 L80.0263224,25.0282746" id="Shape" stroke="#CCCCCC"></path>
            <path d="M40.038665,12.5325567 L80.0263224,12.5325567" id="Shape" stroke="#CCCCCC"></path>
            <path d="M0.0515743073,37.5245592 L80.0263224,37.5245592" id="Shape" stroke="#CCCCCC"></path>
            <circle id="Oval" fill="#CCCCCC" cx="140.007242" cy="40.0233627" r="1.49962217"></circle>
            <circle id="Oval" fill="#CCCCCC" cx="140.007242" cy="10.0331864" r="1.49962217"></circle>
            <circle id="Oval" fill="#CCCCCC" cx="124.803589" cy="25.0282746" r="1.49962217"></circle>
            <circle id="Oval" fill="#CCCCCC" cx="155.210894" cy="25.0282746" r="1.49962217"></circle>
            <circle id="Oval" fill="#CCCCCC" cx="129.330793" cy="35.7047229" r="1.49962217"></circle>
            <circle id="Oval" fill="#CCCCCC" cx="150.683123" cy="14.3523929" r="1.49962217"></circle>
            <circle id="Oval" fill="#CCCCCC" cx="150.683123" cy="35.7041562" r="1.49962217"></circle>
            <circle id="Oval" fill="#CCCCCC" cx="129.33136" cy="14.3523929" r="1.49962217"></circle>
        </g>
    </g>
</svg>
