<?xml version="1.0" encoding="utf-8"?>
<!-- Generator: Adobe Illustrator 22.0.1, SVG Export Plug-In . SVG Version: 6.00 Build 0)  -->
<svg version="1.1" stroke-width="5" fill="none" stroke="#fff" id="Слой_1" xmlns="http://www.w3.org/2000/svg" xmlns:xlink="http://www.w3.org/1999/xlink" x="0px" y="0px"
	 viewBox="0 0 5892 5847" style="enable-background:new 0 0 5892 5847;" xml:space="preserve">
<rect x="1134.5" y="1398.5" width="201" height="199"/>
<line x1="1268.5" y1="1398" x2="1268.5" y2="1597"/>
<path d="M1202.5,1398v199"/>
<rect x="1144.5" y="1406.5" width="49" height="38"/>
<rect x="1144.5" y="1454.5" width="49" height="38"/>
<rect x="1144.5" y="1502.5" width="49" height="38"/>
<rect x="1144.5" y="1550.5" width="49" height="38"/>
<rect x="1211.5" y="1454.5" width="49" height="38"/>
<rect x="1211.5" y="1502.5" width="49" height="38"/>
<rect x="1211.5" y="1550.5" width="49" height="38"/>
<rect x="1277.5" y="1454.5" width="49" height="38"/>
<rect x="1277.5" y="1502.5" width="49" height="38"/>
<rect x="1277.5" y="1550.5" width="49" height="38"/>
<rect x="1211.5" y="1406.5" width="49" height="38"/>
<rect x="1277.5" y="1406.5" width="49" height="38"/>
<rect x="1418.5" y="2268.5" width="201" height="199"/>
<line x1="1552.5" y1="2268" x2="1552.5" y2="2467"/>
<path d="M1486.5,2268v199"/>
<rect x="1428.5" y="2276.5" width="49" height="38"/>
<rect x="1428.5" y="2324.5" width="49" height="38"/>
<rect x="1428.5" y="2372.5" width="49" height="38"/>
<rect x="1428.5" y="2420.5" width="49" height="38"/>
<rect x="1495.5" y="2324.5" width="49" height="38"/>
<rect x="1495.5" y="2372.5" width="49" height="38"/>
<rect x="1495.5" y="2420.5" width="49" height="38"/>
<rect x="1561.5" y="2324.5" width="49" height="38"/>
<rect x="1561.5" y="2372.5" width="49" height="38"/>
<rect x="1561.5" y="2420.5" width="49" height="38"/>
<rect x="1495.5" y="2276.5" width="49" height="38"/>
<rect x="1561.5" y="2276.5" width="49" height="38"/>
<rect x="1787.5" y="2268.5" width="134" height="199"/>
<line x1="1854.5" y1="2268" x2="1854.5" y2="2467"/>
<rect x="1797.5" y="2324.5" width="49" height="38"/>
<rect x="1797.5" y="2372.5" width="49" height="38"/>
<rect x="1797.5" y="2420.5" width="49" height="38"/>
<rect x="1863.5" y="2324.5" width="49" height="38"/>
<rect x="1863.5" y="2372.5" width="49" height="38"/>
<rect x="1863.5" y="2420.5" width="49" height="38"/>
<rect x="1797.5" y="2276.5" width="49" height="38"/>
<rect x="1863.5" y="2276.5" width="49" height="38"/>
<rect x="1787.5" y="1829.5" width="134" height="199"/>
<line x1="1854.5" y1="1829" x2="1854.5" y2="2028"/>
<rect x="1797.5" y="1885.5" width="49" height="38"/>
<rect x="1797.5" y="1933.5" width="49" height="38"/>
<rect x="1797.5" y="1981.5" width="49" height="38"/>
<rect x="1863.5" y="1885.5" width="49" height="38"/>
<rect x="1863.5" y="1933.5" width="49" height="38"/>
<rect x="1863.5" y="1981.5" width="49" height="38"/>
<rect x="1797.5" y="1837.5" width="49" height="38"/>
<rect x="1863.5" y="1837.5" width="49" height="38"/>
<rect x="2195.5" y="1500.5" width="67" height="150"/>
<rect x="2204.5" y="1556.5" width="49" height="38"/>
<rect x="2204.5" y="1604.5" width="49" height="38"/>
<rect x="2204.5" y="1508.5" width="49" height="38"/>
<rect x="1217.5" y="2268.5" width="201" height="199"/>
<line x1="1351.5" y1="2268" x2="1351.5" y2="2467"/>
<path d="M1285.5,2268v199"/>
<rect x="1227.5" y="2276.5" width="49" height="38"/>
<rect x="1227.5" y="2324.5" width="49" height="38"/>
<rect x="1227.5" y="2372.5" width="49" height="38"/>
<rect x="1227.5" y="2420.5" width="49" height="38"/>
<rect x="1294.5" y="2324.5" width="49" height="38"/>
<rect x="1294.5" y="2372.5" width="49" height="38"/>
<rect x="1294.5" y="2420.5" width="49" height="38"/>
<rect x="1360.5" y="2324.5" width="49" height="38"/>
<rect x="1360.5" y="2372.5" width="49" height="38"/>
<rect x="1360.5" y="2420.5" width="49" height="38"/>
<rect x="1294.5" y="2276.5" width="49" height="38"/>
<rect x="1360.5" y="2276.5" width="49" height="38"/>
<rect x="563.5" y="5473.5" width="201" height="102"/>
<line x1="697.5" y1="5473" x2="697.5" y2="5575"/>
<path d="M631.4,5473v102"/>
<rect x="573.5" y="5529.5" width="49" height="38"/>
<rect x="640.5" y="5529.5" width="49" height="38"/>
<rect x="706.5" y="5529.5" width="49" height="38"/>
<rect x="640.5" y="5481.5" width="49" height="38"/>
<rect x="706.5" y="5481.5" width="49" height="38"/>
<rect x="362.5" y="5473.5" width="201" height="102"/>
<line x1="496.1" y1="5473" x2="496.1" y2="5575"/>
<path d="M430,5473v102"/>
<rect x="372.5" y="5481.5" width="49" height="38"/>
<rect x="372.5" y="5529.5" width="49" height="38"/>
<rect x="439.5" y="5529.5" width="49" height="38"/>
<rect x="505.5" y="5529.5" width="49" height="38"/>
<rect x="439.5" y="5481.5" width="49" height="38"/>
<rect x="505.5" y="5481.5" width="49" height="38"/>
<rect x="573.5" y="5481.5" width="49" height="38"/>
<rect x="1918.5" y="1503.5" width="68" height="102"/>
<rect x="1928.5" y="1511.5" width="49" height="38"/>
<rect x="1928.5" y="1559.5" width="49" height="38"/>
<rect x="1717.5" y="1503.5" width="201" height="102"/>
<line x1="1851.1" y1="1503" x2="1851.1" y2="1605"/>
<path d="M1785,1503v102"/>
<rect x="1727.5" y="1511.5" width="49" height="38"/>
<rect x="1727.5" y="1559.5" width="49" height="38"/>
<rect x="1794.5" y="1559.5" width="49" height="38"/>
<rect x="1860.5" y="1559.5" width="49" height="38"/>
<rect x="1794.5" y="1511.5" width="49" height="38"/>
<rect x="1860.5" y="1511.5" width="49" height="38"/>
<rect x="68.5" y="5473.5" width="201" height="102"/>
<line x1="202.5" y1="5473" x2="202.5" y2="5575"/>
<path d="M136.4,5473v102"/>
<rect x="78.5" y="5481.5" width="49" height="38"/>
<rect x="78.5" y="5529.5" width="49" height="38"/>
<rect x="145.5" y="5529.5" width="49" height="38"/>
<rect x="211.5" y="5529.5" width="49" height="38"/>
<rect x="145.5" y="5481.5" width="49" height="38"/>
<rect x="211.5" y="5481.5" width="49" height="38"/>
<rect x="1.5" y="5473.5" width="67" height="102"/>
<rect x="10.5" y="5529.5" width="49" height="38"/>
<rect x="10.5" y="5481.5" width="49" height="38"/>
<line x1="1634.5" y1="1411" x2="1634.5" y2="1756"/>
<line x1="1634" y1="1452.5" x2="2342" y2="1452.5"/>
<line x1="2341.5" y1="1452" x2="2341.5" y2="1707"/>
<line x1="890" y1="1756.5" x2="2099" y2="1756.5"/>
<line x1="1701.5" y1="1756" x2="1701.5" y2="2508"/>
<line x1="890" y1="2167.5" x2="2085" y2="2167.5"/>
<line x1="890" y1="2177.5" x2="2085" y2="2177.5"/>
<line x1="890" y1="2187.5" x2="2085" y2="2187.5"/>
<line x1="1034.5" y1="1766" x2="1034.5" y2="2168"/>
<line x1="1034" y1="1765.5" x2="1701" y2="1765.5"/>
<line x1="1035" y1="1774.5" x2="1702" y2="1774.5"/>
<line x1="1045.5" y1="1775" x2="1045.5" y2="2167"/>
<line x1="1056.5" y1="1775" x2="1056.5" y2="2167"/>
<line x1="1690.5" y1="1775" x2="1690.5" y2="2167"/>
<line x1="1679.5" y1="1775" x2="1679.5" y2="2167"/>
<line x1="1375.5" y1="1775" x2="1375.5" y2="2167"/>
<line x1="1360.5" y1="1775" x2="1360.5" y2="2167"/>
<line x1="1056" y1="1891.5" x2="1360" y2="1891.5"/>
<line x1="1056" y1="1901.5" x2="1360" y2="1901.5"/>
<line x1="1375" y1="1901.5" x2="1679" y2="1901.5"/>
<line x1="1375" y1="1891.5" x2="1679" y2="1891.5"/>
<line x1="1375" y1="2042.5" x2="1679" y2="2042.5"/>
<line x1="1375" y1="2032.5" x2="1679" y2="2032.5"/>
<line x1="1056" y1="2032.5" x2="1360" y2="2032.5"/>
<line x1="1056" y1="2042.5" x2="1360" y2="2042.5"/>
<line x1="1078.5" y1="1774" x2="1078.5" y2="1892"/>
<line x1="1099.5" y1="1774" x2="1099.5" y2="1892"/>
<line x1="1120.5" y1="1774" x2="1120.5" y2="1892"/>
<line x1="1141.5" y1="1774" x2="1141.5" y2="1892"/>
<line x1="1162.5" y1="1774" x2="1162.5" y2="1892"/>
<line x1="1183.5" y1="1774" x2="1183.5" y2="1892"/>
<line x1="1204.5" y1="1774" x2="1204.5" y2="1892"/>
<line x1="1225.5" y1="1774" x2="1225.5" y2="1892"/>
<line x1="1246.5" y1="1774" x2="1246.5" y2="1892"/>
<line x1="1267.5" y1="1774" x2="1267.5" y2="1892"/>
<line x1="1288.5" y1="1774" x2="1288.5" y2="1892"/>
<line x1="1309.5" y1="1774" x2="1309.5" y2="1892"/>
<line x1="1330.5" y1="1774" x2="1330.5" y2="1892"/>
<line x1="1351.5" y1="1774" x2="1351.5" y2="1892"/>
<line x1="1078.5" y1="1902" x2="1078.5" y2="2033"/>
<line x1="1099.5" y1="1902" x2="1099.5" y2="2033"/>
<line x1="1120.5" y1="1902" x2="1120.5" y2="2033"/>
<line x1="1141.5" y1="1902" x2="1141.5" y2="2033"/>
<line x1="1162.5" y1="1902" x2="1162.5" y2="2033"/>
<line x1="1183.5" y1="1902" x2="1183.5" y2="2033"/>
<line x1="1204.5" y1="1902" x2="1204.5" y2="2033"/>
<line x1="1225.5" y1="1902" x2="1225.5" y2="2033"/>
<line x1="1246.5" y1="1902" x2="1246.5" y2="2033"/>
<line x1="1267.5" y1="1902" x2="1267.5" y2="2033"/>
<line x1="1288.5" y1="1902" x2="1288.5" y2="2033"/>
<line x1="1309.5" y1="1902" x2="1309.5" y2="2033"/>
<line x1="1330.5" y1="1902" x2="1330.5" y2="2033"/>
<line x1="1351.5" y1="1902" x2="1351.5" y2="2033"/>
<line x1="1078.5" y1="2042" x2="1078.5" y2="2168"/>
<line x1="1099.5" y1="2042" x2="1099.5" y2="2168"/>
<line x1="1120.5" y1="2042" x2="1120.5" y2="2168"/>
<line x1="1141.5" y1="2042" x2="1141.5" y2="2168"/>
<line x1="1162.5" y1="2042" x2="1162.5" y2="2168"/>
<line x1="1183.5" y1="2042" x2="1183.5" y2="2168"/>
<line x1="1204.5" y1="2042" x2="1204.5" y2="2168"/>
<line x1="1225.5" y1="2042" x2="1225.5" y2="2168"/>
<line x1="1246.5" y1="2042" x2="1246.5" y2="2168"/>
<line x1="1267.5" y1="2042" x2="1267.5" y2="2168"/>
<line x1="1288.5" y1="2042" x2="1288.5" y2="2168"/>
<line x1="1309.5" y1="2042" x2="1309.5" y2="2168"/>
<line x1="1330.5" y1="2042" x2="1330.5" y2="2168"/>
<line x1="1351.5" y1="2042" x2="1351.5" y2="2168"/>
<line x1="1384.5" y1="2042" x2="1384.5" y2="2168"/>
<line x1="1405.5" y1="2042" x2="1405.5" y2="2168"/>
<line x1="1426.5" y1="2042" x2="1426.5" y2="2168"/>
<line x1="1447.5" y1="2042" x2="1447.5" y2="2168"/>
<line x1="1468.5" y1="2042" x2="1468.5" y2="2168"/>
<line x1="1489.5" y1="2042" x2="1489.5" y2="2168"/>
<line x1="1510.5" y1="2042" x2="1510.5" y2="2168"/>
<line x1="1531.5" y1="2042" x2="1531.5" y2="2168"/>
<line x1="1552.5" y1="2042" x2="1552.5" y2="2168"/>
<line x1="1573.5" y1="2042" x2="1573.5" y2="2168"/>
<line x1="1594.5" y1="2042" x2="1594.5" y2="2168"/>
<line x1="1615.5" y1="2042" x2="1615.5" y2="2168"/>
<line x1="1636.5" y1="2042" x2="1636.5" y2="2168"/>
<line x1="1657.5" y1="2042" x2="1657.5" y2="2168"/>
<line x1="1384.5" y1="1774" x2="1384.5" y2="1892"/>
<line x1="1405.5" y1="1774" x2="1405.5" y2="1892"/>
<line x1="1426.5" y1="1774" x2="1426.5" y2="1892"/>
<line x1="1447.5" y1="1774" x2="1447.5" y2="1892"/>
<line x1="1468.5" y1="1774" x2="1468.5" y2="1892"/>
<line x1="1489.5" y1="1774" x2="1489.5" y2="1892"/>
<line x1="1489.5" y1="1901" x2="1489.5" y2="2033"/>
<line x1="1510.5" y1="1774" x2="1510.5" y2="1892"/>
<line x1="1531.5" y1="1774" x2="1531.5" y2="1892"/>
<line x1="1552.5" y1="1774" x2="1552.5" y2="1892"/>
<line x1="1573.5" y1="1774" x2="1573.5" y2="1892"/>
<line x1="1594.5" y1="1774" x2="1594.5" y2="1892"/>
<line x1="1615.5" y1="1774" x2="1615.5" y2="1892"/>
<line x1="1636.5" y1="1774" x2="1636.5" y2="1892"/>
<line x1="1657.5" y1="1774" x2="1657.5" y2="1892"/>
<line x1="1510.5" y1="1902" x2="1510.5" y2="2033"/>
<line x1="1531.5" y1="1902" x2="1531.5" y2="2033"/>
<line x1="1552.5" y1="1902" x2="1552.5" y2="2033"/>
<line x1="1573.5" y1="1902" x2="1573.5" y2="2033"/>
<line x1="1594.5" y1="1902" x2="1594.5" y2="2033"/>
<line x1="1615.5" y1="1902" x2="1615.5" y2="2033"/>
<line x1="1636.5" y1="1902" x2="1636.5" y2="2033"/>
<line x1="1657.5" y1="1902" x2="1657.5" y2="2033"/>
<line x1="0" y1="5420.5" x2="835" y2="5421.5"/>
<line x1="0" y1="5373.5" x2="835" y2="5374.5"/>
<line x1="835.5" y1="5374" x2="835.5" y2="5847"/>
<line x1="954.5" y1="3747" x2="954.5" y2="5847"/>
<path style="fill:none;stroke:#FFFFFF;stroke-miterlimit:10;" d="M2577,1681.5l0.1-0.5l-0.1,0l-0.1,0L2577,1681.5z M2989.5,1729.4
	h0.5v-0.4l-0.4-0.1L2989.5,1729.4z M2107.5,1740.4l-0.1-0.5l-0.4,0.1v0.4H2107.5z M2577,1691l0.1-0.5h-0.1h-0.1L2577,1691z
	 M2099.5,1732.4l-0.1-0.5l-0.4,0v0.4H2099.5z M2989.5,1737.7l-0.1,0.5l0.6,0.1v-0.6H2989.5z M2576.9,1682l412.5,47.9l0.1-1
	l-412.5-47.9L2576.9,1682z M2107,1740.4V2036h1v-295.6H2107z M2107.6,1740.9l469.5-49.4l-0.1-1l-469.5,49.4L2107.6,1740.9z
	 M2099,1732.4V2036h1v-303.6H2099z M2099.6,1732.9l477.5-50.9l-0.1-1l-477.5,50.9L2099.6,1732.9z M2576.9,1691.5l412.5,46.7l0.1-1
	l-412.5-46.7L2576.9,1691.5z M2989.6,1737.2L2989.6,1737.2l-0.1,1h0L2989.6,1737.2z M2989,1729.4v8.3h1v-8.3H2989z"/>
<line x1="2960.5" y1="1734" x2="2960.5" y2="2036"/>
<line x1="2968.5" y1="1735" x2="2968.5" y2="2036"/>
<rect x="4577.5" y="651.5" width="134" height="199"/>
<line x1="4644.5" y1="651" x2="4644.5" y2="850"/>
<rect x="4587.5" y="707.5" width="49" height="38"/>
<rect x="4587.5" y="755.5" width="49" height="38"/>
<rect x="4587.5" y="803.5" width="49" height="38"/>
<rect x="4653.5" y="707.5" width="49" height="38"/>
<rect x="4653.5" y="755.5" width="49" height="38"/>
<rect x="4653.5" y="803.5" width="49" height="38"/>
<rect x="4587.5" y="659.5" width="49" height="38"/>
<rect x="4653.5" y="659.5" width="49" height="38"/>
<rect x="5343.5" y="493" width="134" height="102.5"/>
<line x1="5410.5" y1="493" x2="5410.5" y2="595"/>
<rect x="5353.5" y="549.5" width="49" height="38"/>
<rect x="5419.5" y="549.5" width="49" height="38"/>
<rect x="5353.5" y="501.5" width="49" height="38"/>
<rect x="5419.5" y="501.5" width="49" height="38"/>
<rect x="4077.5" y="1976.5" width="120" height="190"/>
<rect x="4077.5" y="2166.5" width="120" height="211"/>
<rect x="4197.5" y="1976.5" width="131" height="213"/>
<rect x="4197.5" y="2099.5" width="17" height="278"/>
<line x1="4215" y1="2377.5" x2="4341" y2="2377.5"/>
<line x1="4341.5" y1="2377" x2="4341.5" y2="2447"/>
<line x1="4342" y1="2447.5" x2="4328" y2="2447.5"/>
<line x1="4198" y1="2189.5" x2="4078" y2="2189.5"/>
<line x1="4198" y1="2212.5" x2="4078" y2="2212.5"/>
<line x1="4198" y1="2235.5" x2="4078" y2="2235.5"/>
<line x1="4198" y1="2257.5" x2="4078" y2="2257.5"/>
<line x1="4198" y1="2280.5" x2="4078" y2="2280.5"/>
<line x1="4198" y1="2302.5" x2="4078" y2="2302.5"/>
<line x1="4198" y1="2324.5" x2="4078" y2="2324.5"/>
<line x1="4198" y1="2347.5" x2="4078" y2="2347.5"/>
<line x1="4198" y1="2369.5" x2="4078" y2="2369.5"/>
<rect x="4077.5" y="2393.5" width="120" height="185"/>
<rect x="4077.5" y="2578.5" width="120" height="211"/>
<rect x="4197.5" y="2393.5" width="131" height="208"/>
<rect x="4197.5" y="2511.5" width="17" height="278"/>
<line x1="4215" y1="2789.5" x2="4341" y2="2789.5"/>
<line x1="4341.5" y1="2789" x2="4341.5" y2="2859"/>
<line x1="4341.5" y1="3189" x2="4341.5" y2="3270"/>
<line x1="4342" y1="2859.5" x2="4328" y2="2859.5"/>
<line x1="4198" y1="2601.5" x2="4078" y2="2601.5"/>
<line x1="4198" y1="2624.5" x2="4078" y2="2624.5"/>
<line x1="4198" y1="2647.5" x2="4078" y2="2647.5"/>
<line x1="4198" y1="2669.5" x2="4078" y2="2669.5"/>
<line x1="4198" y1="2692.5" x2="4078" y2="2692.5"/>
<line x1="4198" y1="2714.5" x2="4078" y2="2714.5"/>
<line x1="4198" y1="2736.5" x2="4078" y2="2736.5"/>
<line x1="4198" y1="2759.5" x2="4078" y2="2759.5"/>
<line x1="4198" y1="2781.5" x2="4078" y2="2781.5"/>
<rect x="4077.5" y="1621.5" width="120" height="125"/>
<rect x="4077.5" y="1568.5" width="251" height="53"/>
<rect x="3260.5" y="1303.5" width="749" height="232"/>
<rect x="4077.5" y="1746.5" width="120" height="211"/>
<rect x="4197.5" y="1621.5" width="131" height="148"/>
<rect x="4197.5" y="1679.5" width="17" height="278"/>
<line x1="4328.4" y1="1812" x2="4328.4" y2="1957"/>
<line x1="4328.7" y1="1812.4" x2="4315.7" y2="1805.4"/>
<line x1="4215" y1="1957.5" x2="4341" y2="1957.5"/>
<line x1="4341.5" y1="1957" x2="4341.5" y2="2027"/>
<line x1="4342" y1="2027.5" x2="4329" y2="2027.5"/>
<line x1="4198" y1="1769.5" x2="4078" y2="1769.5"/>
<line x1="4198" y1="1792.5" x2="4078" y2="1792.5"/>
<line x1="4198" y1="1815.5" x2="4078" y2="1815.5"/>
<line x1="4198" y1="1837.5" x2="4078" y2="1837.5"/>
<line x1="4198" y1="1860.5" x2="4078" y2="1860.5"/>
<line x1="4198" y1="1882.5" x2="4078" y2="1882.5"/>
<line x1="4198" y1="1904.5" x2="4078" y2="1904.5"/>
<line x1="4198" y1="1927.5" x2="4078" y2="1927.5"/>
<line x1="4198" y1="1949.5" x2="4078" y2="1949.5"/>
<line x1="4328.4" y1="2233" x2="4328.4" y2="2378"/>
<line x1="4328.7" y1="2233.4" x2="4315.7" y2="2226.4"/>
<line x1="4328.4" y1="1812" x2="4328.4" y2="1957"/>
<line x1="4328.7" y1="1812.4" x2="4315.7" y2="1805.4"/>
<line x1="4328.4" y1="2644" x2="4328.4" y2="2789"/>
<line x1="4328.7" y1="2644.4" x2="4315.7" y2="2637.4"/>
<rect x="4077.5" y="2804.5" width="120" height="185"/>
<rect x="4077.5" y="2989.5" width="120" height="200"/>
<rect x="4197.5" y="2804.5" width="131" height="208"/>
<rect x="4197.5" y="2922.5" width="17" height="267"/>
<line x1="4215" y1="3189.5" x2="4341" y2="3189.5"/>
<line x1="4342" y1="3270.5" x2="4328" y2="3270.5"/>
<line x1="4198" y1="3012.5" x2="4078" y2="3012.5"/>
<line x1="4198" y1="3035.5" x2="4078" y2="3035.5"/>
<line x1="4198" y1="3058.5" x2="4078" y2="3058.5"/>
<line x1="4198" y1="3080.5" x2="4078" y2="3080.5"/>
<line x1="4198" y1="3103.5" x2="4078" y2="3103.5"/>
<line x1="4198" y1="3125.5" x2="4078" y2="3125.5"/>
<line x1="4198" y1="3147.5" x2="4078" y2="3147.5"/>
<line x1="4198" y1="3170.5" x2="4078" y2="3170.5"/>
<line x1="4328.5" y1="3055" x2="4328.4" y2="3189"/>
<line x1="4328.7" y1="3055.4" x2="4315.7" y2="3048.4"/>
<line x1="4341.5" y1="3629" x2="4341.5" y2="3686"/>
<rect x="4077.5" y="3213.5" width="120" height="192"/>
<rect x="4077.5" y="3405.5" width="120" height="223"/>
<rect x="4197.5" y="3213.5" width="131" height="215"/>
<rect x="4197.5" y="3359.5" width="17" height="269"/>
<line x1="4215" y1="3628.5" x2="4342" y2="3628.5"/>
<line x1="4342" y1="3686.5" x2="4329" y2="3686.5"/>
<line x1="4198" y1="3428.5" x2="4078" y2="3428.5"/>
<line x1="4198" y1="3451.5" x2="4078" y2="3451.5"/>
<line x1="4198" y1="3474.5" x2="4078" y2="3474.5"/>
<line x1="4198" y1="3496.5" x2="4078" y2="3496.5"/>
<line x1="4198" y1="3519.5" x2="4078" y2="3519.5"/>
<line x1="4198" y1="3541.5" x2="4078" y2="3541.5"/>
<line x1="4198" y1="3563.5" x2="4078" y2="3563.5"/>
<line x1="4198" y1="3586.5" x2="4078" y2="3586.5"/>
<line x1="4198" y1="3608.5" x2="4078" y2="3608.5"/>
<line x1="4327.5" y1="3471" x2="4328.6" y2="3629"/>
<line x1="4327.7" y1="3471.4" x2="4314.7" y2="3464.4"/>
<line x1="4341.5" y1="4055" x2="4341.5" y2="4114"/>
<rect x="4077.5" y="3648.5" width="120" height="185"/>
<rect x="4077.5" y="3833.5" width="120" height="221"/>
<rect x="4197.5" y="3648.5" width="131" height="208"/>
<rect x="4197.5" y="3766.5" width="17" height="288"/>
<line x1="4215" y1="4054.5" x2="4342" y2="4054.5"/>
<line x1="4342" y1="4114.5" x2="4330" y2="4114.5"/>
<line x1="4198" y1="3856.5" x2="4078" y2="3856.5"/>
<line x1="4198" y1="3879.5" x2="4078" y2="3879.5"/>
<line x1="4198" y1="3902.5" x2="4078" y2="3902.5"/>
<line x1="4198" y1="3924.5" x2="4078" y2="3924.5"/>
<line x1="4198" y1="3947.5" x2="4078" y2="3947.5"/>
<line x1="4198" y1="3969.5" x2="4078" y2="3969.5"/>
<line x1="4198" y1="3991.5" x2="4078" y2="3991.5"/>
<line x1="4198" y1="4014.5" x2="4078" y2="4014.5"/>
<line x1="4198" y1="4036.5" x2="4078" y2="4036.5"/>
<line x1="4327.5" y1="3899" x2="4328.6" y2="4055"/>
<line x1="4327.7" y1="3899.4" x2="4314.7" y2="3892.4"/>
<line x1="4342.5" y1="4488" x2="4342.5" y2="4548"/>
<rect x="4078.5" y="4074.5" width="120" height="193"/>
<rect x="4078.5" y="4267.5" width="120" height="221"/>
<rect x="4198.5" y="4074.5" width="131" height="216"/>
<rect x="4198.5" y="4204.5" width="17" height="284"/>
<line x1="4216" y1="4488.5" x2="4343" y2="4488.5"/>
<line x1="4343" y1="4548.5" x2="4331" y2="4548.5"/>
<line x1="4199" y1="4290.5" x2="4079" y2="4290.5"/>
<line x1="4199" y1="4313.5" x2="4079" y2="4313.5"/>
<line x1="4199" y1="4336.5" x2="4079" y2="4336.5"/>
<line x1="4199" y1="4358.5" x2="4079" y2="4358.5"/>
<line x1="4199" y1="4381.5" x2="4079" y2="4381.5"/>
<line x1="4199" y1="4403.5" x2="4079" y2="4403.5"/>
<line x1="4199" y1="4425.5" x2="4079" y2="4425.5"/>
<line x1="4199" y1="4448.5" x2="4079" y2="4448.5"/>
<line x1="4199" y1="4470.5" x2="4079" y2="4470.5"/>
<line x1="4330.5" y1="4339" x2="4330.6" y2="4489"/>
<line x1="4330.7" y1="4339.4" x2="4317.7" y2="4332.4"/>
<line x1="4344.5" y1="4916" x2="4344.5" y2="4996"/>
<rect x="4080.5" y="4506.5" width="120" height="192"/>
<rect x="4080.5" y="4698.5" width="120" height="217"/>
<rect x="4200.5" y="4506.5" width="131" height="215"/>
<rect x="4200.5" y="4631.5" width="17" height="284"/>
<line x1="4218" y1="4915.5" x2="4345" y2="4915.5"/>
<line x1="4345" y1="4996.5" x2="4332" y2="4996.5"/>
<line x1="4201" y1="4721.5" x2="4081" y2="4721.5"/>
<line x1="4201" y1="4744.5" x2="4081" y2="4744.5"/>
<line x1="4201" y1="4767.5" x2="4081" y2="4767.5"/>
<line x1="4201" y1="4789.5" x2="4081" y2="4789.5"/>
<line x1="4201" y1="4812.5" x2="4081" y2="4812.5"/>
<line x1="4201" y1="4834.5" x2="4081" y2="4834.5"/>
<line x1="4201" y1="4856.5" x2="4081" y2="4856.5"/>
<line x1="4201" y1="4879.5" x2="4081" y2="4879.5"/>
<line x1="4201" y1="4901.5" x2="4081" y2="4901.5"/>
<line x1="4330.5" y1="4764" x2="4331.6" y2="4916"/>
<line x1="4330.7" y1="4764.4" x2="4317.7" y2="4757.4"/>
<line x1="4344.5" y1="5344" x2="4344.5" y2="5414"/>
<rect x="4080.5" y="4938.5" width="120" height="195"/>
<rect x="4080.5" y="5133.5" width="120" height="211"/>
<rect x="4200.5" y="4938.5" width="131" height="218"/>
<rect x="4200.5" y="5066.5" width="17" height="278"/>
<line x1="4218" y1="5344.5" x2="4344" y2="5344.5"/>
<line x1="4345" y1="5414.5" x2="4332" y2="5414.5"/>
<line x1="4201" y1="5156.5" x2="4081" y2="5156.5"/>
<line x1="4201" y1="5179.5" x2="4081" y2="5179.5"/>
<line x1="4201" y1="5202.5" x2="4081" y2="5202.5"/>
<line x1="4201" y1="5224.5" x2="4081" y2="5224.5"/>
<line x1="4201" y1="5247.5" x2="4081" y2="5247.5"/>
<line x1="4201" y1="5269.5" x2="4081" y2="5269.5"/>
<line x1="4201" y1="5291.5" x2="4081" y2="5291.5"/>
<line x1="4201" y1="5314.5" x2="4081" y2="5314.5"/>
<line x1="4201" y1="5336.5" x2="4081" y2="5336.5"/>
<line x1="4330.4" y1="5199" x2="4330.4" y2="5344"/>
<line x1="4330.7" y1="5199.4" x2="4317.7" y2="5192.4"/>
<rect x="4080.5" y="5365.5" width="120" height="254"/>
<path d="M4080.5,5619.5h120v227h-116h-4V5619.5z"/>
<rect x="4200.5" y="5365.5" width="131" height="254"/>
<rect x="4200.5" y="5555.5" width="17" height="291"/>
<line x1="4201" y1="5619.5" x2="4081" y2="5619.5"/>
<line x1="4201" y1="5641.5" x2="4081" y2="5641.5"/>
<line x1="4201" y1="5664.5" x2="4081" y2="5664.5"/>
<line x1="4201" y1="5686.5" x2="4081" y2="5686.5"/>
<line x1="4201" y1="5708.5" x2="4081" y2="5708.5"/>
<line x1="4201" y1="5731.5" x2="4081" y2="5731.5"/>
<line x1="4201" y1="5753.5" x2="4081" y2="5753.5"/>
<line x1="4201" y1="5775.5" x2="4081" y2="5775.5"/>
<line x1="4201" y1="5798.5" x2="4081" y2="5798.5"/>
<line x1="4200" y1="5820.5" x2="4080" y2="5820.5"/>
<line x1="3260" y1="1324.5" x2="4010" y2="1324.5"/>
<rect x="4548.5" y="572.5" width="622" height="15"/>
<line x1="4009.5" y1="929" x2="4009.5" y2="1303"/>
<line x1="4009" y1="928.5" x2="4957" y2="928.5"/>
<rect x="4174.5" y="1223.5" width="167" height="9"/>
<rect x="4187.5" y="1232.5" width="11" height="336"/>
<line x1="4328.5" y1="1233" x2="4328.5" y2="1533"/>
<line x1="4317.5" y1="1232" x2="4317.5" y2="1568"/>
<line x1="4329" y1="1532.5" x2="4342" y2="1532.5"/>
<line x1="4341.5" y1="1533" x2="4341.5" y2="1622"/>
<line x1="4329" y1="1621.5" x2="4341" y2="1621.5"/>
<line x1="4368" y1="1445.5" x2="4381" y2="1445.5"/>
<line x1="4368" y1="1666.5" x2="4381" y2="1666.5"/>
<line x1="4367" y1="1173.5" x2="4380" y2="1173.5"/>
<line x1="4367.5" y1="1173" x2="4367.5" y2="5847"/>
<line x1="4367" y1="2077.5" x2="4380" y2="2077.5"/>
<line x1="4368" y1="1848.5" x2="4381" y2="1848.5"/>
<line x1="4367" y1="2492.5" x2="4380" y2="2492.5"/>
<line x1="4368" y1="2263.5" x2="4381" y2="2263.5"/>
<line x1="4367" y1="2903.5" x2="4380" y2="2903.5"/>
<line x1="4368" y1="2676.5" x2="4381" y2="2676.5"/>
<line x1="4368" y1="3312.5" x2="4381" y2="3312.5"/>
<line x1="4368" y1="3078.5" x2="4381" y2="3078.5"/>
<line x1="4367" y1="3718.5" x2="4380" y2="3718.5"/>
<line x1="4368" y1="3488.5" x2="4381" y2="3488.5"/>
<line x1="4367" y1="4127.5" x2="4380" y2="4127.5"/>
<line x1="4368" y1="3900.5" x2="4380" y2="3900.5"/>
<line x1="4367" y1="4535.5" x2="4380" y2="4535.5"/>
<line x1="4368" y1="4313.5" x2="4380" y2="4313.5"/>
<line x1="4367" y1="4946.5" x2="4380" y2="4946.5"/>
<line x1="4368" y1="4707.5" x2="4381" y2="4707.5"/>
<line x1="4367" y1="5364.5" x2="4405" y2="5364.5"/>
<line x1="4368" y1="5131.5" x2="4380" y2="5131.5"/>
<line x1="4070.5" y1="1536" x2="4070.5" y2="5862"/>
<line x1="4380.5" y1="1173" x2="4380.5" y2="5847"/>
<line x1="4404.5" y1="5321" x2="4404.5" y2="5364"/>
<line x1="4404" y1="5320.5" x2="4476" y2="5320.5"/>
<line x1="4380" y1="5295.5" x2="4491" y2="5295.5"/>
<line x1="4476.5" y1="5320" x2="4476.5" y2="5847"/>
<line x1="4555.5" y1="587" x2="4555.5" y2="929"/>
<line x1="5170.5" y1="475" x2="5170.5" y2="778"/>
<line x1="5181.5" y1="473" x2="5181.5" y2="778"/>
<line x1="4956.5" y1="886" x2="4956.5" y2="1190"/>
<line x1="5129" y1="768.5" x2="5156" y2="768.5"/>
<line x1="5155.5" y1="768" x2="5155.5" y2="778"/>
<line x1="5128" y1="886.5" x2="5150" y2="886.5"/>
<line x1="5150.5" y1="837" x2="5150.5" y2="887"/>
<line x1="5150" y1="836.5" x2="5164" y2="836.5"/>
<line x1="5156" y1="777.5" x2="5181" y2="777.5"/>
<line x1="5526.2" y1="484.5" x2="5547.2" y2="494.5"/>
<line x1="5526" y1="400.5" x2="5892" y2="400.5"/>
<path style="fill:none;stroke:#FFFFFF;stroke-miterlimit:10;" d="M5526.5,436.2h0.5l0,0H5526.5z M5161.5,475.4h-0.5v0.6l0.5-0.1
	L5161.5,475.4z M5161.5,464l0-0.5l-0.5,0v0.4H5161.5z M5526,401v23.7h1V401H5526z M5526,424.7v11.6h1v-11.6H5526z M5526,436.2V485h1
	v-48.8H5526z M5161.5,475.9l365-39.2l-0.1-1l-365,39.2L5161.5,475.9z M5161.5,464.5l365-39.3l-0.1-1l-365,39.3L5161.5,464.5z
	 M5161,464v11.4h1V464H5161z"/>
<path style="fill:none;stroke:#FFFFFF;stroke-miterlimit:10;" d="M4967.5,883.5l-0.1-0.5l0,0L4967.5,883.5z M4947,888h-0.5v0.6
	l0.6-0.1L4947,888z M4947,876.5l-0.1-0.5l-0.4,0.1v0.4H4947z M5128,768v119h1V768H5128z M4967,883.5V1190h1V883.5H4967z
	 M4947.1,888.5l20.5-4.5l-0.2-1l-20.5,4.5L4947.1,888.5z M4967.6,884l161-35l-0.2-1l-161,35L4967.6,884z M4947.1,877l181.5-40
	l-0.2-1l-181.5,40L4947.1,877z M4946.5,876.5V888h1v-11.5H4946.5z"/>
<line x1="835" y1="5538.5" x2="889" y2="5538.5"/>
<line x1="888.5" y1="5375" x2="888.5" y2="5538"/>
<line x1="888" y1="5375.5" x2="893" y2="5375.5"/>
<line x1="892.5" y1="5375" x2="892.5" y2="3747"/>
<line x1="892" y1="3746.5" x2="955" y2="3746.5"/>
<line x1="890" y1="3684.5" x2="993" y2="3684.5"/>
<line x1="993.5" y1="3684" x2="993.5" y2="3706"/>
<line x1="993" y1="3706.5" x2="1036" y2="3706.5"/>
<line x1="1036.5" y1="3706" x2="1036.5" y2="3728"/>
<line x1="1036" y1="3727.5" x2="1063" y2="3727.5"/>
<line x1="1062.5" y1="3727" x2="1062.5" y2="3750"/>
<line x1="1063" y1="3749.5" x2="1072" y2="3749.5"/>
<line x1="1071.5" y1="3749" x2="1071.5" y2="3341"/>
<line x1="1071" y1="3341.5" x2="988" y2="3341.5"/>
<line x1="988.5" y1="3341" x2="988.5" y2="3385"/>
<line x1="989" y1="3385.5" x2="959" y2="3385.5"/>
<line x1="958.5" y1="3386" x2="958.5" y2="2507"/>
<line x1="958" y1="2506.5" x2="2035" y2="2506.5"/>
<line x1="2034.5" y1="2507" x2="2034.5" y2="5847"/>
<line x1="889.5" y1="3685" x2="890.5" y2="1597"/>
<line x1="890" y1="1596.5" x2="1036" y2="1596.5"/>
<path style="fill:none;stroke:#FFFFFF;stroke-miterlimit:10;" d="M1689.5,1412h0.5v-0.4l-0.4-0.1L1689.5,1412z M1689.5,1424.5
	l-0.1,0.5l0.6,0.1v-0.6H1689.5z M1035.4,1254.5l654,158l0.2-1l-654-158L1035.4,1254.5z M1689,1412v12.5h1V1412H1689z M1689.6,1424
	l-654-156.5l-0.2,1l654,156.5L1689.6,1424z M1036,1596v-328h-1v328H1036z M1036,1268v-77h-1v77H1036z"/>
<line x1="1035" y1="1191.5" x2="0" y2="1191.5"/>
<line x1="4491" y1="5791.5" x2="5892" y2="5791.5"/>
<line x1="4491.5" y1="5791" x2="4491.5" y2="5295"/>
<line x1="4010" y1="1535.5" x2="4071" y2="1535.5"/>
<line x1="4380" y1="1189.5" x2="5165" y2="1189.5"/>
<line x1="5164.5" y1="777" x2="5164.5" y2="1190"/>
<line x1="5181" y1="777.5" x2="5548" y2="777.5"/>
<line x1="5547.5" y1="400" x2="5547.5" y2="778"/>
<line x1="3260" y1="1535.5" x2="3174" y2="1535.5"/>
<line x1="3173.5" y1="1535" x2="3173.5" y2="2036"/>
<line x1="3173" y1="2035.5" x2="2085" y2="2035.5"/>
<line x1="2085.5" y1="2035" x2="2085.5" y2="5847"/>
<line x1="955" y1="5375.5" x2="998" y2="5375.5"/>
<line x1="997.5" y1="5375" x2="997.5" y2="5847"/>
<rect x="4081" y="5843" width="119" height="4"/>
<rect x="-4233" y="5843" width="16" height="4"/>
</svg>
