<svg xmlns="http://www.w3.org/2000/svg" viewBox="0 0 720 252" enable-background="new 0 0 720 252"><style type="text/css">.st0{fill:#FFFFFF;} .st1{fill:url(#SVGID_1_);} .st2{fill:url(#SVGID_2_);} .st3{fill:url(#SVGID_3_);} .st4{fill:url(#SVGID_4_);} .st5{fill:url(#SVGID_5_);} .st6{fill:url(#SVGID_6_);} .st7{fill:url(#SVGID_7_);}</style><g id="Слой_x0020_1"><path class="st0" d="M480 207.6l120 43.7h120v-120l-360-131.1h-120v43.7l-120-43.7h-120v120l360 131.1h120z"/><linearGradient id="SVGID_1_" gradientUnits="userSpaceOnUse" x1="19752.66" y1="-133468.359" x2="19752.66" y2="-137701.703" gradientTransform="matrix(.028 0 0 -.028 -139.918 -3695.771)"><stop offset="0" stop-color="#EDEDED"/><stop offset="1" stop-color="#fff"/></linearGradient><path class="st1" d="M360 87.6v120h120v-120z"/><linearGradient id="SVGID_2_" gradientUnits="userSpaceOnUse" x1="14468.15" y1="-135859.016" x2="16570.529" y2="-130688.625" gradientTransform="matrix(.028 0 0 -.028 -139.918 -3695.771)"><stop offset="0" stop-color="#fff"/><stop offset=".4" stop-color="#fff"/><stop offset="1" stop-color="#F0F0F0"/></linearGradient><path class="st2" d="M360 43.9l-120-43.7v120l120 43.7z"/><linearGradient id="SVGID_3_" gradientUnits="userSpaceOnUse" x1="24949.635" y1="-133718.703" x2="23022.324" y2="-138992.156" gradientTransform="matrix(.028 0 0 -.028 -139.918 -3695.771)"><stop offset="0" stop-color="#EAEAEB"/><stop offset=".502" stop-color="#EAEAEB" stop-opacity="0"/><stop offset="1" stop-color="#EAEAEB" stop-opacity="0"/></linearGradient><path class="st3" d="M480 87.6v120l120 43.7v-120z"/><linearGradient id="SVGID_4_" gradientUnits="userSpaceOnUse" x1="19752.66" y1="-135009.172" x2="19752.66" y2="-139242.5" gradientTransform="matrix(.028 0 0 -.028 -139.918 -3695.771)"><stop offset="0" stop-color="#EDEDED"/><stop offset="1" stop-color="#fff"/></linearGradient><path class="st4" d="M360 131.3h120v120h-120z"/><path class="st0" d="M480 131.3l-120-43.7h120l120 43.7h120l-360-131.1h-120l120 43.7h-120l-120-43.7h-120l360 131.1z"/><linearGradient id="SVGID_5_" gradientUnits="userSpaceOnUse" x1="9678.261" y1="-139218.563" x2="12893.78" y2="-130397.859" gradientTransform="matrix(.028 0 0 -.028 -139.918 -3695.771)"><stop offset="0" stop-color="#fff"/><stop offset=".4" stop-color="#fff"/><stop offset="1" stop-color="#F0F0F0"/></linearGradient><path class="st5" d="M360 131.1l-360-131v120l360 131z"/><linearGradient id="SVGID_6_" gradientUnits="userSpaceOnUse" x1="28219.301" y1="-139242.516" x2="28219.301" y2="-135009.172" gradientTransform="matrix(.028 0 0 -.028 -139.918 -3695.771)"><stop offset="0" stop-color="#fff"/><stop offset="1" stop-color="#EDEDED"/></linearGradient><path class="st6" d="M600 131.3h120v120h-120z"/><linearGradient id="SVGID_7_" gradientUnits="userSpaceOnUse" x1="22934.789" y1="-138940.625" x2="25037.17" y2="-133770.234" gradientTransform="matrix(.028 0 0 -.028 -139.918 -3695.771)"><stop offset="0" stop-color="#fff"/><stop offset=".4" stop-color="#fff"/><stop offset="1" stop-color="#F0F0F0"/></linearGradient><path class="st7" d="M600 131.3l-120-43.7v120l120 43.7z"/></g></svg>