<?xml version="1.0" encoding="UTF-8"?>
<svg width="2036px" height="231px" viewBox="0 0 2036 231" version="1.1" xmlns="http://www.w3.org/2000/svg" xmlns:xlink="http://www.w3.org/1999/xlink">
    <!-- Generator: Sketch 51.2 (57519) - http://www.bohemiancoding.com/sketch -->
    <title>Group 18</title>
    <desc>Created with Sketch.</desc>
    <defs>
        <path d="M329.694259,176.736265 C330.746065,176.736265 331.557696,177.431948 331.557696,178.649393 C331.557696,179.875121 330.762629,180.595649 329.52862,180.595649 C328.12069,180.595649 327.375315,179.684636 327.375315,177.721816 C327.375315,175.667894 328.170382,174.599524 329.553466,174.599524 C330.605272,174.599524 331.259546,175.228952 331.350647,176.197939 L330.646682,176.24763 C330.588708,175.643049 330.207739,175.195824 329.553466,175.195824 C329.006858,175.195824 328.592761,175.510538 328.352584,176.106837 C328.186945,176.520934 328.12069,176.984723 328.112408,177.688688 C328.385712,177.075824 328.982012,176.736265 329.694259,176.736265 Z M329.52862,179.99935 C330.307122,179.99935 330.828885,179.469305 330.828885,178.649393 C330.828885,177.837763 330.307122,177.307719 329.52862,177.307719 C328.750117,177.307719 328.236637,177.837763 328.236637,178.649393 C328.236637,179.469305 328.750117,179.99935 329.52862,179.99935 Z M332.286506,177.597587 C332.286506,175.750714 333.048445,174.599524 334.414965,174.599524 C335.781486,174.599524 336.535142,175.750714 336.535142,177.597587 C336.535142,179.44446 335.781486,180.595649 334.414965,180.595649 C333.048445,180.595649 332.286506,179.44446 332.286506,177.597587 Z M333.015317,177.597587 C333.015317,179.088336 333.528798,179.99935 334.414965,179.99935 C335.292851,179.99935 335.806331,179.088336 335.806331,177.597587 C335.806331,176.106837 335.292851,175.195824 334.414965,175.195824 C333.528798,175.195824 333.015317,176.106837 333.015317,177.597587 Z M337.346773,177.597587 C337.346773,175.750714 338.108711,174.599524 339.475231,174.599524 C340.841752,174.599524 341.595408,175.750714 341.595408,177.597587 C341.595408,179.44446 340.841752,180.595649 339.475231,180.595649 C338.108711,180.595649 337.346773,179.44446 337.346773,177.597587 Z M338.075583,177.597587 C338.075583,179.088336 338.589064,179.99935 339.475231,179.99935 C340.353117,179.99935 340.866598,179.088336 340.866598,177.597587 C340.866598,176.106837 340.353117,175.195824 339.475231,175.195824 C338.589064,175.195824 338.075583,176.106837 338.075583,177.597587 Z" id="path-1"></path>
        <path d="M54.2358873,174.698907 L58.1532456,174.698907 L58.1532456,175.212388 C57.0600293,176.926749 56.3063727,178.699085 55.9254034,180.496266 L55.1386189,180.496266 C55.5195882,178.76534 56.3229365,176.976441 57.4409986,175.295207 L54.2358873,175.295207 L54.2358873,174.698907 Z M58.7826731,177.597587 C58.7826731,175.750714 59.5446117,174.599524 60.911132,174.599524 C62.2776523,174.599524 63.031309,175.750714 63.031309,177.597587 C63.031309,179.44446 62.2776523,180.595649 60.911132,180.595649 C59.5446117,180.595649 58.7826731,179.44446 58.7826731,177.597587 Z M59.5114839,177.597587 C59.5114839,179.088336 60.0249643,179.99935 60.911132,179.99935 C61.7890178,179.99935 62.3024982,179.088336 62.3024982,177.597587 C62.3024982,176.106837 61.7890178,175.195824 60.911132,175.195824 C60.0249643,175.195824 59.5114839,176.106837 59.5114839,177.597587 Z M63.8429392,177.597587 C63.8429392,175.750714 64.6048778,174.599524 65.9713982,174.599524 C67.3379185,174.599524 68.0915751,175.750714 68.0915751,177.597587 C68.0915751,179.44446 67.3379185,180.595649 65.9713982,180.595649 C64.6048778,180.595649 63.8429392,179.44446 63.8429392,177.597587 Z M64.5717501,177.597587 C64.5717501,179.088336 65.0852304,179.99935 65.9713982,179.99935 C66.8492839,179.99935 67.3627643,179.088336 67.3627643,177.597587 C67.3627643,176.106837 66.8492839,175.195824 65.9713982,175.195824 C65.0852304,175.195824 64.5717501,176.106837 64.5717501,177.597587 Z" id="path-2"></path>
        <path d="M354.082401,135.083621 L354.656281,135.083621 L354.656281,140.822421 L353.934832,140.822421 L353.934832,135.919846 L352.721485,136.76427 L352.721485,136.042821 L354.082401,135.083621 Z M355.959808,137.953021 C355.959808,136.124804 356.71405,134.985242 358.066767,134.985242 C359.419485,134.985242 360.165529,136.124804 360.165529,137.953021 C360.165529,139.781239 359.419485,140.920801 358.066767,140.920801 C356.71405,140.920801 355.959808,139.781239 355.959808,137.953021 Z M356.681257,137.953021 C356.681257,139.428713 357.189551,140.330524 358.066767,140.330524 C358.935786,140.330524 359.444079,139.428713 359.444079,137.953021 C359.444079,136.47733 358.935786,135.575519 358.066767,135.575519 C357.189551,135.575519 356.681257,136.47733 356.681257,137.953021 Z M360.96896,137.953021 C360.96896,136.124804 361.723203,134.985242 363.07592,134.985242 C364.428637,134.985242 365.174681,136.124804 365.174681,137.953021 C365.174681,139.781239 364.428637,140.920801 363.07592,140.920801 C361.723203,140.920801 360.96896,139.781239 360.96896,137.953021 Z M361.69041,137.953021 C361.69041,139.428713 362.198703,140.330524 363.07592,140.330524 C363.944938,140.330524 364.453232,139.428713 364.453232,137.953021 C364.453232,136.47733 363.944938,135.575519 363.07592,135.575519 C362.198703,135.575519 361.69041,136.47733 361.69041,137.953021 Z M365.978113,137.953021 C365.978113,136.124804 366.732355,134.985242 368.085072,134.985242 C369.437789,134.985242 370.183833,136.124804 370.183833,137.953021 C370.183833,139.781239 369.437789,140.920801 368.085072,140.920801 C366.732355,140.920801 365.978113,139.781239 365.978113,137.953021 Z M366.699562,137.953021 C366.699562,139.428713 367.207856,140.330524 368.085072,140.330524 C368.95409,140.330524 369.462384,139.428713 369.462384,137.953021 C369.462384,136.47733 368.95409,135.575519 368.085072,135.575519 C367.207856,135.575519 366.699562,136.47733 366.699562,137.953021 Z" id="path-3"></path>
        <path d="M353.590922,52.4733484 L354.164802,52.4733484 L354.164802,58.2121481 L353.443353,58.2121481 L353.443353,53.3095735 L352.230007,54.1539968 L352.230007,53.4325477 L353.590922,52.4733484 Z M358.231151,55.2197739 C359.042782,55.4165328 359.551075,55.941223 359.551075,56.7118619 C359.551075,57.7530441 358.624669,58.3105275 357.468711,58.3105275 C356.320951,58.3105275 355.386346,57.7530441 355.386346,56.7118619 C355.386346,55.941223 355.911037,55.4083345 356.730865,55.2197739 C355.99302,55.0476099 355.525717,54.6049025 355.525717,53.8588586 C355.525717,52.866866 356.411132,52.3749689 357.468711,52.3749689 C358.534488,52.3749689 359.419903,52.866866 359.419903,53.8588586 C359.419903,54.5967043 358.960799,55.0476099 358.231151,55.2197739 Z M356.23077,53.9490397 C356.23077,54.6212991 356.747262,54.9656271 357.468711,54.9656271 C358.19016,54.9656271 358.706652,54.6212991 358.706652,53.9490397 C358.706652,53.2849786 358.19016,52.9488489 357.468711,52.9488489 C356.747262,52.9488489 356.23077,53.2849786 356.23077,53.9490397 Z M357.468711,57.7366475 C358.255746,57.7366475 358.846023,57.3513281 358.846023,56.629879 C358.846023,55.9084299 358.255746,55.5231105 357.468711,55.5231105 C356.689874,55.5231105 356.091399,55.9084299 356.091399,56.629879 C356.091399,57.3513281 356.689874,57.7366475 357.468711,57.7366475 Z M360.272525,55.3427482 C360.272525,53.5145306 361.026767,52.3749689 362.379484,52.3749689 C363.732201,52.3749689 364.478245,53.5145306 364.478245,55.3427482 C364.478245,57.1709658 363.732201,58.3105275 362.379484,58.3105275 C361.026767,58.3105275 360.272525,57.1709658 360.272525,55.3427482 Z M360.993974,55.3427482 C360.993974,56.8184396 361.502267,57.720251 362.379484,57.720251 C363.248502,57.720251 363.756796,56.8184396 363.756796,55.3427482 C363.756796,53.8670569 363.248502,52.9652455 362.379484,52.9652455 C361.502267,52.9652455 360.993974,53.8670569 360.993974,55.3427482 Z M365.281677,55.3427482 C365.281677,53.5145306 366.035919,52.3749689 367.388636,52.3749689 C368.741353,52.3749689 369.487397,53.5145306 369.487397,55.3427482 C369.487397,57.1709658 368.741353,58.3105275 367.388636,58.3105275 C366.035919,58.3105275 365.281677,57.1709658 365.281677,55.3427482 Z M366.003126,55.3427482 C366.003126,56.8184396 366.51142,57.720251 367.388636,57.720251 C368.257654,57.720251 368.765948,56.8184396 368.765948,55.3427482 C368.765948,53.8670569 368.257654,52.9652455 367.388636,52.9652455 C366.51142,52.9652455 366.003126,53.8670569 366.003126,55.3427482 Z" id="path-4"></path>
        <path d="M280.178623,174.698907 L280.758359,174.698907 L280.758359,180.496266 L280.029548,180.496266 L280.029548,175.543665 L278.803821,176.396705 L278.803821,175.667894 L280.178623,174.698907 Z M282.075188,177.597587 C282.075188,175.750714 282.837126,174.599524 284.203647,174.599524 C285.570167,174.599524 286.323824,175.750714 286.323824,177.597587 C286.323824,179.44446 285.570167,180.595649 284.203647,180.595649 C282.837126,180.595649 282.075188,179.44446 282.075188,177.597587 Z M282.803999,177.597587 C282.803999,179.088336 283.317479,179.99935 284.203647,179.99935 C285.081532,179.99935 285.595013,179.088336 285.595013,177.597587 C285.595013,176.106837 285.081532,175.195824 284.203647,175.195824 C283.317479,175.195824 282.803999,176.106837 282.803999,177.597587 Z M287.135454,177.597587 C287.135454,175.750714 287.897392,174.599524 289.263913,174.599524 C290.630433,174.599524 291.38409,175.750714 291.38409,177.597587 C291.38409,179.44446 290.630433,180.595649 289.263913,180.595649 C287.897392,180.595649 287.135454,179.44446 287.135454,177.597587 Z M287.864265,177.597587 C287.864265,179.088336 288.377745,179.99935 289.263913,179.99935 C290.141799,179.99935 290.655279,179.088336 290.655279,177.597587 C290.655279,176.106837 290.141799,175.195824 289.263913,175.195824 C288.377745,175.195824 287.864265,176.106837 287.864265,177.597587 Z M292.19572,177.597587 C292.19572,175.750714 292.957659,174.599524 294.324179,174.599524 C295.690699,174.599524 296.444356,175.750714 296.444356,177.597587 C296.444356,179.44446 295.690699,180.595649 294.324179,180.595649 C292.957659,180.595649 292.19572,179.44446 292.19572,177.597587 Z M292.924531,177.597587 C292.924531,179.088336 293.438011,179.99935 294.324179,179.99935 C295.202065,179.99935 295.715545,179.088336 295.715545,177.597587 C295.715545,176.106837 295.202065,175.195824 294.324179,175.195824 C293.438011,175.195824 292.924531,176.106837 292.924531,177.597587 Z" id="path-5"></path>
        <path d="M163.970438,177.431948 C164.334844,177.721816 164.517046,178.177323 164.517046,178.740495 C164.517046,179.949658 163.639161,180.595649 162.463125,180.595649 C161.378191,180.595649 160.56656,180.049041 160.450613,178.864724 L161.154578,178.815032 C161.24568,179.65979 161.767442,179.99935 162.463125,179.99935 C163.233346,179.99935 163.788236,179.552125 163.788236,178.740495 C163.788236,178.03653 163.365857,177.531331 162.487971,177.531331 C162.280922,177.531331 161.991054,177.556177 161.651495,177.630714 L161.651495,177.117234 L163.42383,175.295207 L160.715635,175.295207 L160.715635,174.698907 L164.367972,174.698907 L164.367972,175.237233 L162.496253,177.034415 C163.059425,177.017851 163.597751,177.117234 163.970438,177.431948 Z M165.21273,177.597587 C165.21273,175.750714 165.974668,174.599524 167.341188,174.599524 C168.707709,174.599524 169.461365,175.750714 169.461365,177.597587 C169.461365,179.44446 168.707709,180.595649 167.341188,180.595649 C165.974668,180.595649 165.21273,179.44446 165.21273,177.597587 Z M165.94154,177.597587 C165.94154,179.088336 166.455021,179.99935 167.341188,179.99935 C168.219074,179.99935 168.732555,179.088336 168.732555,177.597587 C168.732555,176.106837 168.219074,175.195824 167.341188,175.195824 C166.455021,175.195824 165.94154,176.106837 165.94154,177.597587 Z M170.272996,177.597587 C170.272996,175.750714 171.034934,174.599524 172.401455,174.599524 C173.767975,174.599524 174.521632,175.750714 174.521632,177.597587 C174.521632,179.44446 173.767975,180.595649 172.401455,180.595649 C171.034934,180.595649 170.272996,179.44446 170.272996,177.597587 Z M171.001807,177.597587 C171.001807,179.088336 171.515287,179.99935 172.401455,179.99935 C173.27934,179.99935 173.792821,179.088336 173.792821,177.597587 C173.792821,176.106837 173.27934,175.195824 172.401455,175.195824 C171.515287,175.195824 171.001807,176.106837 171.001807,177.597587 Z M175.333262,177.597587 C175.333262,175.750714 176.0952,174.599524 177.461721,174.599524 C178.828241,174.599524 179.581898,175.750714 179.581898,177.597587 C179.581898,179.44446 178.828241,180.595649 177.461721,180.595649 C176.0952,180.595649 175.333262,179.44446 175.333262,177.597587 Z M176.062073,177.597587 C176.062073,179.088336 176.575553,179.99935 177.461721,179.99935 C178.339606,179.99935 178.853087,179.088336 178.853087,177.597587 C178.853087,176.106837 178.339606,175.195824 177.461721,175.195824 C176.575553,175.195824 176.062073,176.106837 176.062073,177.597587 Z" id="path-6"></path>
        <path d="M13.2235467,174.698907 L17.140905,174.698907 L17.140905,175.212388 C16.0476887,176.926749 15.294032,178.699085 14.9130627,180.496266 L14.1262783,180.496266 C14.5072476,178.76534 15.3105959,176.976441 16.428658,175.295207 L13.2235467,175.295207 L13.2235467,174.698907 Z M17.7703325,177.597587 C17.7703325,175.750714 18.5322711,174.599524 19.8987914,174.599524 C21.2653117,174.599524 22.0189684,175.750714 22.0189684,177.597587 C22.0189684,179.44446 21.2653117,180.595649 19.8987914,180.595649 C18.5322711,180.595649 17.7703325,179.44446 17.7703325,177.597587 Z M18.4991433,177.597587 C18.4991433,179.088336 19.0126237,179.99935 19.8987914,179.99935 C20.7766772,179.99935 21.2901575,179.088336 21.2901575,177.597587 C21.2901575,176.106837 20.7766772,175.195824 19.8987914,175.195824 C19.0126237,175.195824 18.4991433,176.106837 18.4991433,177.597587 Z M22.8305986,177.597587 C22.8305986,175.750714 23.5925372,174.599524 24.9590575,174.599524 C26.3255779,174.599524 27.0792345,175.750714 27.0792345,177.597587 C27.0792345,179.44446 26.3255779,180.595649 24.9590575,180.595649 C23.5925372,180.595649 22.8305986,179.44446 22.8305986,177.597587 Z M23.5594095,177.597587 C23.5594095,179.088336 24.0728898,179.99935 24.9590575,179.99935 C25.8369433,179.99935 26.3504237,179.088336 26.3504237,177.597587 C26.3504237,176.106837 25.8369433,175.195824 24.9590575,175.195824 C24.0728898,175.195824 23.5594095,176.106837 23.5594095,177.597587 Z" id="path-7"></path>
        <path d="M308.504224,141.431018 L309.078104,141.431018 L309.078104,147.169818 L308.356655,147.169818 L308.356655,142.267243 L307.143309,143.111667 L307.143309,142.390218 L308.504224,141.431018 Z M313.144454,144.177444 C313.956084,144.374203 314.464378,144.898893 314.464378,145.669532 C314.464378,146.710714 313.537972,147.268197 312.382013,147.268197 C311.234253,147.268197 310.299649,146.710714 310.299649,145.669532 C310.299649,144.898893 310.824339,144.366004 311.644168,144.177444 C310.906322,144.00528 310.43902,143.562573 310.43902,142.816529 C310.43902,141.824536 311.324435,141.332639 312.382013,141.332639 C313.44779,141.332639 314.333205,141.824536 314.333205,142.816529 C314.333205,143.554374 313.874101,144.00528 313.144454,144.177444 Z M311.144072,142.90671 C311.144072,143.578969 311.660564,143.923297 312.382013,143.923297 C313.103462,143.923297 313.619954,143.578969 313.619954,142.90671 C313.619954,142.242649 313.103462,141.906519 312.382013,141.906519 C311.660564,141.906519 311.144072,142.242649 311.144072,142.90671 Z M312.382013,146.694318 C313.169049,146.694318 313.759325,146.308998 313.759325,145.587549 C313.759325,144.8661 313.169049,144.48078 312.382013,144.48078 C311.603176,144.48078 311.004701,144.8661 311.004701,145.587549 C311.004701,146.308998 311.603176,146.694318 312.382013,146.694318 Z M315.185827,144.300418 C315.185827,142.472201 315.940069,141.332639 317.292786,141.332639 C318.645503,141.332639 319.391547,142.472201 319.391547,144.300418 C319.391547,146.128636 318.645503,147.268197 317.292786,147.268197 C315.940069,147.268197 315.185827,146.128636 315.185827,144.300418 Z M315.907276,144.300418 C315.907276,145.77611 316.41557,146.677921 317.292786,146.677921 C318.161804,146.677921 318.670098,145.77611 318.670098,144.300418 C318.670098,142.824727 318.161804,141.922915 317.292786,141.922915 C316.41557,141.922915 315.907276,142.824727 315.907276,144.300418 Z M320.194979,144.300418 C320.194979,142.472201 320.949221,141.332639 322.301939,141.332639 C323.654656,141.332639 324.4007,142.472201 324.4007,144.300418 C324.4007,146.128636 323.654656,147.268197 322.301939,147.268197 C320.949221,147.268197 320.194979,146.128636 320.194979,144.300418 Z M320.916428,144.300418 C320.916428,145.77611 321.424722,146.677921 322.301939,146.677921 C323.170957,146.677921 323.679251,145.77611 323.679251,144.300418 C323.679251,142.824727 323.170957,141.922915 322.301939,141.922915 C321.424722,141.922915 320.916428,142.824727 320.916428,144.300418 Z" id="path-8"></path>
        <path d="M41.1162283,215.87856 L45.0335865,215.87856 L45.0335865,216.39204 C43.9403703,218.106402 43.1867136,219.878737 42.8057443,221.675919 L42.0189599,221.675919 C42.3999292,219.944993 43.2032775,218.156094 44.3213396,216.47486 L41.1162283,216.47486 L41.1162283,215.87856 Z M45.6630141,218.777239 C45.6630141,216.930366 46.4249527,215.779177 47.791473,215.779177 C49.1579933,215.779177 49.91165,216.930366 49.91165,218.777239 C49.91165,220.624112 49.1579933,221.775302 47.791473,221.775302 C46.4249527,221.775302 45.6630141,220.624112 45.6630141,218.777239 Z M46.3918249,218.777239 C46.3918249,220.267989 46.9053053,221.179002 47.791473,221.179002 C48.6693588,221.179002 49.1828391,220.267989 49.1828391,218.777239 C49.1828391,217.28649 48.6693588,216.375476 47.791473,216.375476 C46.9053053,216.375476 46.3918249,217.28649 46.3918249,218.777239 Z M50.7232802,218.777239 C50.7232802,216.930366 51.4852188,215.779177 52.8517391,215.779177 C54.2182594,215.779177 54.9719161,216.930366 54.9719161,218.777239 C54.9719161,220.624112 54.2182594,221.775302 52.8517391,221.775302 C51.4852188,221.775302 50.7232802,220.624112 50.7232802,218.777239 Z M51.452091,218.777239 C51.452091,220.267989 51.9655714,221.179002 52.8517391,221.179002 C53.7296249,221.179002 54.2431053,220.267989 54.2431053,218.777239 C54.2431053,217.28649 53.7296249,216.375476 52.8517391,216.375476 C51.9655714,216.375476 51.452091,217.28649 51.452091,218.777239 Z" id="path-9"></path>
        <path d="M309.058445,57.7750456 L309.632325,57.7750456 L309.632325,63.5138454 L308.910876,63.5138454 L308.910876,58.6112707 L307.69753,59.4556941 L307.69753,58.734245 L309.058445,57.7750456 Z M310.935853,60.6444455 C310.935853,58.8162279 311.690095,57.6766662 313.042812,57.6766662 C314.395529,57.6766662 315.141573,58.8162279 315.141573,60.6444455 C315.141573,62.4726631 314.395529,63.6122248 313.042812,63.6122248 C311.690095,63.6122248 310.935853,62.4726631 310.935853,60.6444455 Z M311.657302,60.6444455 C311.657302,62.1201368 312.165595,63.0219482 313.042812,63.0219482 C313.91183,63.0219482 314.420124,62.1201368 314.420124,60.6444455 C314.420124,59.1687541 313.91183,58.2669427 313.042812,58.2669427 C312.165595,58.2669427 311.657302,59.1687541 311.657302,60.6444455 Z M315.945005,60.6444455 C315.945005,58.8162279 316.699247,57.6766662 318.051964,57.6766662 C319.404681,57.6766662 320.150725,58.8162279 320.150725,60.6444455 C320.150725,62.4726631 319.404681,63.6122248 318.051964,63.6122248 C316.699247,63.6122248 315.945005,62.4726631 315.945005,60.6444455 Z M316.666454,60.6444455 C316.666454,62.1201368 317.174748,63.0219482 318.051964,63.0219482 C318.920982,63.0219482 319.429276,62.1201368 319.429276,60.6444455 C319.429276,59.1687541 318.920982,58.2669427 318.051964,58.2669427 C317.174748,58.2669427 316.666454,59.1687541 316.666454,60.6444455 Z M320.954157,60.6444455 C320.954157,58.8162279 321.708399,57.6766662 323.061117,57.6766662 C324.413834,57.6766662 325.159878,58.8162279 325.159878,60.6444455 C325.159878,62.4726631 324.413834,63.6122248 323.061117,63.6122248 C321.708399,63.6122248 320.954157,62.4726631 320.954157,60.6444455 Z M321.675606,60.6444455 C321.675606,62.1201368 322.1839,63.0219482 323.061117,63.0219482 C323.930135,63.0219482 324.438428,62.1201368 324.438428,60.6444455 C324.438428,59.1687541 323.930135,58.2669427 323.061117,58.2669427 C322.1839,58.2669427 321.675606,59.1687541 321.675606,60.6444455 Z" id="path-10"></path>
        <path d="M180.430193,219.721381 L181.308079,219.721381 L181.308079,220.31768 L180.430193,220.31768 L180.430193,221.675919 L179.701382,221.675919 L179.701382,220.31768 L176.819266,220.31768 L176.819266,219.771072 L179.237593,215.87856 L180.430193,215.87856 L180.430193,219.721381 Z M177.539795,219.721381 L179.701382,219.721381 L179.701382,216.276093 L177.539795,219.721381 Z M181.871251,218.777239 C181.871251,216.930366 182.633189,215.779177 183.999709,215.779177 C185.36623,215.779177 186.119886,216.930366 186.119886,218.777239 C186.119886,220.624112 185.36623,221.775302 183.999709,221.775302 C182.633189,221.775302 181.871251,220.624112 181.871251,218.777239 Z M182.600061,218.777239 C182.600061,220.267989 183.113542,221.179002 183.999709,221.179002 C184.877595,221.179002 185.391076,220.267989 185.391076,218.777239 C185.391076,217.28649 184.877595,216.375476 183.999709,216.375476 C183.113542,216.375476 182.600061,217.28649 182.600061,218.777239 Z M186.931517,218.777239 C186.931517,216.930366 187.693455,215.779177 189.059976,215.779177 C190.426496,215.779177 191.180153,216.930366 191.180153,218.777239 C191.180153,220.624112 190.426496,221.775302 189.059976,221.775302 C187.693455,221.775302 186.931517,220.624112 186.931517,218.777239 Z M187.660328,218.777239 C187.660328,220.267989 188.173808,221.179002 189.059976,221.179002 C189.937861,221.179002 190.451342,220.267989 190.451342,218.777239 C190.451342,217.28649 189.937861,216.375476 189.059976,216.375476 C188.173808,216.375476 187.660328,217.28649 187.660328,218.777239 Z M191.991783,218.777239 C191.991783,216.930366 192.753721,215.779177 194.120242,215.779177 C195.486762,215.779177 196.240419,216.930366 196.240419,218.777239 C196.240419,220.624112 195.486762,221.775302 194.120242,221.775302 C192.753721,221.775302 191.991783,220.624112 191.991783,218.777239 Z M192.720594,218.777239 C192.720594,220.267989 193.234074,221.179002 194.120242,221.179002 C194.998127,221.179002 195.511608,220.267989 195.511608,218.777239 C195.511608,217.28649 194.998127,216.375476 194.120242,216.375476 C193.234074,216.375476 192.720594,217.28649 192.720594,218.777239 Z" id="path-11"></path>
        <path d="M339.442606,164.446868 L340.016486,164.446868 L340.016486,170.185668 L339.295036,170.185668 L339.295036,165.283093 L338.08169,166.127516 L338.08169,165.406067 L339.442606,164.446868 Z M341.320013,167.316268 C341.320013,165.48805 342.074255,164.348488 343.426972,164.348488 C344.779689,164.348488 345.525733,165.48805 345.525733,167.316268 C345.525733,169.144485 344.779689,170.284047 343.426972,170.284047 C342.074255,170.284047 341.320013,169.144485 341.320013,167.316268 Z M342.041462,167.316268 C342.041462,168.791959 342.549756,169.69377 343.426972,169.69377 C344.295991,169.69377 344.804284,168.791959 344.804284,167.316268 C344.804284,165.840576 344.295991,164.938765 343.426972,164.938765 C342.549756,164.938765 342.041462,165.840576 342.041462,167.316268 Z M346.329165,167.316268 C346.329165,165.48805 347.083408,164.348488 348.436125,164.348488 C349.788842,164.348488 350.534886,165.48805 350.534886,167.316268 C350.534886,169.144485 349.788842,170.284047 348.436125,170.284047 C347.083408,170.284047 346.329165,169.144485 346.329165,167.316268 Z M347.050614,167.316268 C347.050614,168.791959 347.558908,169.69377 348.436125,169.69377 C349.305143,169.69377 349.813437,168.791959 349.813437,167.316268 C349.813437,165.840576 349.305143,164.938765 348.436125,164.938765 C347.558908,164.938765 347.050614,165.840576 347.050614,167.316268 Z M351.338318,167.316268 C351.338318,165.48805 352.09256,164.348488 353.445277,164.348488 C354.797994,164.348488 355.544038,165.48805 355.544038,167.316268 C355.544038,169.144485 354.797994,170.284047 353.445277,170.284047 C352.09256,170.284047 351.338318,169.144485 351.338318,167.316268 Z M352.059767,167.316268 C352.059767,168.791959 352.56806,169.69377 353.445277,169.69377 C354.314295,169.69377 354.822589,168.791959 354.822589,167.316268 C354.822589,165.840576 354.314295,164.938765 353.445277,164.938765 C352.56806,164.938765 352.059767,165.840576 352.059767,167.316268 Z" id="path-12"></path>
        <path d="M338.951127,81.8365948 L339.525007,81.8365948 L339.525007,87.5753945 L338.803558,87.5753945 L338.803558,82.6728199 L337.590211,83.5172433 L337.590211,82.7957942 L338.951127,81.8365948 Z M343.591356,84.5830204 C344.402987,84.7797792 344.91128,85.3044695 344.91128,86.0751083 C344.91128,87.1162905 343.984874,87.6737739 342.828916,87.6737739 C341.681156,87.6737739 340.746551,87.1162905 340.746551,86.0751083 C340.746551,85.3044695 341.271242,84.7715809 342.09107,84.5830204 C341.353224,84.4108564 340.885922,83.968149 340.885922,83.222105 C340.885922,82.2301125 341.771337,81.7382153 342.828916,81.7382153 C343.894693,81.7382153 344.780108,82.2301125 344.780108,83.222105 C344.780108,83.9599507 344.321004,84.4108564 343.591356,84.5830204 Z M341.590975,83.3122861 C341.590975,83.9845455 342.107467,84.3288735 342.828916,84.3288735 C343.550365,84.3288735 344.066857,83.9845455 344.066857,83.3122861 C344.066857,82.648225 343.550365,82.3120953 342.828916,82.3120953 C342.107467,82.3120953 341.590975,82.648225 341.590975,83.3122861 Z M342.828916,87.099894 C343.615951,87.099894 344.206228,86.7145745 344.206228,85.9931254 C344.206228,85.2716763 343.615951,84.8863569 342.828916,84.8863569 C342.050079,84.8863569 341.451604,85.2716763 341.451604,85.9931254 C341.451604,86.7145745 342.050079,87.099894 342.828916,87.099894 Z M345.632729,84.7059946 C345.632729,82.877777 346.386972,81.7382153 347.739689,81.7382153 C349.092406,81.7382153 349.83845,82.877777 349.83845,84.7059946 C349.83845,86.5342123 349.092406,87.6737739 347.739689,87.6737739 C346.386972,87.6737739 345.632729,86.5342123 345.632729,84.7059946 Z M346.354178,84.7059946 C346.354178,86.181686 346.862472,87.0834974 347.739689,87.0834974 C348.608707,87.0834974 349.117001,86.181686 349.117001,84.7059946 C349.117001,83.2303033 348.608707,82.3284919 347.739689,82.3284919 C346.862472,82.3284919 346.354178,83.2303033 346.354178,84.7059946 Z M350.641882,84.7059946 C350.641882,82.877777 351.396124,81.7382153 352.748841,81.7382153 C354.101558,81.7382153 354.847602,82.877777 354.847602,84.7059946 C354.847602,86.5342123 354.101558,87.6737739 352.748841,87.6737739 C351.396124,87.6737739 350.641882,86.5342123 350.641882,84.7059946 Z M351.363331,84.7059946 C351.363331,86.181686 351.871624,87.0834974 352.748841,87.0834974 C353.617859,87.0834974 354.126153,86.181686 354.126153,84.7059946 C354.126153,83.2303033 353.617859,82.3284919 352.748841,82.3284919 C351.871624,82.3284919 351.363331,83.2303033 351.363331,84.7059946 Z" id="path-13"></path>
        <path d="M48.7564211,215.87856 L52.6737794,215.87856 L52.6737794,216.39204 C51.5805631,218.106402 50.8269065,219.878737 50.4459372,221.675919 L49.6591527,221.675919 C50.040122,219.944993 50.8434703,218.156094 51.9615324,216.47486 L48.7564211,216.47486 L48.7564211,215.87856 Z M53.3032069,218.777239 C53.3032069,216.930366 54.0651455,215.779177 55.4316658,215.779177 C56.7981861,215.779177 57.5518428,216.930366 57.5518428,218.777239 C57.5518428,220.624112 56.7981861,221.775302 55.4316658,221.775302 C54.0651455,221.775302 53.3032069,220.624112 53.3032069,218.777239 Z M54.0320177,218.777239 C54.0320177,220.267989 54.5454981,221.179002 55.4316658,221.179002 C56.3095516,221.179002 56.823032,220.267989 56.823032,218.777239 C56.823032,217.28649 56.3095516,216.375476 55.4316658,216.375476 C54.5454981,216.375476 54.0320177,217.28649 54.0320177,218.777239 Z M58.363473,218.777239 C58.363473,216.930366 59.1254116,215.779177 60.4919319,215.779177 C61.8584523,215.779177 62.6121089,216.930366 62.6121089,218.777239 C62.6121089,220.624112 61.8584523,221.775302 60.4919319,221.775302 C59.1254116,221.775302 58.363473,220.624112 58.363473,218.777239 Z M59.0922839,218.777239 C59.0922839,220.267989 59.6057642,221.179002 60.4919319,221.179002 C61.3698177,221.179002 61.8832981,220.267989 61.8832981,218.777239 C61.8832981,217.28649 61.3698177,216.375476 60.4919319,216.375476 C59.6057642,216.375476 59.0922839,217.28649 59.0922839,218.777239 Z" id="path-14"></path>
        <path d="M187.024686,219.721381 L187.902572,219.721381 L187.902572,220.31768 L187.024686,220.31768 L187.024686,221.675919 L186.295875,221.675919 L186.295875,220.31768 L183.41376,220.31768 L183.41376,219.771072 L185.832086,215.87856 L187.024686,215.87856 L187.024686,219.721381 Z M184.134288,219.721381 L186.295875,219.721381 L186.295875,216.276093 L184.134288,219.721381 Z M188.465744,218.777239 C188.465744,216.930366 189.227682,215.779177 190.594203,215.779177 C191.960723,215.779177 192.71438,216.930366 192.71438,218.777239 C192.71438,220.624112 191.960723,221.775302 190.594203,221.775302 C189.227682,221.775302 188.465744,220.624112 188.465744,218.777239 Z M189.194555,218.777239 C189.194555,220.267989 189.708035,221.179002 190.594203,221.179002 C191.472088,221.179002 191.985569,220.267989 191.985569,218.777239 C191.985569,217.28649 191.472088,216.375476 190.594203,216.375476 C189.708035,216.375476 189.194555,217.28649 189.194555,218.777239 Z M193.52601,218.777239 C193.52601,216.930366 194.287948,215.779177 195.654469,215.779177 C197.020989,215.779177 197.774646,216.930366 197.774646,218.777239 C197.774646,220.624112 197.020989,221.775302 195.654469,221.775302 C194.287948,221.775302 193.52601,220.624112 193.52601,218.777239 Z M194.254821,218.777239 C194.254821,220.267989 194.768301,221.179002 195.654469,221.179002 C196.532355,221.179002 197.045835,220.267989 197.045835,218.777239 C197.045835,217.28649 196.532355,216.375476 195.654469,216.375476 C194.768301,216.375476 194.254821,217.28649 194.254821,218.777239 Z M198.586276,218.777239 C198.586276,216.930366 199.348215,215.779177 200.714735,215.779177 C202.081255,215.779177 202.834912,216.930366 202.834912,218.777239 C202.834912,220.624112 202.081255,221.775302 200.714735,221.775302 C199.348215,221.775302 198.586276,220.624112 198.586276,218.777239 Z M199.315087,218.777239 C199.315087,220.267989 199.828567,221.179002 200.714735,221.179002 C201.592621,221.179002 202.106101,220.267989 202.106101,218.777239 C202.106101,217.28649 201.592621,216.375476 200.714735,216.375476 C199.828567,216.375476 199.315087,217.28649 199.315087,218.777239 Z" id="path-15"></path>
    </defs>
    <g id="Page-3" stroke="none" stroke-width="1" fill="none" fill-rule="evenodd">
        <g id="Group-18" transform="translate(1.000000, 1.000000)">
            <g id="Group-15" transform="translate(802.580930, 29.279590)">
                <polyline id="Shape" stroke="#FFFFFF" stroke-linecap="square" points="365.995011 58.1389491 337.447411 73.1656532 336.234399 72.5591474 336.234399 74.7028317 335.021387 74.3995788 306.170534 89.12303"></polyline>
                <path d="M352.327717,167.027655 L352.327717,177.45328" id="Shape" stroke="#FFFFFF" stroke-linecap="square"></path>
                <path d="M317.108552,167.027655 L317.108552,177.45328" id="Shape" stroke="#FFFFFF" stroke-linecap="square"></path>
                <path d="M346.565912,177.45328 L341.400155,177.45328" id="Shape" stroke="#FFFFFF" stroke-width="0.5" stroke-linecap="square"></path>
                <path d="M323.17361,177.45328 L328.339367,177.45328" id="Shape" stroke="#FFFFFF" stroke-width="0.5" stroke-linecap="square"></path>
                <polygon id="Shape" fill="#FFFFFF" points="346.565912 176.533064 346.565912 178.676749 352.327717 177.45328"></polygon>
                <polygon id="Shape" fill="#FFFFFF" fill-rule="nonzero" points="346.565912 176.533064 346.565912 178.676749 352.327717 177.45328 346.565912 176.533064"></polygon>
                <polygon id="Shape" fill="#FFFFFF" points="323.17361 176.533064 323.17361 178.676749 317.108552 177.45328"></polygon>
                <g id="600" fill="#FFFFFF">
                    <use xlink:href="#path-1"></use>
                    <use xlink:href="#path-1"></use>
                </g>
                <polygon id="Shape" fill="#FFFFFF" fill-rule="nonzero" points="323.17361 176.533064 323.17361 178.676749 317.108552 177.45328 323.17361 176.533064"></polygon>
                <path d="M82.6522318,167.027655 L82.6522318,177.45328" id="Shape" stroke="#FFFFFF" stroke-linecap="square"></path>
                <path d="M41.3575523,167.027655 L41.3575523,177.45328" id="Shape" stroke="#FFFFFF" stroke-linecap="square"></path>
                <path d="M76.5871738,177.45328 L68.3784315,177.45328" id="Shape" stroke="#FFFFFF" stroke-width="0.5" stroke-linecap="square"></path>
                <path d="M47.4330673,177.45328 L55.6313526,177.45328" id="Shape" stroke="#FFFFFF" stroke-width="0.5" stroke-linecap="square"></path>
                <polygon id="Shape" fill="#FFFFFF" points="76.5871738 176.533064 76.5871738 178.676749 82.6626888 177.45328"></polygon>
                <polygon id="Shape" fill="#FFFFFF" fill-rule="nonzero" points="76.5871738 176.533064 76.5871738 178.676749 82.6626888 177.45328 76.5871738 176.533064"></polygon>
                <polygon id="Shape" fill="#FFFFFF" points="47.4330673 176.533064 47.4330673 178.676749 41.3575523 177.45328"></polygon>
                <g id="700" fill="#FFFFFF">
                    <use xlink:href="#path-2"></use>
                    <use xlink:href="#path-2"></use>
                </g>
                <polygon id="Shape" fill="#FFFFFF" fill-rule="nonzero" points="47.4330673 176.533064 47.4330673 178.676749 41.3575523 177.45328 47.4330673 176.533064"></polygon>
                <path d="M352.327717,107.516887 L362.659229,107.516887" id="Shape" stroke="#FFFFFF" stroke-linecap="square"></path>
                <path d="M352.327717,167.027655 L362.659229,167.027655" id="Shape" stroke="#FFFFFF" stroke-linecap="square"></path>
                <path d="M362.659229,113.351891 L362.659229,128.681848" id="Shape" stroke="#FFFFFF" stroke-width="0.5" stroke-linecap="square"></path>
                <path d="M362.659229,160.889398 L362.659229,145.862693" id="Shape" stroke="#FFFFFF" stroke-width="0.5" stroke-linecap="square"></path>
                <polygon id="Shape" fill="#FFFFFF" points="361.749471 113.351891 363.568988 113.351891 362.659229 107.516887"></polygon>
                <polygon id="Shape" fill="#FFFFFF" fill-rule="nonzero" points="361.749471 113.351891 363.568988 113.351891 362.659229 107.516887 361.749471 113.351891"></polygon>
                <polygon id="Shape" fill="#FFFFFF" points="361.749471 160.889398 363.568988 160.889398 362.659229 167.027655"></polygon>
                <g id="1000" transform="translate(361.452659, 137.953021) rotate(-90.000000) translate(-361.452659, -137.953021) " fill="#FFFFFF">
                    <use xlink:href="#path-3"></use>
                    <use xlink:href="#path-3"></use>
                </g>
                <polygon id="Shape" fill="#FFFFFF" fill-rule="nonzero" points="361.749471 160.889398 363.568988 160.889398 362.659229 167.027655 361.749471 160.889398"></polygon>
                <path d="M352.327717,107.516887 L362.659229,107.516887" id="Shape" stroke="#FFFFFF" stroke-linecap="square"></path>
                <path d="M352.327717,0.782322823 L362.659229,0.782322823" id="Shape" stroke="#FFFFFF" stroke-linecap="square"></path>
                <path d="M362.659229,101.69234 L362.659229,62.7400276" id="Shape" stroke="#FFFFFF" stroke-width="0.5" stroke-linecap="square"></path>
                <path d="M362.659229,6.60686992 L362.659229,45.5591822" id="Shape" stroke="#FFFFFF" stroke-width="0.5" stroke-linecap="square"></path>
                <polygon id="Shape" fill="#FFFFFF" points="361.749471 101.69234 363.568988 101.69234 362.659229 107.516887"></polygon>
                <polygon id="Shape" fill="#FFFFFF" fill-rule="nonzero" points="361.749471 101.69234 363.568988 101.69234 362.659229 107.516887 361.749471 101.69234"></polygon>
                <polygon id="Shape" fill="#FFFFFF" points="361.749471 6.60686992 363.568988 6.60686992 362.659229 0.782322823"></polygon>
                <g id="1800" transform="translate(360.858702, 55.342748) rotate(-90.000000) translate(-360.858702, -55.342748) " fill="#FFFFFF">
                    <use xlink:href="#path-4"></use>
                    <use xlink:href="#path-4"></use>
                </g>
                <polygon id="Shape" fill="#FFFFFF" fill-rule="nonzero" points="361.749471 6.60686992 363.568988 6.60686992 362.659229 0.782322823 361.749471 6.60686992"></polygon>
                <path d="M317.108552,167.027655 L317.108552,177.45328" id="Shape" stroke="#FFFFFF" stroke-linecap="square"></path>
                <path d="M258.497086,167.027655 L258.497086,177.45328" id="Shape" stroke="#FFFFFF" stroke-linecap="square"></path>
                <path d="M311.33629,177.45328 L296.455984,177.45328" id="Shape" stroke="#FFFFFF" stroke-width="0.5" stroke-linecap="square"></path>
                <path d="M264.562144,177.45328 L279.442451,177.45328" id="Shape" stroke="#FFFFFF" stroke-width="0.5" stroke-linecap="square"></path>
                <polygon id="Shape" fill="#FFFFFF" points="311.33629 176.533064 311.33629 178.676749 317.108552 177.45328"></polygon>
                <polygon id="Shape" fill="#FFFFFF" fill-rule="nonzero" points="311.33629 176.533064 311.33629 178.676749 317.108552 177.45328 311.33629 176.533064"></polygon>
                <polygon id="Shape" fill="#FFFFFF" points="264.562144 176.533064 264.562144 178.676749 258.497086 177.45328"></polygon>
                <g id="1000" fill="#FFFFFF">
                    <use xlink:href="#path-5"></use>
                    <use xlink:href="#path-5"></use>
                </g>
                <polygon id="Shape" fill="#FFFFFF" fill-rule="nonzero" points="264.562144 176.533064 264.562144 178.676749 258.497086 177.45328 264.562144 176.533064"></polygon>
                <path d="M258.497086,167.027655 L258.497086,177.45328" id="Shape" stroke="#FFFFFF" stroke-linecap="square"></path>
                <path d="M82.6522318,167.027655 L82.6522318,177.45328" id="Shape" stroke="#FFFFFF" stroke-linecap="square"></path>
                <path d="M252.724824,177.45328 L179.233052,177.45328" id="Shape" stroke="#FFFFFF" stroke-width="0.5" stroke-linecap="square"></path>
                <path d="M88.4244939,177.45328 L161.916266,177.45328" id="Shape" stroke="#FFFFFF" stroke-width="0.5" stroke-linecap="square"></path>
                <polygon id="Shape" fill="#FFFFFF" points="252.724824 176.533064 252.724824 178.676749 258.497086 177.45328"></polygon>
                <polygon id="Shape" fill="#FFFFFF" fill-rule="nonzero" points="252.724824 176.533064 252.724824 178.676749 258.497086 177.45328 252.724824 176.533064"></polygon>
                <polygon id="Shape" fill="#FFFFFF" points="88.4244939 176.533064 88.4244939 178.676749 82.6626888 177.45328"></polygon>
                <g id="3000" fill="#FFFFFF">
                    <use xlink:href="#path-6"></use>
                    <use xlink:href="#path-6"></use>
                </g>
                <polygon id="Shape" fill="#FFFFFF" fill-rule="nonzero" points="88.4244939 176.533064 88.4244939 178.676749 82.6626888 177.45328 88.4244939 176.533064"></polygon>
                <path d="M41.3575523,167.027655 L41.3575523,177.45328" id="Shape" stroke="#FFFFFF" stroke-linecap="square"></path>
                <path d="M0.355668658,167.027655 L0.355668658,177.45328" id="Shape" stroke="#FFFFFF" stroke-linecap="square"></path>
                <path d="M35.5852902,177.45328 L27.3870048,177.45328" id="Shape" stroke="#FFFFFF" stroke-width="0.5" stroke-linecap="square"></path>
                <path d="M6.12793077,177.45328 L14.3262161,177.45328" id="Shape" stroke="#FFFFFF" stroke-width="0.5" stroke-linecap="square"></path>
                <polygon id="Shape" fill="#FFFFFF" points="35.5852902 176.533064 35.5852902 178.676749 41.3575523 177.45328"></polygon>
                <polygon id="Shape" fill="#FFFFFF" fill-rule="nonzero" points="35.5852902 176.533064 35.5852902 178.676749 41.3575523 177.45328 35.5852902 176.533064"></polygon>
                <polygon id="Shape" fill="#FFFFFF" points="6.12793077 176.533064 6.12793077 178.676749 0.355668658 177.45328"></polygon>
                <g id="700" fill="#FFFFFF">
                    <use xlink:href="#path-7"></use>
                    <use xlink:href="#path-7"></use>
                </g>
                <polygon id="Shape" fill="#FFFFFF" fill-rule="nonzero" points="6.12793077 176.533064 6.12793077 178.676749 0.355668658 177.45328 6.12793077 176.533064"></polygon>
                <polyline id="Shape" stroke="#FFFFFF" stroke-width="0.5" stroke-linecap="square" points="299.791766 19.1866368 291.290228 19.1866368 291.290228 51.3941863"></polyline>
                <path d="M258.497086,112.734928 L302.531499,112.734928" id="Shape" stroke="#FFFFFF" stroke-linecap="square"></path>
                <path d="M304.351016,19.1866368 L304.351016,51.3941863" id="Shape" stroke="#FFFFFF" stroke-linecap="square"></path>
                <path d="M239.05753,161.809613 L239.05753,112.734928" id="Shape" stroke="#FFFFFF" stroke-linecap="square"></path>
                <path d="M317.108552,77.4634788 L328.945872,77.4634788" id="Shape" stroke="#FFFFFF" stroke-linecap="square"></path>
                <path d="M0.355668658,161.809613 L0.355668658,50.7772235" id="Shape" stroke="#FFFFFF" stroke-linecap="square"></path>
                <polyline id="Shape" stroke="#FFFFFF" stroke-width="0.5" stroke-linecap="square" points="253.634583 66.4208904 248.468827 66.7241433 243.313527 67.9580689 238.451024 69.7985003 233.891773 72.2454375 229.646233 75.6230474 225.996741 79.3039102 222.660959 83.6017358 220.224479 88.1923573 218.404962 93.1071457 217.19195 98.31473 216.888697 103.532771"></polyline>
                <polyline id="Shape" stroke="#FFFFFF" stroke-width="0.5" stroke-linecap="square" points="278.532692 35.4368095 330.158884 35.4368095 330.158884 76.846516 327.732861 72.2454375"></polyline>
                <path d="M254.544342,161.809613 L254.544342,112.734928" id="Shape" stroke="#FFFFFF" stroke-linecap="square"></path>
                <polyline id="Shape" stroke="#FFFFFF" stroke-width="0.5" stroke-linecap="square" points="258.497086 51.3941863 317.108552 51.3941863 317.108552 83.2880259"></polyline>
                <path d="M46.5233086,43.4154979 L46.5233086,21.633574" id="Shape" stroke="#FFFFFF" stroke-linecap="square"></path>
                <path d="M253.634583,103.532771 L216.585444,103.532771" id="Shape" stroke="#FFFFFF" stroke-linecap="square"></path>
                <path d="M317.108552,51.3941863 L347.47567,51.3941863" id="Shape" stroke="#FFFFFF" stroke-linecap="square"></path>
                <path d="M278.532692,35.4368095 L278.532692,51.3941863" id="Shape" stroke="#FFFFFF" stroke-linecap="square"></path>
                <path d="M302.531499,112.734928 L302.531499,148.623341" id="Shape" stroke="#FFFFFF" stroke-linecap="square"></path>
                <path d="M222.964212,161.809613 L222.964212,112.734928" id="Shape" stroke="#FFFFFF" stroke-linecap="square"></path>
                <polygon id="Shape" stroke="#FFFFFF" stroke-linecap="square" points="0.355668658 167.027655 352.327717 167.027655 352.327717 0.782322823 41.3575523 0.782322823 41.3575523 14.2718484 0.355668658 14.2718484 0.355668658 50.7772235 46.5128516 50.7772235 46.5128516 43.4154979 41.9640581 43.4154979 41.9640581 45.8728921 5.21817207 45.8728921 5.21817207 19.1866368 41.9640581 19.1866368 41.9640581 21.633574 46.5128516 21.633574 46.5128516 5.68665422 82.6626888 5.68665422 82.6626888 19.1866368 100.272271 19.1866368 100.272271 5.68665422 253.634583 5.68665422 253.634583 66.1176375 258.497086 66.1176375 258.497086 5.68665422 299.791766 5.68665422 299.791766 19.1866368 317.108552 19.1866368 317.108552 5.68665422 347.47567 5.68665422 347.47567 161.809613 317.108552 161.809613 317.108552 148.623341 299.791766 148.623341 299.791766 161.809613 100.272271 161.809613 100.272271 148.623341 82.6626888 148.623341 82.6626888 161.809613 0.355668658 161.809613 0.355668658 167.027655"></polygon>
                <path d="M317.108552,64.580459 L347.47567,64.580459" id="Shape" stroke="#FFFFFF" stroke-linecap="square"></path>
                <path d="M41.9640581,21.633574 L41.9640581,43.4154979" id="Shape" stroke="#FFFFFF" stroke-linecap="square"></path>
                <path d="M270.940912,161.809613 L270.940912,112.734928" id="Shape" stroke="#FFFFFF" stroke-linecap="square"></path>
                <path d="M317.108552,19.1866368 L317.108552,51.3941863" id="Shape" stroke="#FFFFFF" stroke-linecap="square"></path>
                <polygon id="Shape" stroke="#FFFFFF" stroke-linecap="square" points="258.497086 103.532771 258.497086 112.734928 208.690412 112.734928 208.690412 161.809613 203.827908 161.809613 203.827908 107.516887 253.634583 107.516887 253.634583 103.532771 258.497086 103.532771"></polygon>
                <path d="M285.517966,161.809613 L285.517966,112.734928" id="Shape" stroke="#FFFFFF" stroke-linecap="square"></path>
                <path d="M34.0167407,37.5595798 L17.5156001,40.037888" id="Shape" stroke="#FFFFFF" stroke-width="0.5" stroke-linecap="round" stroke-linejoin="round"></path>
                <path d="M17.756111,25.0425549 C14.8451385,24.6102683 11.9478406,25.9064282 10.3300345,28.364748 C8.71222847,30.8230677 8.66793391,33.9967728 10.216503,36.4992848 C11.765072,39.0017968 14.6250682,40.3783098 17.546971,40.027431" id="Shape" stroke="#FFFFFF" stroke-width="0.5" stroke-linecap="round"></path>
                <path d="M34.0481117,37.5386658 C36.3793727,37.1034263 38.0694466,35.0686184 38.0694466,32.6970764 C38.0694466,30.3255344 36.3793727,28.2907265 34.0481117,27.855487" id="Shape" stroke="#FFFFFF" stroke-width="0.5" stroke-linecap="round" stroke-linejoin="round"></path>
                <path d="M34.1840526,27.876401 L17.735197,25.0425549" id="Shape" stroke="#FFFFFF" stroke-width="0.5" stroke-linecap="round"></path>
            </g>
            <g id="Group-16" transform="translate(1251.159915, 29.279590)">
                <path d="M317.307235,166.923085 L317.307235,178.572179" id="Shape" stroke="#FFFFFF" stroke-linecap="square"></path>
                <path d="M282.077614,166.923085 L282.077614,178.572179" id="Shape" stroke="#FFFFFF" stroke-linecap="square"></path>
                <path d="M311.23172,178.572179 L306.076421,178.572179" id="Shape" stroke="#FFFFFF" stroke-width="0.5" stroke-linecap="square"></path>
                <path d="M287.849876,178.572179 L293.015632,178.572179" id="Shape" stroke="#FFFFFF" stroke-width="0.5" stroke-linecap="square"></path>
                <polygon id="Shape" fill="#FFFFFF" points="311.23172 177.651963 311.23172 179.492395 317.307235 178.572179"></polygon>
                <polygon id="Shape" fill="#FFFFFF" fill-rule="nonzero" points="311.23172 177.651963 311.23172 179.492395 317.307235 178.572179 311.23172 177.651963"></polygon>
                <polygon id="Shape" fill="#FFFFFF" points="287.849876 177.651963 287.849876 179.492395 282.077614 178.572179"></polygon>
                <text id="600" fill="#FFFFFF" font-family="RFDewi-Regular, RF Dewi" font-size="7.92" font-weight="normal">
                    <tspan x="291.645766" y="181.218197">600</tspan>
                </text>
                <polygon id="Shape" fill="#FFFFFF" fill-rule="nonzero" points="287.849876 177.651963 287.849876 179.492395 282.077614 178.572179 287.849876 177.651963"></polygon>
                <path d="M352.536857,166.923085 L352.536857,178.572179" id="Shape" stroke="#FFFFFF" stroke-linecap="square"></path>
                <path d="M317.307235,166.923085 L317.307235,178.572179" id="Shape" stroke="#FFFFFF" stroke-linecap="square"></path>
                <path d="M346.461342,178.572179 L341.295585,178.572179" id="Shape" stroke="#FFFFFF" stroke-width="0.5" stroke-linecap="square"></path>
                <path d="M323.079497,178.572179 L328.245254,178.572179" id="Shape" stroke="#FFFFFF" stroke-width="0.5" stroke-linecap="square"></path>
                <polygon id="Shape" fill="#FFFFFF" points="346.461342 177.651963 346.461342 179.492395 352.536857 178.572179"></polygon>
                <polygon id="Shape" fill="#FFFFFF" fill-rule="nonzero" points="346.461342 177.651963 346.461342 179.492395 352.536857 178.572179 346.461342 177.651963"></polygon>
                <polygon id="Shape" fill="#FFFFFF" points="323.079497 177.651963 323.079497 179.492395 317.307235 178.572179"></polygon>
                <text id="600" fill="#FFFFFF" font-family="RFDewi-Regular, RF Dewi" font-size="7.92" font-weight="normal">
                    <tspan x="327.59692" y="181.218197">600</tspan>
                </text>
                <polygon id="Shape" fill="#FFFFFF" fill-rule="nonzero" points="323.079497 177.651963 323.079497 179.492395 317.307235 178.572179 323.079497 177.651963"></polygon>
                <path d="M282.077614,166.923085 L282.077614,178.572179" id="Shape" stroke="#FFFFFF" stroke-linecap="square"></path>
                <path d="M82.5581188,166.923085 L82.5581188,178.572179" id="Shape" stroke="#FFFFFF" stroke-linecap="square"></path>
                <path d="M276.002099,178.572179 L190.976259,178.572179" id="Shape" stroke="#FFFFFF" stroke-width="0.5" stroke-linecap="square"></path>
                <path d="M88.3303809,178.572179 L173.35622,178.572179" id="Shape" stroke="#FFFFFF" stroke-width="0.5" stroke-linecap="square"></path>
                <polygon id="Shape" fill="#FFFFFF" points="276.012556 177.651963 276.012556 179.492395 282.077614 178.572179"></polygon>
                <polygon id="Shape" fill="#FFFFFF" fill-rule="nonzero" points="276.012556 177.651963 276.012556 179.492395 282.077614 178.572179 276.012556 177.651963"></polygon>
                <polygon id="Shape" fill="#FFFFFF" points="88.3303809 177.651963 88.3303809 179.492395 82.5581188 178.572179"></polygon>
                <text id="3400" fill="#FFFFFF" font-family="RFDewi-Regular, RF Dewi" font-size="7.92" font-weight="normal">
                    <tspan x="172.028182" y="181.218197">3400</tspan>
                </text>
                <polygon id="Shape" fill="#FFFFFF" fill-rule="nonzero" points="88.3303809 177.651963 88.3303809 179.492395 82.5581188 178.572179 88.3303809 177.651963"></polygon>
                <path d="M82.5581188,166.923085 L82.5581188,178.572179" id="Shape" stroke="#FFFFFF" stroke-linecap="square"></path>
                <path d="M41.2529823,166.923085 L41.2529823,178.572179" id="Shape" stroke="#FFFFFF" stroke-linecap="square"></path>
                <path d="M76.4826038,178.572179 L68.2843185,178.572179" id="Shape" stroke="#FFFFFF" stroke-width="0.5" stroke-linecap="square"></path>
                <path d="M47.3284973,178.572179 L55.5267827,178.572179" id="Shape" stroke="#FFFFFF" stroke-width="0.5" stroke-linecap="square"></path>
                <polygon id="Shape" fill="#FFFFFF" points="76.4826038 177.651963 76.4826038 179.492395 82.5581188 178.572179"></polygon>
                <polygon id="Shape" fill="#FFFFFF" fill-rule="nonzero" points="76.4826038 177.651963 76.4826038 179.492395 82.5581188 178.572179 76.4826038 177.651963"></polygon>
                <polygon id="Shape" fill="#FFFFFF" points="47.3284973 177.651963 47.3284973 179.492395 41.2529823 178.572179"></polygon>
                <text id="700" fill="#FFFFFF" font-family="RFDewi-Regular, RF Dewi" font-size="7.92" font-weight="normal">
                    <tspan x="53.8954912" y="181.218197">700</tspan>
                </text>
                <polygon id="Shape" fill="#FFFFFF" fill-rule="nonzero" points="47.3284973 177.651963 47.3284973 179.492395 41.2529823 178.572179 47.3284973 177.651963"></polygon>
                <polyline id="Shape" stroke="#FFFFFF" stroke-linecap="square" points="364.99114 59.2578477 336.746792 73.678046 335.53378 73.0610832 335.53378 75.2047675 334.320769 74.9015146 306.076421 89.3217129"></polyline>
                <path d="M41.2529823,166.923085 L41.2529823,178.572179" id="Shape" stroke="#FFFFFF" stroke-linecap="square"></path>
                <path d="M0.261555689,166.923085 L0.261555689,178.572179" id="Shape" stroke="#FFFFFF" stroke-linecap="square"></path>
                <path d="M35.4911772,178.572179 L27.2824349,178.572179" id="Shape" stroke="#FFFFFF" stroke-width="0.5" stroke-linecap="square"></path>
                <path d="M6.02336081,178.572179 L14.535356,178.572179" id="Shape" stroke="#FFFFFF" stroke-width="0.5" stroke-linecap="square"></path>
                <polygon id="Shape" fill="#FFFFFF" points="35.4911772 177.651963 35.4911772 179.492395 41.2529823 178.572179"></polygon>
                <polygon id="Shape" fill="#FFFFFF" fill-rule="nonzero" points="35.4911772 177.651963 35.4911772 179.492395 41.2529823 178.572179 35.4911772 177.651963"></polygon>
                <polygon id="Shape" fill="#FFFFFF" points="6.03381781 177.651963 6.03381781 179.492395 0.261555689 178.572179"></polygon>
                <text id="700" fill="#FFFFFF" font-family="RFDewi-Regular, RF Dewi" font-size="7.92" font-weight="normal">
                    <tspan x="12.8831506" y="181.218197">700</tspan>
                </text>
                <polygon id="Shape" fill="#FFFFFF" fill-rule="nonzero" points="6.03381781 177.651963 6.03381781 179.492395 0.261555689 178.572179 6.03381781 177.651963"></polygon>
                <path d="M304.246446,45.7578651 L304.246446,20.6087884" id="Shape" stroke="#FFFFFF" stroke-linecap="square"></path>
                <polyline id="Shape" stroke="#FFFFFF" stroke-width="0.5" stroke-linecap="square" points="301.51717 77.3589088 301.51717 34.7257337 330.671277 34.7257337 330.671277 76.741946 328.548507 72.4441204"></polyline>
                <polyline id="Shape" stroke="#FFFFFF" stroke-width="0.5" stroke-linecap="square" points="282.077614 116.007968 276.922314 116.311221 271.756558 117.53469 266.894055 119.375121 262.345261 121.832515 258.089264 125.210125 254.450229 128.890988 251.10399 133.178357 248.677967 137.779435 246.858449 142.694224 245.634981 147.901808 245.331728 153.119849"></polyline>
                <path d="M317.307235,20.6087884 L317.307235,83.4867088" id="Shape" stroke="#FFFFFF" stroke-linecap="square"></path>
                <path d="M317.307235,45.7578651 L304.246446,45.7578651" id="Shape" stroke="#FFFFFF" stroke-linecap="square"></path>
                <path d="M317.307235,78.2791245 L327.638748,78.2791245" id="Shape" stroke="#FFFFFF" stroke-linecap="square"></path>
                <path d="M282.077614,153.119849 L245.028475,153.119849" id="Shape" stroke="#FFFFFF" stroke-linecap="square"></path>
                <path d="M317.307235,57.4174163 L286.940117,57.4174163" id="Shape" stroke="#FFFFFF" stroke-linecap="square"></path>
                <path d="M317.307235,65.0823948 L347.3711,65.0823948" id="Shape" stroke="#FFFFFF" stroke-linecap="square"></path>
                <polygon id="Shape" stroke="#FFFFFF" stroke-linecap="square" points="352.536857 0.677752857 352.536857 166.923085 0.261555689 166.923085 0.261555689 162.008296 82.5581188 162.008296 82.5581188 148.518771 100.167701 148.518771 100.167701 162.008296 282.077614 162.008296 282.077614 153.119849 286.940117 153.119849 286.940117 162.008296 299.697653 162.008296 299.697653 148.518771 317.307235 148.518771 317.307235 162.008296 347.3711 162.008296 347.3711 5.88533716 317.307235 5.88533716 317.307235 20.6087884 299.697653 20.6087884 299.697653 5.88533716 286.940117 5.88533716 286.940117 115.694258 282.077614 115.694258 282.077614 5.88533716 100.167701 5.88533716 100.167701 20.6087884 87.4206222 20.6087884 87.4206222 51.2791593 82.5581188 51.2791593 82.5581188 5.88533716 46.4187386 5.88533716 46.4187386 20.6087884 5.41685501 20.6087884 5.41685501 46.071575 46.4187386 46.071575 46.4187386 51.2791593 0.261555689 51.2791593 0.261555689 15.704457 41.2529823 15.704457 41.2529823 0.677752857 352.536857 0.677752857"></polygon>
                <path d="M317.307235,52.199375 L347.3711,52.199375" id="Shape" stroke="#FFFFFF" stroke-linecap="square"></path>
                <path d="M0.261555689,162.008296 L0.261555689,51.2791593" id="Shape" stroke="#FFFFFF" stroke-linecap="square"></path>
                <path d="M317.307235,72.1408675 L286.940117,72.1408675" id="Shape" stroke="#FFFFFF" stroke-linecap="square"></path>
                <path d="M36.045398,38.3961395 L19.5338004,40.8744477" id="Shape" stroke="#FFFFFF" stroke-width="0.5" stroke-linecap="round" stroke-linejoin="round"></path>
                <path d="M19.7847683,25.8791146 C16.8737959,25.446828 13.976498,26.742988 12.3586919,29.2013077 C10.7408858,31.6596274 10.6965912,34.8333325 12.2451603,37.3358445 C13.7937294,39.8383565 16.6537255,41.2148695 19.5756284,40.8639907" id="Shape" stroke="#FFFFFF" stroke-width="0.5" stroke-linecap="round"></path>
                <path d="M36.076769,38.3752256 C38.40803,37.939986 40.098104,35.9051781 40.098104,33.5336361 C40.098104,31.1620942 38.40803,29.1272863 36.076769,28.6920467" id="Shape" stroke="#FFFFFF" stroke-width="0.5" stroke-linecap="round" stroke-linejoin="round"></path>
                <path d="M36.202253,28.7129607 L19.7638543,25.8791146" id="Shape" stroke="#FFFFFF" stroke-width="0.5" stroke-linecap="round"></path>
            </g>
            <g id="Group-13">
                <path d="M303.99935,196.307245 L317.969898,196.307245" id="Shape" stroke="#FFFFFF" stroke-linecap="square"></path>
                <path d="M303.99935,89.258971 L317.969898,89.258971" id="Shape" stroke="#FFFFFF" stroke-linecap="square"></path>
                <path d="M317.666645,190.168988 L317.666645,151.216676" id="Shape" stroke="#FFFFFF" stroke-width="0.5" stroke-linecap="square"></path>
                <path d="M317.666645,95.3972279 L317.666645,134.34954" id="Shape" stroke="#FFFFFF" stroke-width="0.5" stroke-linecap="square"></path>
                <polygon id="Shape" fill="#000000" points="316.746429 190.168988 318.879656 190.168988 317.666645 196.307245"></polygon>
                <polygon id="Shape" fill="#FFFFFF" fill-rule="nonzero" points="316.746429 190.168988 318.879656 190.168988 317.666645 196.307245 316.746429 190.168988"></polygon>
                <polygon id="Shape" fill="#000000" points="316.746429 95.3972279 318.879656 95.3972279 317.666645 89.258971"></polygon>
                <g id="1800" transform="translate(315.772004, 144.300418) rotate(-90.000000) translate(-315.772004, -144.300418) " fill="#FFFFFF">
                    <use xlink:href="#path-8"></use>
                    <use xlink:href="#path-8"></use>
                </g>
                <polygon id="Shape" fill="#FFFFFF" fill-rule="nonzero" points="316.746429 95.3972279 318.879656 95.3972279 317.666645 89.258971 316.746429 95.3972279"></polygon>
                <path d="M69.2397769,196.307245 L69.2397769,218.695675" id="Shape" stroke="#FFFFFF" stroke-linecap="square"></path>
                <path d="M28.2483502,196.307245 L28.2483502,218.695675" id="Shape" stroke="#FFFFFF" stroke-linecap="square"></path>
                <path d="M63.4779717,218.695675 L55.2796864,218.695675" id="Shape" stroke="#FFFFFF" stroke-width="0.5" stroke-linecap="square"></path>
                <path d="M34.3238652,218.695675 L42.5221506,218.695675" id="Shape" stroke="#FFFFFF" stroke-width="0.5" stroke-linecap="square"></path>
                <polygon id="Shape" fill="#000000" points="63.4779717 217.775459 63.4779717 219.61589 69.2502338 218.695675"></polygon>
                <polygon id="Shape" fill="#FFFFFF" fill-rule="nonzero" points="63.4779717 217.775459 63.4779717 219.61589 69.2502338 218.695675 63.4779717 217.775459"></polygon>
                <polygon id="Shape" fill="#000000" points="34.3238652 217.775459 34.3238652 219.61589 28.2483502 218.695675"></polygon>
                <g id="700" fill="#FFFFFF">
                    <use xlink:href="#path-9"></use>
                    <use xlink:href="#path-9"></use>
                </g>
                <polygon id="Shape" fill="#FFFFFF" fill-rule="nonzero" points="34.3238652 217.775459 34.3238652 219.61589 28.2483502 218.695675 34.3238652 217.775459"></polygon>
                <path d="M303.99935,89.258971 L317.969898,89.258971" id="Shape" stroke="#FFFFFF" stroke-linecap="square"></path>
                <path d="M303.99935,30.0619133 L317.969898,30.0619133" id="Shape" stroke="#FFFFFF" stroke-linecap="square"></path>
                <path d="M317.666645,83.4344239 L317.666645,68.3972628" id="Shape" stroke="#FFFFFF" stroke-width="0.5" stroke-linecap="square"></path>
                <path d="M317.666645,35.8864604 L317.666645,51.2268744" id="Shape" stroke="#FFFFFF" stroke-width="0.5" stroke-linecap="square"></path>
                <polygon id="Shape" fill="#000000" points="316.746429 83.4344239 318.879656 83.4344239 317.666645 89.258971"></polygon>
                <polygon id="Shape" fill="#FFFFFF" fill-rule="nonzero" points="316.746429 83.4344239 318.879656 83.4344239 317.666645 89.258971 316.746429 83.4344239"></polygon>
                <polygon id="Shape" fill="#000000" points="316.746429 35.8864604 318.879656 35.8864604 317.666645 30.0619133"></polygon>
                <g id="1000" transform="translate(316.428704, 60.644445) rotate(-90.000000) translate(-316.428704, -60.644445) " fill="#FFFFFF">
                    <use xlink:href="#path-10"></use>
                    <use xlink:href="#path-10"></use>
                </g>
                <polygon id="Shape" fill="#FFFFFF" fill-rule="nonzero" points="316.746429 35.8864604 318.879656 35.8864604 317.666645 30.0619133 316.746429 35.8864604"></polygon>
                <path d="M69.2397769,196.307245 L69.2397769,218.695675" id="Shape" stroke="#FFFFFF" stroke-linecap="square"></path>
                <path d="M298.227088,218.695675 L195.58121,218.695675" id="Shape" stroke="#FFFFFF" stroke-width="0.5" stroke-linecap="square"></path>
                <path d="M75.3152919,218.695675 L177.96117,218.695675" id="Shape" stroke="#FFFFFF" stroke-width="0.5" stroke-linecap="square"></path>
                <polygon id="Shape" fill="#000000" points="298.227088 217.775459 298.227088 219.61589 303.99935 218.695675"></polygon>
                <polygon id="Shape" fill="#FFFFFF" fill-rule="nonzero" points="298.227088 217.775459 298.227088 219.61589 303.99935 218.695675 298.227088 217.775459"></polygon>
                <polygon id="Shape" fill="#000000" points="75.3152919 217.775459 75.3152919 219.61589 69.2502338 218.695675"></polygon>
                <g id="4000" fill="#FFFFFF">
                    <use xlink:href="#path-11"></use>
                    <use xlink:href="#path-11"></use>
                </g>
                <polygon id="Shape" fill="#FFFFFF" fill-rule="nonzero" points="75.3152919 217.775459 75.3152919 219.61589 69.2502338 218.695675 75.3152919 217.775459"></polygon>
                <polyline id="Shape" stroke="#FFFFFF" stroke-width="0.5" stroke-linecap="square" points="299.136847 177.902931 303.696097 174.525321 298.833594 171.764674 303.392844 169.317737 298.833594 166.55709 303.392844 163.482733 298.833594 160.722086 303.392844 157.961439 298.833594 155.200791 303.696097 152.440144 299.136847 149.679497 303.696097 146.91885 298.833594 144.158203"></polyline>
                <path d="M33.4141065,89.8759337 L74.4055332,89.8759337" id="Shape" stroke="#FFFFFF" stroke-linecap="square"></path>
                <path d="M33.4141065,122.073026 L64.3877304,122.073026" id="Shape" stroke="#FFFFFF" stroke-linecap="square"></path>
                <path d="M70.7664984,138.636909 L53.7529649,163.482733" id="Shape" stroke="#FFFFFF" stroke-linecap="square"></path>
                <path d="M118.136693,142.014519 L118.136693,173.605105" id="Shape" stroke="#FFFFFF" stroke-linecap="square"></path>
                <polygon id="Shape" stroke="#FFFFFF" stroke-linecap="square" points="303.99935 86.8015768 74.4055332 86.8015768 74.4055332 94.7802651 79.2680366 94.7802651 79.2680366 92.019618 303.99935 92.019618 303.99935 86.8015768"></polygon>
                <path d="M37.3563943,196.307245 L37.3563943,211.637202" id="Shape" stroke="#FFFFFF" stroke-linecap="square"></path>
                <path d="M303.99935,0.311757976 L303.99935,30.0619133" id="Shape" stroke="#FFFFFF" stroke-linecap="square"></path>
                <polygon id="Shape" stroke="#FFFFFF" stroke-linecap="square" points="33.4141065 122.083483 33.4141065 191.089204 69.2502338 191.089204 69.2502338 177.902931 86.8598161 177.902931 86.8598161 191.089204 286.379311 191.089204 286.379311 177.902931 303.99935 177.902931 303.99935 196.307245 28.2483502 196.307245 28.2483502 122.083483 33.4141065 122.083483"></polygon>
                <path d="M33.4141065,163.482733 L53.7529649,163.482733" id="Shape" stroke="#FFFFFF" stroke-linecap="square"></path>
                <path d="M101.436869,142.014519 L101.436869,191.089204" id="Shape" stroke="#FFFFFF" stroke-linecap="square"></path>
                <polyline id="Shape" stroke="#FFFFFF" stroke-width="0.5" stroke-linecap="square" points="300.046606 48.4662273 303.99935 50.6099116 299.743353 53.9875215 303.99935 56.4344587 300.046606 59.5088157 303.99935 61.9557529 299.743353 65.3333628"></polyline>
                <path d="M85.0402987,48.4662273 L85.0402987,86.8015768" id="Shape" stroke="#FFFFFF" stroke-linecap="square"></path>
                <polygon id="Shape" stroke="#FFFFFF" stroke-linecap="square" points="28.2483502 30.0619133 28.2483502 0.30130098 74.4055332 0.30130098 74.4055332 30.0619133 303.99935 30.0619133 303.99935 48.4662273 286.379311 48.4662273 286.379311 34.9662447 86.8598161 34.9662447 86.8598161 48.4662273 69.2502338 48.4662273 69.2502338 5.51934228 33.4141065 5.51934228 33.4141065 30.0619133 28.2483502 30.0619133"></polygon>
                <path d="M31.887385,30.0619133 L31.887385,48.4662273" id="Shape" stroke="#FFFFFF" stroke-linecap="square"></path>
                <path d="M32.4938908,196.307245 L32.4938908,211.637202" id="Shape" stroke="#FFFFFF" stroke-linecap="square"></path>
                <polygon id="Shape" stroke="#FFFFFF" stroke-linecap="square" points="33.4141065 48.4662273 33.4141065 89.8759337 28.2483502 89.8759337 28.2483502 48.4662273 33.4141065 48.4662273"></polygon>
                <path d="M299.136847,0.311757976 L299.136847,30.0619133" id="Shape" stroke="#FFFFFF" stroke-linecap="square"></path>
                <path d="M33.4141065,138.636909 L74.4055332,138.636909" id="Shape" stroke="#FFFFFF" stroke-linecap="square"></path>
                <path d="M85.3435516,142.014519 L85.3435516,177.902931" id="Shape" stroke="#FFFFFF" stroke-linecap="square"></path>
                <path d="M28.2483502,30.0619133 L0.00400244653,30.0619133" id="Shape" stroke="#FFFFFF" stroke-linecap="square"></path>
                <polyline id="Shape" stroke="#FFFFFF" stroke-linecap="square" points="137.57625 136.796477 79.2680366 136.796477 79.2680366 133.732577 74.4055332 133.732577 74.4055332 142.014519 134.836516 142.014519"></polyline>
                <path d="M29.7646147,30.0619133 L29.7646147,48.4662273" id="Shape" stroke="#FFFFFF" stroke-linecap="square"></path>
                <path d="M33.4141065,48.4662273 L33.4141065,89.8759337" id="Shape" stroke="#FFFFFF" stroke-linecap="square"></path>
                <path d="M303.99935,196.307245 L303.99935,228.514795" id="Shape" stroke="#FFFFFF" stroke-linecap="square"></path>
                <path d="M64.3877304,122.073026 L64.3877304,138.636909" id="Shape" stroke="#FFFFFF" stroke-linecap="square"></path>
                <path d="M70.7664984,138.636909 L70.7664984,177.902931" id="Shape" stroke="#FFFFFF" stroke-linecap="square"></path>
                <polyline id="Shape" stroke="#FFFFFF" stroke-width="0.5" stroke-linecap="square" points="85.0402987 73.918557 49.8106772 73.918557 49.8106772 157.041223 126.941484 157.041223 121.482932 160.11558"></polyline>
                <path d="M299.136847,196.307245 L299.136847,228.514795" id="Shape" stroke="#FFFFFF" stroke-linecap="square"></path>
                <path d="M69.2397769,48.4662273 L33.4141065,48.4662273" id="Shape" stroke="#FFFFFF" stroke-linecap="square"></path>
                <path d="M28.2483502,48.4662273 L28.2483502,89.8759337" id="Shape" stroke="#FFFFFF" stroke-linecap="square"></path>
                <path d="M29.7646147,89.8759337 L29.7646147,122.073026" id="Shape" stroke="#FFFFFF" stroke-linecap="square"></path>
                <path d="M28.2483502,25.1471249 L0.00400244653,25.1471249" id="Shape" stroke="#FFFFFF" stroke-linecap="square"></path>
                <path d="M31.887385,89.8759337 L31.887385,122.073026" id="Shape" stroke="#FFFFFF" stroke-linecap="square"></path>
                <polyline id="Shape" stroke="#FFFFFF" stroke-linecap="square" points="102.043375 204.275476 123.302449 164.099696 124.515461 163.482733 123.302449 161.956011 124.515461 161.339048 140.608779 130.97193"></polyline>
                <path d="M46.0670724,37.4236389 L43.5887642,20.9224983" id="Shape" stroke="#FFFFFF" stroke-width="0.5" stroke-linecap="round" stroke-linejoin="round"></path>
                <path d="M58.5736403,21.1525522 C59.005927,18.2415797 57.709767,15.3442818 55.2514473,13.7264757 C52.7931275,12.1086697 49.6194225,12.0643751 47.1169105,13.6129442 C44.6143985,15.1615132 43.2378855,18.0215094 43.5887642,20.9434122" id="Shape" stroke="#FFFFFF" stroke-width="0.5" stroke-linecap="round"></path>
                <path d="M46.0775294,37.4445529 C46.5127689,39.7758139 48.5475769,41.4658878 50.9191188,41.4658878 C53.2906608,41.4658878 55.3254687,39.7758139 55.7607083,37.4445529" id="Shape" stroke="#FFFFFF" stroke-width="0.5" stroke-linecap="round" stroke-linejoin="round"></path>
                <path d="M55.7397943,37.5909508 L58.5736403,21.1420952" id="Shape" stroke="#FFFFFF" stroke-width="0.5" stroke-linecap="round"></path>
            </g>
            <g id="Group-17" transform="translate(1689.653400, 29.279590)">
                <path d="M329.353695,166.923085 L329.353695,180.41261" id="Shape" stroke="#FFFFFF" stroke-linecap="square"></path>
                <path d="M294.134531,166.923085 L294.134531,180.41261" id="Shape" stroke="#FFFFFF" stroke-linecap="square"></path>
                <path d="M323.59189,180.41261 L318.426134,180.41261" id="Shape" stroke="#FFFFFF" stroke-width="0.5" stroke-linecap="square"></path>
                <path d="M300.199589,180.41261 L305.365345,180.41261" id="Shape" stroke="#FFFFFF" stroke-width="0.5" stroke-linecap="square"></path>
                <polygon id="Shape" fill="#FFFFFF" points="323.59189 179.492395 323.59189 181.332826 329.353695 180.41261"></polygon>
                <polygon id="Shape" fill="#FFFFFF" fill-rule="nonzero" points="323.59189 179.492395 323.59189 181.332826 329.353695 180.41261 323.59189 179.492395"></polygon>
                <polygon id="Shape" fill="#FFFFFF" points="300.199589 179.492395 300.199589 181.332826 294.134531 180.41261"></polygon>
                <text id="600" fill="#FFFFFF" font-family="RFDewi-Regular, RF Dewi" font-size="7.92" font-weight="normal">
                    <tspan x="306.88161" y="183.037714">600</tspan>
                </text>
                <polygon id="Shape" fill="#FFFFFF" fill-rule="nonzero" points="300.199589 179.492395 300.199589 181.332826 294.134531 180.41261 300.199589 179.492395"></polygon>
                <path d="M59.3749574,166.923085 L59.3749574,180.41261" id="Shape" stroke="#FFFFFF" stroke-linecap="square"></path>
                <path d="M0.763491525,166.923085 L0.763491525,180.41261" id="Shape" stroke="#FFFFFF" stroke-linecap="square"></path>
                <path d="M53.6131523,180.41261 L38.7328461,180.41261" id="Shape" stroke="#FFFFFF" stroke-width="0.5" stroke-linecap="square"></path>
                <path d="M6.53575364,180.41261 L21.7193127,180.41261" id="Shape" stroke="#FFFFFF" stroke-width="0.5" stroke-linecap="square"></path>
                <polygon id="Shape" fill="#FFFFFF" points="53.6131523 179.492395 53.6131523 181.332826 59.3749574 180.41261"></polygon>
                <polygon id="Shape" fill="#FFFFFF" fill-rule="nonzero" points="53.6131523 179.492395 53.6131523 181.332826 59.3749574 180.41261 53.6131523 179.492395"></polygon>
                <polygon id="Shape" fill="#FFFFFF" points="6.53575364 179.492395 6.53575364 181.332826 0.763491525 180.41261"></polygon>
                <text id="1000" fill="#FFFFFF" font-family="RFDewi-Regular, RF Dewi" font-size="7.92" font-weight="normal">
                    <tspan x="20.5167581" y="183.037714">1000</tspan>
                </text>
                <polygon id="Shape" fill="#FFFFFF" fill-rule="nonzero" points="6.53575364 179.492395 6.53575364 181.332826 0.763491525 180.41261 6.53575364 179.492395"></polygon>
                <path d="M329.353695,107.726027 L343.02099,107.726027" id="Shape" stroke="#FFFFFF" stroke-linecap="square"></path>
                <path d="M329.353695,0.677752857 L343.02099,0.677752857" id="Shape" stroke="#FFFFFF" stroke-linecap="square"></path>
                <path d="M343.02099,101.58777 L343.02099,62.6354576" id="Shape" stroke="#FFFFFF" stroke-width="0.5" stroke-linecap="square"></path>
                <path d="M343.02099,6.80555286 L343.02099,45.7578651" id="Shape" stroke="#FFFFFF" stroke-width="0.5" stroke-linecap="square"></path>
                <polygon id="Shape" fill="#FFFFFF" points="342.111231 101.58777 343.930749 101.58777 343.02099 107.726027"></polygon>
                <polygon id="Shape" fill="#FFFFFF" fill-rule="nonzero" points="342.111231 101.58777 343.930749 101.58777 343.02099 107.726027 342.111231 101.58777"></polygon>
                <polygon id="Shape" fill="#FFFFFF" points="342.111231 6.80555286 343.930749 6.80555286 343.02099 0.677752857"></polygon>
                <text id="1800" fill="#FFFFFF" transform="translate(341.724322, 54.667226) rotate(-90.000000) translate(-341.724322, -54.667226) " font-family="RFDewi-Regular, RF Dewi" font-size="7.84" font-weight="normal">
                    <tspan x="332.218912" y="57.9615778">1800</tspan>
                </text>
                <polygon id="Shape" fill="#FFFFFF" fill-rule="nonzero" points="342.111231 6.80555286 343.930749 6.80555286 343.02099 0.677752857 342.111231 6.80555286"></polygon>
                <path d="M294.134531,166.923085 L294.134531,180.41261" id="Shape" stroke="#FFFFFF" stroke-linecap="square"></path>
                <path d="M59.3749574,166.923085 L59.3749574,180.41261" id="Shape" stroke="#FFFFFF" stroke-linecap="square"></path>
                <path d="M288.362269,180.41261 L185.71639,180.41261" id="Shape" stroke="#FFFFFF" stroke-width="0.5" stroke-linecap="square"></path>
                <path d="M65.4504724,180.41261 L167.793098,180.41261" id="Shape" stroke="#FFFFFF" stroke-width="0.5" stroke-linecap="square"></path>
                <polygon id="Shape" fill="#FFFFFF" points="288.362269 179.492395 288.362269 181.332826 294.134531 180.41261"></polygon>
                <polygon id="Shape" fill="#FFFFFF" fill-rule="nonzero" points="288.362269 179.492395 288.362269 181.332826 294.134531 180.41261 288.362269 179.492395"></polygon>
                <polygon id="Shape" fill="#FFFFFF" points="65.4504724 179.492395 65.4504724 181.332826 59.3749574 180.41261"></polygon>
                <text id="4000" fill="#FFFFFF" font-family="RFDewi-Regular, RF Dewi" font-size="7.92" font-weight="normal">
                    <tspan x="169.853126" y="183.037714">400</tspan>
                    <tspan x="169.853126" y="193.037714">0</tspan>
                </text>
                <polygon id="Shape" fill="#FFFFFF" fill-rule="nonzero" points="65.4504724 179.492395 65.4504724 181.332826 59.3749574 180.41261 65.4504724 179.492395"></polygon>
                <path d="M329.353695,166.923085 L343.02099,166.923085" id="Shape" stroke="#FFFFFF" stroke-linecap="square"></path>
                <path d="M329.353695,107.726027 L343.02099,107.726027" id="Shape" stroke="#FFFFFF" stroke-linecap="square"></path>
                <path d="M343.02099,161.088081 L343.02099,145.758124" id="Shape" stroke="#FFFFFF" stroke-width="0.5" stroke-linecap="square"></path>
                <path d="M343.02099,113.550574 L343.02099,128.577278" id="Shape" stroke="#FFFFFF" stroke-width="0.5" stroke-linecap="square"></path>
                <polygon id="Shape" fill="#FFFFFF" points="342.111231 161.088081 343.930749 161.088081 343.02099 166.923085"></polygon>
                <polygon id="Shape" fill="#FFFFFF" fill-rule="nonzero" points="342.111231 161.088081 343.930749 161.088081 343.02099 166.923085 342.111231 161.088081"></polygon>
                <polygon id="Shape" fill="#FFFFFF" points="342.111231 113.550574 343.930749 113.550574 343.02099 107.726027"></polygon>
                <text id="1000" fill="#FFFFFF" transform="translate(341.724322, 136.786020) rotate(-90.000000) translate(-341.724322, -136.786020) " font-family="RFDewi-Regular, RF Dewi" font-size="7.84" font-weight="normal">
                    <tspan x="332.218912" y="140.080372">1000</tspan>
                </text>
                <polygon id="Shape" fill="#FFFFFF" fill-rule="nonzero" points="342.111231 113.550574 343.930749 113.550574 343.02099 107.726027 342.111231 113.550574"></polygon>
                <path d="M294.134531,64.1621791 L324.501649,64.1621791" id="Shape" stroke="#FFFFFF" stroke-linecap="square"></path>
                <polyline id="Shape" stroke="#FFFFFF" stroke-width="0.5" stroke-linecap="square" points="289.272027 107.726027 283.803018 108.02928 278.647719 109.252748 273.785215 111.09318 269.225965 113.853827 264.677171 116.928184 261.02768 120.609047 257.995151 125.210125 255.255417 129.811204 253.4359 134.715535 252.222888 139.923119 251.919636 145.444414"></polyline>
                <path d="M294.134531,77.0451989 L324.501649,77.0451989" id="Shape" stroke="#FFFFFF" stroke-linecap="square"></path>
                <path d="M0.763491525,162.008296 L0.763491525,51.2791593" id="Shape" stroke="#FFFFFF" stroke-linecap="square"></path>
                <path d="M289.272027,145.444414 L251.616383,145.444414" id="Shape" stroke="#FFFFFF" stroke-linecap="square"></path>
                <path d="M294.134531,92.6888658 L324.501649,92.6888658" id="Shape" stroke="#FFFFFF" stroke-linecap="square"></path>
                <polyline id="Shape" stroke="#FFFFFF" stroke-width="0.5" stroke-linecap="square" points="294.134531 34.1087709 307.184863 34.1087709 307.184863 107.726027 305.062092 103.731454"></polyline>
                <polygon id="Shape" stroke="#FFFFFF" stroke-linecap="square" points="329.353695 0.677752857 17.4737721 0.677752857 17.4737721 14.1672785 0.763491525 14.1672785 0.763491525 51.2791593 35.993113 51.2791593 35.993113 46.071575 5.62599494 46.071575 5.62599494 19.0820669 22.3258185 19.0820669 22.3258185 5.88533716 59.3749574 5.88533716 59.3749574 46.071575 54.522911 46.071575 54.522911 51.2791593 64.5407137 51.2791593 64.5407137 19.0820669 76.9949966 19.0820669 76.9949966 5.88533716 276.514492 5.88533716 276.514492 19.0820669 289.272027 19.0820669 289.272027 107.726027 294.134531 107.726027 294.134531 5.88533716 324.501649 5.88533716 324.501649 162.008296 294.134531 162.008296 294.134531 145.444414 289.272027 145.444414 289.272027 148.518771 276.514492 148.518771 276.514492 162.008296 76.9949966 162.008296 76.9949966 148.518771 59.3749574 148.518771 59.3749574 162.008296 0.763491525 162.008296 0.763491525 166.923085 329.353695 166.923085 329.353695 0.677752857"></polygon>
                <path d="M294.134531,107.726027 L324.501649,107.726027" id="Shape" stroke="#FFFFFF" stroke-linecap="square"></path>
                <path d="M294.134531,51.5928692 L324.501649,51.5928692" id="Shape" stroke="#FFFFFF" stroke-linecap="square"></path>
                <path d="M34.4977625,37.4759238 L17.9966219,39.954232" id="Shape" stroke="#FFFFFF" stroke-width="0.5" stroke-linecap="round" stroke-linejoin="round"></path>
                <path d="M18.2371328,24.9588989 C15.3261604,24.5266123 12.4288625,25.8227723 10.8110564,28.281092 C9.19325031,30.7394117 9.14895575,33.9131168 10.6975248,36.4156288 C12.2460939,38.9181408 15.10609,40.2946538 18.0279929,39.943775" id="Shape" stroke="#FFFFFF" stroke-width="0.5" stroke-linecap="round"></path>
                <path d="M34.5291335,37.4550099 C36.8603945,37.0197703 38.5504685,34.9849624 38.5504685,32.6134204 C38.5504685,30.2418785 36.8603945,28.2070706 34.5291335,27.771831" id="Shape" stroke="#FFFFFF" stroke-width="0.5" stroke-linecap="round" stroke-linejoin="round"></path>
                <path d="M34.6650745,27.792745 L18.2162188,24.9588989" id="Shape" stroke="#FFFFFF" stroke-width="0.5" stroke-linecap="round"></path>
            </g>
            <g id="Group-14" transform="translate(368.910232, 0.000000)">
                <path d="M310.865725,136.796477 L347.914864,136.796477" id="Shape" stroke="#FFFFFF" stroke-linecap="square"></path>
                <path d="M310.865725,196.307245 L347.914864,196.307245" id="Shape" stroke="#FFFFFF" stroke-linecap="square"></path>
                <path d="M347.914864,142.631482 L347.914864,157.961439" id="Shape" stroke="#FFFFFF" stroke-width="0.5" stroke-linecap="square"></path>
                <path d="M347.914864,190.168988 L347.914864,175.142284" id="Shape" stroke="#FFFFFF" stroke-width="0.5" stroke-linecap="square"></path>
                <polygon id="Shape" fill="#000000" points="347.005106 142.631482 349.127876 142.631482 347.914864 136.796477"></polygon>
                <polygon id="Shape" fill="#FFFFFF" fill-rule="nonzero" points="347.005106 142.631482 349.127876 142.631482 347.914864 136.796477 347.005106 142.631482"></polygon>
                <polygon id="Shape" fill="#000000" points="347.005106 190.168988 349.127876 190.168988 347.914864 196.307245"></polygon>
                <g id="1000" transform="translate(346.812864, 167.316268) rotate(-90.000000) translate(-346.812864, -167.316268) " fill="#FFFFFF">
                    <use xlink:href="#path-12"></use>
                    <use xlink:href="#path-12"></use>
                </g>
                <polygon id="Shape" fill="#FFFFFF" fill-rule="nonzero" points="347.005106 190.168988 349.127876 190.168988 347.914864 196.307245 347.005106 190.168988"></polygon>
                <path d="M310.865725,136.796477 L348.218117,136.796477" id="Shape" stroke="#FFFFFF" stroke-linecap="square"></path>
                <path d="M310.865725,30.0619133 L348.218117,30.0619133" id="Shape" stroke="#FFFFFF" stroke-linecap="square"></path>
                <path d="M347.914864,130.97193 L347.914864,92.019618" id="Shape" stroke="#FFFFFF" stroke-width="0.5" stroke-linecap="square"></path>
                <path d="M347.914864,35.8864604 L347.914864,74.8387727" id="Shape" stroke="#FFFFFF" stroke-width="0.5" stroke-linecap="square"></path>
                <polygon id="Shape" fill="#000000" points="347.005106 130.97193 349.127876 130.97193 347.914864 136.796477"></polygon>
                <polygon id="Shape" fill="#FFFFFF" fill-rule="nonzero" points="347.005106 130.97193 349.127876 130.97193 347.914864 136.796477 347.005106 130.97193"></polygon>
                <polygon id="Shape" fill="#000000" points="347.005106 35.8864604 349.127876 35.8864604 347.914864 30.0619133"></polygon>
                <g id="1800" transform="translate(346.218907, 84.705995) rotate(-90.000000) translate(-346.218907, -84.705995) " fill="#FFFFFF">
                    <use xlink:href="#path-13"></use>
                    <use xlink:href="#path-13"></use>
                </g>
                <polygon id="Shape" fill="#FFFFFF" fill-rule="nonzero" points="347.005106 35.8864604 349.127876 35.8864604 347.914864 30.0619133 347.005106 35.8864604"></polygon>
                <path d="M76.1061519,196.307245 L76.1061519,218.695675" id="Shape" stroke="#FFFFFF" stroke-linecap="square"></path>
                <path d="M35.1147253,196.307245 L35.1147253,218.695675" id="Shape" stroke="#FFFFFF" stroke-linecap="square"></path>
                <path d="M70.3443468,218.695675 L62.1460615,218.695675" id="Shape" stroke="#FFFFFF" stroke-width="0.5" stroke-linecap="square"></path>
                <path d="M40.8869874,218.695675 L49.0852728,218.695675" id="Shape" stroke="#FFFFFF" stroke-width="0.5" stroke-linecap="square"></path>
                <polygon id="Shape" fill="#000000" points="70.3443468 217.472206 70.3443468 219.61589 76.1061519 218.695675"></polygon>
                <polygon id="Shape" fill="#FFFFFF" fill-rule="nonzero" points="70.3443468 217.472206 70.3443468 219.61589 76.1061519 218.695675 70.3443468 217.472206"></polygon>
                <polygon id="Shape" fill="#000000" points="40.8869874 217.472206 40.8869874 219.61589 35.1147253 218.695675"></polygon>
                <g id="700" fill="#FFFFFF">
                    <use xlink:href="#path-14"></use>
                    <use xlink:href="#path-14"></use>
                </g>
                <polygon id="Shape" fill="#FFFFFF" fill-rule="nonzero" points="40.8869874 217.472206 40.8869874 219.61589 35.1147253 218.695675 40.8869874 217.472206"></polygon>
                <path d="M76.1061519,196.307245 L76.1061519,218.695675" id="Shape" stroke="#FFFFFF" stroke-linecap="square"></path>
                <path d="M305.093463,218.695675 L202.447585,218.695675" id="Shape" stroke="#FFFFFF" stroke-width="0.5" stroke-linecap="square"></path>
                <path d="M81.8784141,218.695675 L184.524293,218.695675" id="Shape" stroke="#FFFFFF" stroke-width="0.5" stroke-linecap="square"></path>
                <polygon id="Shape" fill="#000000" points="305.093463 217.472206 305.093463 219.61589 310.865725 218.695675"></polygon>
                <polygon id="Shape" fill="#FFFFFF" fill-rule="nonzero" points="305.093463 217.472206 305.093463 219.61589 310.865725 218.695675 305.093463 217.472206"></polygon>
                <polygon id="Shape" fill="#000000" points="81.8784141 217.472206 81.8784141 219.61589 76.1061519 218.695675"></polygon>
                <g id="4000" fill="#FFFFFF">
                    <use xlink:href="#path-15"></use>
                    <use xlink:href="#path-15"></use>
                </g>
                <polygon id="Shape" fill="#FFFFFF" fill-rule="nonzero" points="81.8784141 217.472206 81.8784141 219.61589 76.1061519 218.695675 81.8784141 217.472206"></polygon>
                <polyline id="Shape" stroke="#FFFFFF" stroke-linecap="square" points="214.284905 131.588893 196.675323 165.636874 195.462311 166.24338 196.675323 167.780558 195.462311 168.397521 177.842272 202.748755"></polyline>
                <polyline id="Shape" stroke="#FFFFFF" stroke-width="0.5" stroke-linecap="square" points="0.491609614 50.3066587 0.794862515 55.8279529 2.31112702 61.3492471 4.14110142 66.2535785 7.17363043 71.1579099 10.5198693 75.1524826 14.76541 78.8333454 19.3246605 81.5939925 24.4799598 83.7376768 29.6457161 85.2748553 35.1147253 85.5781082"></polyline>
                <path d="M70.3443468,139.557125 L70.3443468,121.769773" id="Shape" stroke="#FFFFFF" stroke-linecap="square"></path>
                <polyline id="Shape" stroke="#FFFFFF" stroke-width="0.5" stroke-linecap="square" points="76.1061519 139.557125 59.1030755 163.17948 39.9772287 163.17948"></polyline>
                <polyline id="Shape" stroke="#FFFFFF" stroke-width="0.5" stroke-linecap="square" points="342.445855 177.902931 342.142602 172.9986 340.929591 168.083811 339.110073 163.482733 336.37034 159.195364 333.337811 155.200791 329.385066 152.136891 325.139526 149.376244 320.580275 147.535813 315.717772 146.312344 310.865725 145.998634"></polyline>
                <path d="M310.865725,177.902931 L310.865725,48.4662273" id="Shape" stroke="#FFFFFF" stroke-linecap="square"></path>
                <path d="M306.003222,196.307245 L306.003222,229.43501" id="Shape" stroke="#FFFFFF" stroke-linecap="square"></path>
                <path d="M192.116072,142.014519 L155.370186,142.014519" id="Shape" stroke="#FFFFFF" stroke-linecap="square"></path>
                <polyline id="Shape" stroke="#FFFFFF" stroke-linecap="square" points="6.87037753 42.9449331 35.1147253 42.9449331 35.1147253 47.8492645 6.87037753 47.8492645"></polyline>
                <path d="M70.3443468,121.769773 L39.9772287,121.769773" id="Shape" stroke="#FFFFFF" stroke-linecap="square"></path>
                <path d="M342.749108,177.902931 L310.865725,177.902931" id="Shape" stroke="#FFFFFF" stroke-linecap="square"></path>
                <path d="M90.6832052,177.902931 L90.6832052,142.014519" id="Shape" stroke="#FFFFFF" stroke-linecap="square"></path>
                <polyline id="Shape" stroke="#FFFFFF" stroke-width="0.5" stroke-linecap="square" points="310.865725 80.3600669 315.717772 80.056814 320.580275 78.8333454 325.139526 76.992914 329.385066 74.2322669 333.337811 71.1579099 336.37034 67.1737942 339.110073 62.8759686 340.929591 58.2748901 342.142602 53.3705587 342.445855 48.4662273"></polyline>
                <path d="M35.1147253,50.3066587 L0.188356713,50.3066587" id="Shape" stroke="#FFFFFF" stroke-linecap="square"></path>
                <path d="M82.181667,139.557125 L39.9772287,139.557125" id="Shape" stroke="#FFFFFF" stroke-linecap="square"></path>
                <path d="M122.577045,191.089204 L122.577045,142.014519" id="Shape" stroke="#FFFFFF" stroke-linecap="square"></path>
                <path d="M192.116072,136.796477 L211.555629,136.796477" id="Shape" stroke="#FFFFFF" stroke-linecap="round"></path>
                <path d="M189.690049,179.743362 L189.690049,142.014519" id="Shape" stroke="#FFFFFF" stroke-linecap="square"></path>
                <path d="M43.3130106,196.307245 L43.3130106,211.637202" id="Shape" stroke="#FFFFFF" stroke-linecap="square"></path>
                <path d="M76.1061519,177.902931 L76.1061519,139.557125" id="Shape" stroke="#FFFFFF" stroke-linecap="square"></path>
                <path d="M106.483727,191.089204 L106.483727,142.014519" id="Shape" stroke="#FFFFFF" stroke-linecap="square"></path>
                <path d="M155.370186,136.796477 L155.370186,99.6845965" id="Shape" stroke="#FFFFFF" stroke-linecap="square"></path>
                <path d="M171.473961,191.089204 L171.473961,142.014519" id="Shape" stroke="#FFFFFF" stroke-linecap="square"></path>
                <polyline id="Shape" stroke="#FFFFFF" stroke-linecap="square" points="79.7556437 133.732577 79.7556437 91.4026553 39.9772287 91.4026553 39.9772287 191.089204 76.1061519 191.089204 76.1061519 177.902931 93.7261912 177.902931 93.7261912 191.089204 293.245686 191.089204 293.245686 177.902931 310.865725 177.902931 310.865725 196.307245 35.1147253 196.307245 35.1147253 85.5781082 39.9772287 85.5781082 39.9772287 86.4983239 84.6181472 86.4983239 84.6181472 133.429325"></polyline>
                <polyline id="Shape" stroke="#FFFFFF" stroke-width="0.5" stroke-linecap="square" points="310.865725 145.695382 316.021025 145.392129 320.883528 144.158203 325.442779 142.014519 329.688319 139.557125 333.641064 136.189972 336.976846 132.195399 339.413326 127.90803 341.536096 123.306952 342.749108 118.40262 343.052361 113.184579 342.749108 107.966538 341.536096 103.062206 339.413326 98.4611279 336.976846 94.1633023 333.641064 90.1791866 329.688319 86.8015768 325.442779 84.3546396 320.883528 82.2004983 316.021025 80.9770297 310.865725 80.6737768"></polyline>
                <polyline id="Shape" stroke="#FFFFFF" stroke-linecap="round" points="87.3265093 136.796477 154.439513 136.796477 154.439513 142.014519 87.6297622 142.014519"></polyline>
                <polyline id="Shape" stroke="#FFFFFF" stroke-width="0.5" stroke-linecap="square" points="191.812819 136.796477 191.509566 130.97193 189.993302 125.450636 187.870531 120.243052 184.827545 115.025011 181.188511 110.727185 176.932513 107.046322 171.777214 103.982422 166.611457 101.838738 161.142448 100.301559 155.370186 99.9878494"></polyline>
                <polyline id="Shape" stroke="#FFFFFF" stroke-width="0.5" stroke-linecap="square" points="55.1607878 91.4026553 55.1607878 156.121007 201.537826 156.121007 196.37207 159.195364"></polyline>
                <path d="M192.116072,142.014519 L208.826353,142.014519" id="Shape" stroke="#FFFFFF" stroke-linecap="round"></path>
                <polygon id="Shape" stroke="#FFFFFF" stroke-linecap="square" points="35.1147253 50.3066587 35.1147253 0.30130098 80.9686554 0.30130098 80.9686554 30.0619133 310.865725 30.0619133 310.865725 48.4662273 293.245686 48.4662273 293.245686 34.9662447 93.7261912 34.9662447 93.7261912 48.4662273 76.1061519 48.4662273 76.1061519 5.51934228 39.9772287 5.51934228 39.9772287 50.3066587 35.1147253 50.3066587"></polygon>
                <path d="M38.4505072,196.307245 L38.4505072,211.637202" id="Shape" stroke="#FFFFFF" stroke-linecap="square"></path>
                <path d="M342.749108,113.184579 L310.865725,113.184579" id="Shape" stroke="#FFFFFF" stroke-linecap="square"></path>
                <path d="M154.157174,191.089204 L154.157174,142.014519" id="Shape" stroke="#FFFFFF" stroke-linecap="square"></path>
                <path d="M310.865725,196.307245 L310.865725,229.43501" id="Shape" stroke="#FFFFFF" stroke-linecap="square"></path>
                <path d="M342.749108,48.4662273 L310.865725,48.4662273" id="Shape" stroke="#FFFFFF" stroke-linecap="square"></path>
                <path d="M192.116072,136.796477 L192.116072,142.014519" id="Shape" stroke="#FFFFFF" stroke-linecap="square"></path>
                <path d="M138.36711,191.089204 L138.36711,142.014519" id="Shape" stroke="#FFFFFF" stroke-linecap="square"></path>
                <path d="M62.2924594,38.1138006 L48.8656758,28.2005679" id="Shape" stroke="#FFFFFF" stroke-width="0.5" stroke-linecap="round" stroke-linejoin="round"></path>
                <path d="M59.6363823,17.7644853 C57.8765573,15.4179338 54.918307,14.301009 52.0467601,14.8989275 C49.1752132,15.496846 46.9086284,17.701695 46.2316597,20.5556399 C45.5546911,23.4095848 46.5895183,26.3975437 48.8865898,28.2214819" id="Shape" stroke="#FFFFFF" stroke-width="0.5" stroke-linecap="round"></path>
                <path d="M62.3238304,38.1242576 C64.2724508,39.4687554 66.9019675,39.236646 68.5849319,37.5715855 C70.2678963,35.906525 70.5281148,33.279641 69.2045342,31.3167529" id="Shape" stroke="#FFFFFF" stroke-width="0.5" stroke-linecap="round" stroke-linejoin="round"></path>
                <path d="M69.2463622,31.3899518 L59.6259253,17.7540283" id="Shape" stroke="#FFFFFF" stroke-width="0.5" stroke-linecap="round"></path>
                <path d="M79.7556437,133.732577 C79.6938486,135.88149 80.4950766,137.965674 81.9804431,139.519807 C83.4658095,141.073941 85.5116246,141.968608 87.6611332,142.004062" id="Shape" stroke="#FFFFFF" stroke-linecap="round"></path>
                <path d="M84.6181472,133.690749 C84.5592648,135.284643 85.7410811,136.653543 87.3265093,136.827848" id="Shape" stroke="#FFFFFF" stroke-linecap="round"></path>
            </g>
        </g>
    </g>
</svg>