<svg width="2036" height="231" viewBox="0 0 2036 231" xmlns="http://www.w3.org/2000/svg" xmlns:xlink="http://www.w3.org/1999/xlink"><title>Group 18</title><desc>Created with Sketch.</desc><defs><path d="M329.694 176.736c1.052 0 1.863.696 1.863 1.913 0 1.226-.795 1.946-2.029 1.946-1.408 0-2.153-.911-2.153-2.874 0-2.054.795-3.122 2.178-3.122 1.052 0 1.706.629 1.797 1.598l-.704.05c-.058-.605-.439-1.052-1.093-1.052-.547 0-.961.315-1.201.911-.166.414-.232.878-.24 1.582.273-.613.87-.952 1.582-.952zm-.166 3.263c.779 0 1.3-.53 1.3-1.35 0-.812-.522-1.342-1.3-1.342-.779 0-1.292.53-1.292 1.342 0 .82.513 1.35 1.292 1.35zm2.758-2.402c0-1.847.762-2.998 2.128-2.998 1.367 0 2.12 1.151 2.12 2.998 0 1.847-.754 2.998-2.12 2.998-1.367 0-2.128-1.151-2.128-2.998zm.729 0c0 1.491.513 2.402 1.4 2.402.878 0 1.391-.911 1.391-2.402s-.513-2.402-1.391-2.402c-.886 0-1.4.911-1.4 2.402zm4.331 0c0-1.847.762-2.998 2.128-2.998 1.367 0 2.12 1.151 2.12 2.998 0 1.847-.754 2.998-2.12 2.998-1.367 0-2.128-1.151-2.128-2.998zm.729 0c0 1.491.513 2.402 1.4 2.402.878 0 1.391-.911 1.391-2.402s-.513-2.402-1.391-2.402c-.886 0-1.4.911-1.4 2.402z" id="a"/><path d="M54.236 174.699h3.917v.513c-1.093 1.714-1.847 3.487-2.228 5.284h-.787c.381-1.731 1.184-3.52 2.302-5.201h-3.205v-.596zm4.547 2.899c0-1.847.762-2.998 2.128-2.998 1.367 0 2.12 1.151 2.12 2.998 0 1.847-.754 2.998-2.12 2.998-1.367 0-2.128-1.151-2.128-2.998zm.729 0c0 1.491.513 2.402 1.4 2.402.878 0 1.391-.911 1.391-2.402s-.513-2.402-1.391-2.402c-.886 0-1.4.911-1.4 2.402zm4.331 0c0-1.847.762-2.998 2.128-2.998 1.367 0 2.12 1.151 2.12 2.998 0 1.847-.754 2.998-2.12 2.998-1.367 0-2.128-1.151-2.128-2.998zm.729 0c0 1.491.513 2.402 1.4 2.402.878 0 1.391-.911 1.391-2.402s-.513-2.402-1.391-2.402c-.886 0-1.4.911-1.4 2.402z" id="b"/><path d="M354.082 135.084h.574v5.739h-.721v-4.903l-1.213.844v-.721l1.361-.959zm1.877 2.869c0-1.828.754-2.968 2.107-2.968 1.353 0 2.099 1.14 2.099 2.968s-.746 2.968-2.099 2.968c-1.353 0-2.107-1.14-2.107-2.968zm.721 0c0 1.476.508 2.378 1.386 2.378.869 0 1.377-.902 1.377-2.378s-.508-2.378-1.377-2.378c-.877 0-1.386.902-1.386 2.378zm4.288 0c0-1.828.754-2.968 2.107-2.968 1.353 0 2.099 1.14 2.099 2.968s-.746 2.968-2.099 2.968c-1.353 0-2.107-1.14-2.107-2.968zm.721 0c0 1.476.508 2.378 1.386 2.378.869 0 1.377-.902 1.377-2.378s-.508-2.378-1.377-2.378c-.877 0-1.386.902-1.386 2.378zm4.288 0c0-1.828.754-2.968 2.107-2.968 1.353 0 2.099 1.14 2.099 2.968s-.746 2.968-2.099 2.968c-1.353 0-2.107-1.14-2.107-2.968zm.721 0c0 1.476.508 2.378 1.386 2.378.869 0 1.377-.902 1.377-2.378s-.508-2.378-1.377-2.378c-.877 0-1.386.902-1.386 2.378z" id="c"/><path d="M353.591 52.473h.574v5.739h-.721v-4.903l-1.213.844v-.721l1.361-.959zm4.64 2.746c.812.197 1.32.721 1.32 1.492 0 1.041-.926 1.599-2.082 1.599-1.148 0-2.082-.557-2.082-1.599 0-.771.525-1.304 1.345-1.492-.738-.172-1.205-.615-1.205-1.361 0-.992.885-1.484 1.943-1.484 1.066 0 1.951.492 1.951 1.484 0 .738-.459 1.189-1.189 1.361zm-2-1.271c0 .672.516 1.017 1.238 1.017.721 0 1.238-.344 1.238-1.017 0-.664-.516-1-1.238-1-.721 0-1.238.336-1.238 1zm1.238 3.788c.787 0 1.377-.385 1.377-1.107 0-.721-.59-1.107-1.377-1.107-.779 0-1.377.385-1.377 1.107 0 .721.598 1.107 1.377 1.107zm2.804-2.394c0-1.828.754-2.968 2.107-2.968 1.353 0 2.099 1.14 2.099 2.968s-.746 2.968-2.099 2.968c-1.353 0-2.107-1.14-2.107-2.968zm.721 0c0 1.476.508 2.378 1.386 2.378.869 0 1.377-.902 1.377-2.378s-.508-2.378-1.377-2.378c-.877 0-1.386.902-1.386 2.378zm4.288 0c0-1.828.754-2.968 2.107-2.968 1.353 0 2.099 1.14 2.099 2.968s-.746 2.968-2.099 2.968c-1.353 0-2.107-1.14-2.107-2.968zm.721 0c0 1.476.508 2.378 1.386 2.378.869 0 1.377-.902 1.377-2.378s-.508-2.378-1.377-2.378c-.877 0-1.386.902-1.386 2.378z" id="d"/><path d="M280.179 174.699h.58v5.797h-.729v-4.953l-1.226.853v-.729l1.375-.969zm1.897 2.899c0-1.847.762-2.998 2.128-2.998 1.367 0 2.12 1.151 2.12 2.998 0 1.847-.754 2.998-2.12 2.998-1.367 0-2.128-1.151-2.128-2.998zm.729 0c0 1.491.513 2.402 1.4 2.402.878 0 1.391-.911 1.391-2.402s-.513-2.402-1.391-2.402c-.886 0-1.4.911-1.4 2.402zm4.331 0c0-1.847.762-2.998 2.128-2.998 1.367 0 2.12 1.151 2.12 2.998 0 1.847-.754 2.998-2.12 2.998-1.367 0-2.128-1.151-2.128-2.998zm.729 0c0 1.491.513 2.402 1.4 2.402.878 0 1.391-.911 1.391-2.402s-.513-2.402-1.391-2.402c-.886 0-1.4.911-1.4 2.402zm4.331 0c0-1.847.762-2.998 2.128-2.998 1.367 0 2.12 1.151 2.12 2.998 0 1.847-.754 2.998-2.12 2.998-1.367 0-2.128-1.151-2.128-2.998zm.729 0c0 1.491.513 2.402 1.4 2.402.878 0 1.391-.911 1.391-2.402s-.513-2.402-1.391-2.402c-.886 0-1.4.911-1.4 2.402z" id="e"/><path d="M163.97 177.432c.364.29.547.745.547 1.309 0 1.209-.878 1.855-2.054 1.855-1.085 0-1.897-.547-2.013-1.731l.704-.05c.091.845.613 1.184 1.309 1.184.77 0 1.325-.447 1.325-1.259 0-.704-.422-1.209-1.3-1.209-.207 0-.497.025-.836.099v-.513l1.772-1.822h-2.708v-.596h3.652v.538l-1.872 1.797c.563-.017 1.101.083 1.474.398zm1.242.166c0-1.847.762-2.998 2.128-2.998 1.367 0 2.12 1.151 2.12 2.998 0 1.847-.754 2.998-2.12 2.998-1.367 0-2.128-1.151-2.128-2.998zm.729 0c0 1.491.513 2.402 1.4 2.402.878 0 1.391-.911 1.391-2.402s-.513-2.402-1.391-2.402c-.886 0-1.4.911-1.4 2.402zm4.331 0c0-1.847.762-2.998 2.128-2.998 1.367 0 2.12 1.151 2.12 2.998 0 1.847-.754 2.998-2.12 2.998-1.367 0-2.128-1.151-2.128-2.998zm.729 0c0 1.491.513 2.402 1.4 2.402.878 0 1.391-.911 1.391-2.402s-.513-2.402-1.391-2.402c-.886 0-1.4.911-1.4 2.402zm4.331 0c0-1.847.762-2.998 2.128-2.998 1.367 0 2.12 1.151 2.12 2.998 0 1.847-.754 2.998-2.12 2.998-1.367 0-2.128-1.151-2.128-2.998zm.729 0c0 1.491.513 2.402 1.4 2.402.878 0 1.391-.911 1.391-2.402s-.513-2.402-1.391-2.402c-.886 0-1.4.911-1.4 2.402z" id="f"/><path d="M13.224 174.699h3.917v.513c-1.093 1.714-1.847 3.487-2.228 5.284h-.787c.381-1.731 1.184-3.52 2.302-5.201h-3.205v-.596zm4.547 2.899c0-1.847.762-2.998 2.128-2.998 1.367 0 2.12 1.151 2.12 2.998 0 1.847-.754 2.998-2.12 2.998-1.367 0-2.128-1.151-2.128-2.998zm.729 0c0 1.491.513 2.402 1.4 2.402.878 0 1.391-.911 1.391-2.402s-.513-2.402-1.391-2.402c-.886 0-1.4.911-1.4 2.402zm4.331 0c0-1.847.762-2.998 2.128-2.998 1.367 0 2.12 1.151 2.12 2.998 0 1.847-.754 2.998-2.12 2.998-1.367 0-2.128-1.151-2.128-2.998zm.729 0c0 1.491.513 2.402 1.4 2.402.878 0 1.391-.911 1.391-2.402s-.513-2.402-1.391-2.402c-.886 0-1.4.911-1.4 2.402z" id="g"/><path d="M308.504 141.431h.574v5.739h-.721v-4.903l-1.213.844v-.721l1.361-.959zm4.64 2.746c.812.197 1.32.721 1.32 1.492 0 1.041-.926 1.599-2.082 1.599-1.148 0-2.082-.557-2.082-1.599 0-.771.525-1.304 1.345-1.492-.738-.172-1.205-.615-1.205-1.361 0-.992.885-1.484 1.943-1.484 1.066 0 1.951.492 1.951 1.484 0 .738-.459 1.189-1.189 1.361zm-2-1.271c0 .672.516 1.017 1.238 1.017.721 0 1.238-.344 1.238-1.017 0-.664-.516-1-1.238-1-.721 0-1.238.336-1.238 1zm1.238 3.788c.787 0 1.377-.385 1.377-1.107 0-.721-.59-1.107-1.377-1.107-.779 0-1.377.385-1.377 1.107 0 .721.598 1.107 1.377 1.107zm2.804-2.394c0-1.828.754-2.968 2.107-2.968 1.353 0 2.099 1.14 2.099 2.968s-.746 2.968-2.099 2.968c-1.353 0-2.107-1.14-2.107-2.968zm.721 0c0 1.476.508 2.378 1.386 2.378.869 0 1.377-.902 1.377-2.378s-.508-2.378-1.377-2.378c-.877 0-1.386.902-1.386 2.378zm4.288 0c0-1.828.754-2.968 2.107-2.968 1.353 0 2.099 1.14 2.099 2.968s-.746 2.968-2.099 2.968c-1.353 0-2.107-1.14-2.107-2.968zm.721 0c0 1.476.508 2.378 1.386 2.378.869 0 1.377-.902 1.377-2.378s-.508-2.378-1.377-2.378c-.877 0-1.386.902-1.386 2.378z" id="h"/><path d="M41.116 215.879h3.917v.513c-1.093 1.714-1.847 3.487-2.228 5.284h-.787c.381-1.731 1.184-3.52 2.302-5.201h-3.205v-.596zm4.547 2.899c0-1.847.762-2.998 2.128-2.998 1.367 0 2.12 1.151 2.12 2.998 0 1.847-.754 2.998-2.12 2.998-1.367 0-2.128-1.151-2.128-2.998zm.729 0c0 1.491.513 2.402 1.4 2.402.878 0 1.391-.911 1.391-2.402s-.513-2.402-1.391-2.402c-.886 0-1.4.911-1.4 2.402zm4.331 0c0-1.847.762-2.998 2.128-2.998 1.367 0 2.12 1.151 2.12 2.998 0 1.847-.754 2.998-2.12 2.998-1.367 0-2.128-1.151-2.128-2.998zm.729 0c0 1.491.513 2.402 1.4 2.402.878 0 1.391-.911 1.391-2.402s-.513-2.402-1.391-2.402c-.886 0-1.4.911-1.4 2.402z" id="i"/><path d="M309.058 57.775h.574v5.739h-.721v-4.903l-1.213.844v-.721l1.361-.959zm1.877 2.869c0-1.828.754-2.968 2.107-2.968 1.353 0 2.099 1.14 2.099 2.968s-.746 2.968-2.099 2.968c-1.353 0-2.107-1.14-2.107-2.968zm.721 0c0 1.476.508 2.378 1.386 2.378.869 0 1.377-.902 1.377-2.378s-.508-2.378-1.377-2.378c-.877 0-1.386.902-1.386 2.378zm4.288 0c0-1.828.754-2.968 2.107-2.968 1.353 0 2.099 1.14 2.099 2.968s-.746 2.968-2.099 2.968c-1.353 0-2.107-1.14-2.107-2.968zm.721 0c0 1.476.508 2.378 1.386 2.378.869 0 1.377-.902 1.377-2.378s-.508-2.378-1.377-2.378c-.877 0-1.386.902-1.386 2.378zm4.288 0c0-1.828.754-2.968 2.107-2.968 1.353 0 2.099 1.14 2.099 2.968s-.746 2.968-2.099 2.968c-1.353 0-2.107-1.14-2.107-2.968zm.721 0c0 1.476.508 2.378 1.386 2.378.869 0 1.377-.902 1.377-2.378s-.508-2.378-1.377-2.378c-.877 0-1.386.902-1.386 2.378z" id="j"/><path d="M180.43 219.721h.878v.596h-.878v1.358h-.729v-1.358h-2.882v-.547l2.418-3.893h1.193v3.843zm-2.89 0h2.162v-3.445l-2.162 3.445zm4.331-.944c0-1.847.762-2.998 2.128-2.998 1.367 0 2.12 1.151 2.12 2.998 0 1.847-.754 2.998-2.12 2.998-1.367 0-2.128-1.151-2.128-2.998zm.729 0c0 1.491.513 2.402 1.4 2.402.878 0 1.391-.911 1.391-2.402s-.513-2.402-1.391-2.402c-.886 0-1.4.911-1.4 2.402zm4.331 0c0-1.847.762-2.998 2.128-2.998 1.367 0 2.12 1.151 2.12 2.998 0 1.847-.754 2.998-2.12 2.998-1.367 0-2.128-1.151-2.128-2.998zm.729 0c0 1.491.513 2.402 1.4 2.402.878 0 1.391-.911 1.391-2.402s-.513-2.402-1.391-2.402c-.886 0-1.4.911-1.4 2.402zm4.331 0c0-1.847.762-2.998 2.128-2.998 1.367 0 2.12 1.151 2.12 2.998 0 1.847-.754 2.998-2.12 2.998-1.367 0-2.128-1.151-2.128-2.998zm.729 0c0 1.491.513 2.402 1.4 2.402.878 0 1.391-.911 1.391-2.402s-.513-2.402-1.391-2.402c-.886 0-1.4.911-1.4 2.402z" id="k"/><path d="M339.443 164.447h.574v5.739h-.721v-4.903l-1.213.844v-.721l1.361-.959zm1.877 2.869c0-1.828.754-2.968 2.107-2.968 1.353 0 2.099 1.14 2.099 2.968s-.746 2.968-2.099 2.968c-1.353 0-2.107-1.14-2.107-2.968zm.721 0c0 1.476.508 2.378 1.386 2.378.869 0 1.377-.902 1.377-2.378s-.508-2.378-1.377-2.378c-.877 0-1.386.902-1.386 2.378zm4.288 0c0-1.828.754-2.968 2.107-2.968 1.353 0 2.099 1.14 2.099 2.968s-.746 2.968-2.099 2.968c-1.353 0-2.107-1.14-2.107-2.968zm.721 0c0 1.476.508 2.378 1.386 2.378.869 0 1.377-.902 1.377-2.378s-.508-2.378-1.377-2.378c-.877 0-1.386.902-1.386 2.378zm4.288 0c0-1.828.754-2.968 2.107-2.968 1.353 0 2.099 1.14 2.099 2.968s-.746 2.968-2.099 2.968c-1.353 0-2.107-1.14-2.107-2.968zm.721 0c0 1.476.508 2.378 1.386 2.378.869 0 1.377-.902 1.377-2.378s-.508-2.378-1.377-2.378c-.877 0-1.386.902-1.386 2.378z" id="l"/><path d="M338.951 81.837h.574v5.739h-.721v-4.903l-1.213.844v-.721l1.361-.959zm4.64 2.746c.812.197 1.32.721 1.32 1.492 0 1.041-.926 1.599-2.082 1.599-1.148 0-2.082-.557-2.082-1.599 0-.771.525-1.304 1.345-1.492-.738-.172-1.205-.615-1.205-1.361 0-.992.885-1.484 1.943-1.484 1.066 0 1.951.492 1.951 1.484 0 .738-.459 1.189-1.189 1.361zm-2-1.271c0 .672.516 1.017 1.238 1.017.721 0 1.238-.344 1.238-1.017 0-.664-.516-1-1.238-1-.721 0-1.238.336-1.238 1zm1.238 3.788c.787 0 1.377-.385 1.377-1.107 0-.721-.59-1.107-1.377-1.107-.779 0-1.377.385-1.377 1.107 0 .721.598 1.107 1.377 1.107zm2.804-2.394c0-1.828.754-2.968 2.107-2.968 1.353 0 2.099 1.14 2.099 2.968s-.746 2.968-2.099 2.968c-1.353 0-2.107-1.14-2.107-2.968zm.721 0c0 1.476.508 2.378 1.386 2.378.869 0 1.377-.902 1.377-2.378s-.508-2.378-1.377-2.378c-.877 0-1.386.902-1.386 2.378zm4.288 0c0-1.828.754-2.968 2.107-2.968 1.353 0 2.099 1.14 2.099 2.968s-.746 2.968-2.099 2.968c-1.353 0-2.107-1.14-2.107-2.968zm.721 0c0 1.476.508 2.378 1.386 2.378.869 0 1.377-.902 1.377-2.378s-.508-2.378-1.377-2.378c-.877 0-1.386.902-1.386 2.378z" id="m"/><path d="M48.756 215.879h3.917v.513c-1.093 1.714-1.847 3.487-2.228 5.284h-.787c.381-1.731 1.184-3.52 2.302-5.201h-3.205v-.596zm4.547 2.899c0-1.847.762-2.998 2.128-2.998 1.367 0 2.12 1.151 2.12 2.998 0 1.847-.754 2.998-2.12 2.998-1.367 0-2.128-1.151-2.128-2.998zm.729 0c0 1.491.513 2.402 1.4 2.402.878 0 1.391-.911 1.391-2.402s-.513-2.402-1.391-2.402c-.886 0-1.4.911-1.4 2.402zm4.331 0c0-1.847.762-2.998 2.128-2.998 1.367 0 2.12 1.151 2.12 2.998 0 1.847-.754 2.998-2.12 2.998-1.367 0-2.128-1.151-2.128-2.998zm.729 0c0 1.491.513 2.402 1.4 2.402.878 0 1.391-.911 1.391-2.402s-.513-2.402-1.391-2.402c-.886 0-1.4.911-1.4 2.402z" id="n"/><path d="M187.025 219.721h.878v.596h-.878v1.358h-.729v-1.358h-2.882v-.547l2.418-3.893h1.193v3.843zm-2.89 0h2.162v-3.445l-2.162 3.445zm4.331-.944c0-1.847.762-2.998 2.128-2.998 1.367 0 2.12 1.151 2.12 2.998 0 1.847-.754 2.998-2.12 2.998-1.367 0-2.128-1.151-2.128-2.998zm.729 0c0 1.491.513 2.402 1.4 2.402.878 0 1.391-.911 1.391-2.402s-.513-2.402-1.391-2.402c-.886 0-1.4.911-1.4 2.402zm4.331 0c0-1.847.762-2.998 2.128-2.998 1.367 0 2.12 1.151 2.12 2.998 0 1.847-.754 2.998-2.12 2.998-1.367 0-2.128-1.151-2.128-2.998zm.729 0c0 1.491.513 2.402 1.4 2.402.878 0 1.391-.911 1.391-2.402s-.513-2.402-1.391-2.402c-.886 0-1.4.911-1.4 2.402zm4.331 0c0-1.847.762-2.998 2.128-2.998 1.367 0 2.12 1.151 2.12 2.998 0 1.847-.754 2.998-2.12 2.998-1.367 0-2.128-1.151-2.128-2.998zm.729 0c0 1.491.513 2.402 1.4 2.402.878 0 1.391-.911 1.391-2.402s-.513-2.402-1.391-2.402c-.886 0-1.4.911-1.4 2.402z" id="o"/></defs><g fill="none"><g><path id="Shape" stroke="#fff" stroke-linecap="square" d="M1169.576 88.419l-28.548 15.027-1.213-.607v2.144l-1.213-.303-28.851 14.723M1155.909 197.308v10.426M1120.69 197.308v10.426"/><path d="M1150.147 207.733h-5.166M1126.755 207.733h5.166" id="Shape" stroke="#fff" stroke-width=".5" stroke-linecap="square"/><path id="Shape" fill="#fff" d="M1150.147 206.813v2.144l5.762-1.223z"/><path id="Shape" fill="#fff" fill-rule="nonzero" d="M1150.147 206.813v2.144l5.762-1.223-5.762-.92z"/><path id="Shape" fill="#fff" d="M1126.755 206.813v2.144l-6.065-1.223z"/><g id="600" fill="#fff" transform="translate(1 1) translate(802.581 29.28)"><use xlink:href="#a"/><use xlink:href="#a"/></g><path id="Shape" fill="#fff" fill-rule="nonzero" d="M1126.755 206.813v2.144l-6.065-1.223 6.065-.92z"/><path d="M886.233 197.308v10.426M844.939 197.308v10.426" id="Shape" stroke="#fff" stroke-linecap="square"/><path d="M880.168 207.733h-8.209M851.014 207.733h8.198" id="Shape" stroke="#fff" stroke-width=".5" stroke-linecap="square"/><path id="Shape" fill="#fff" d="M880.168 206.813v2.144l6.076-1.223z"/><path id="Shape" fill="#fff" fill-rule="nonzero" d="M880.168 206.813v2.144l6.076-1.223-6.076-.92z"/><path id="Shape" fill="#fff" d="M851.014 206.813v2.144l-6.076-1.223z"/><g id="700" fill="#fff" transform="translate(1 1) translate(802.581 29.28)"><use xlink:href="#b"/><use xlink:href="#b"/></g><path id="Shape" fill="#fff" fill-rule="nonzero" d="M851.014 206.813v2.144l-6.076-1.223 6.076-.92z"/><path d="M1155.909 137.797h10.332M1155.909 197.308h10.332" id="Shape" stroke="#fff" stroke-linecap="square"/><path d="M1166.24 143.632v15.33M1166.24 191.169v-15.027" id="Shape" stroke="#fff" stroke-width=".5" stroke-linecap="square"/><path id="Shape" fill="#fff" d="M1165.33 143.632h1.82l-.91-5.835z"/><path id="Shape" fill="#fff" fill-rule="nonzero" d="M1165.33 143.632h1.82l-.91-5.835-.91 5.835z"/><path id="Shape" fill="#fff" d="M1165.33 191.169h1.82l-.91 6.138z"/><g id="1000" transform="matrix(0 -1 1 0 803.581 30.28)" fill="#fff"><use xlink:href="#c"/><use xlink:href="#c"/></g><path id="Shape" fill="#fff" fill-rule="nonzero" d="M1165.33 191.169h1.82l-.91 6.138-.91-6.138z"/><path d="M1155.909 137.797h10.332M1155.909 31.062h10.332" id="Shape" stroke="#fff" stroke-linecap="square"/><path d="M1166.24 131.972v-38.952M1166.24 36.887v38.952" id="Shape" stroke="#fff" stroke-width=".5" stroke-linecap="square"/><path id="Shape" fill="#fff" d="M1165.33 131.972h1.82l-.91 5.825z"/><path id="Shape" fill="#fff" fill-rule="nonzero" d="M1165.33 131.972h1.82l-.91 5.825-.91-5.825z"/><path id="Shape" fill="#fff" d="M1165.33 36.887h1.82l-.91-5.825z"/><g id="1800" transform="matrix(0 -1 1 0 803.581 30.28)" fill="#fff"><use xlink:href="#d"/><use xlink:href="#d"/></g><path id="Shape" fill="#fff" fill-rule="nonzero" d="M1165.33 36.887h1.82l-.91-5.825-.91 5.825z"/><path d="M1120.69 197.308v10.426M1062.078 197.308v10.426" id="Shape" stroke="#fff" stroke-linecap="square"/><path d="M1114.917 207.733h-14.88M1068.143 207.733h14.88" id="Shape" stroke="#fff" stroke-width=".5" stroke-linecap="square"/><path id="Shape" fill="#fff" d="M1114.917 206.813v2.144l5.772-1.223z"/><path id="Shape" fill="#fff" fill-rule="nonzero" d="M1114.917 206.813v2.144l5.772-1.223-5.772-.92z"/><path id="Shape" fill="#fff" d="M1068.143 206.813v2.144l-6.065-1.223z"/><g id="1000" fill="#fff" transform="translate(1 1) translate(802.581 29.28)"><use xlink:href="#e"/><use xlink:href="#e"/></g><path id="Shape" fill="#fff" fill-rule="nonzero" d="M1068.143 206.813v2.144l-6.065-1.223 6.065-.92z"/><path d="M1062.078 197.308v10.426M886.233 197.308v10.426" id="Shape" stroke="#fff" stroke-linecap="square"/><path d="M1056.306 207.733h-73.492M892.005 207.733h73.492" id="Shape" stroke="#fff" stroke-width=".5" stroke-linecap="square"/><path id="Shape" fill="#fff" d="M1056.306 206.813v2.144l5.772-1.223z"/><path id="Shape" fill="#fff" fill-rule="nonzero" d="M1056.306 206.813v2.144l5.772-1.223-5.772-.92z"/><path id="Shape" fill="#fff" d="M892.005 206.813v2.144l-5.762-1.223z"/><g fill="#fff" transform="translate(1 1) translate(802.581 29.28)"><use xlink:href="#f"/><use xlink:href="#f"/></g><path id="Shape" fill="#fff" fill-rule="nonzero" d="M892.005 206.813v2.144l-5.762-1.223 5.762-.92z"/><path d="M844.939 197.308v10.426M803.937 197.308v10.426" id="Shape" stroke="#fff" stroke-linecap="square"/><path d="M839.166 207.733h-8.198M809.709 207.733h8.198" id="Shape" stroke="#fff" stroke-width=".5" stroke-linecap="square"/><path id="Shape" fill="#fff" d="M839.166 206.813v2.144l5.772-1.223z"/><path id="Shape" fill="#fff" fill-rule="nonzero" d="M839.166 206.813v2.144l5.772-1.223-5.772-.92z"/><path id="Shape" fill="#fff" d="M809.709 206.813v2.144l-5.772-1.223z"/><g id="700" fill="#fff" transform="translate(1 1) translate(802.581 29.28)"><use xlink:href="#g"/><use xlink:href="#g"/></g><path id="Shape" fill="#fff" fill-rule="nonzero" d="M809.709 206.813v2.144l-5.772-1.223 5.772-.92z"/><path id="Shape" stroke="#fff" stroke-width=".5" stroke-linecap="square" d="M1103.373 49.467h-8.502v32.208"/><path d="M1062.078 143.015h44.034M1107.932 49.467v32.208M1042.639 192.09v-49.075M1120.69 107.743h11.837M803.937 192.09v-111.032" id="Shape" stroke="#fff" stroke-linecap="square"/><path id="Shape" stroke="#fff" stroke-width=".5" stroke-linecap="square" d="M1057.216 96.701l-5.166.303-5.155 1.234-4.863 1.84-4.559 2.447-4.246 3.378-3.649 3.681-3.336 4.298-2.436 4.591-1.82 4.915-1.213 5.208-.303 5.218M1082.114 65.717h51.626v41.41l-2.426-4.601"/><path d="M1058.125 192.09v-49.075" id="Shape" stroke="#fff" stroke-linecap="square"/><path id="Shape" stroke="#fff" stroke-width=".5" stroke-linecap="square" d="M1062.078 81.674h58.611v31.894"/><path d="M850.104 73.695v-21.782M1057.216 133.813h-37.049M1120.69 81.674h30.367M1082.114 65.717v15.957M1106.112 143.015v35.888M1026.545 192.09v-49.075" id="Shape" stroke="#fff" stroke-linecap="square"/><path id="Shape" stroke="#fff" stroke-linecap="square" d="M803.937 197.308h351.972v-166.245h-310.97v13.49h-41.002v36.505h46.157v-7.362h-4.549v2.457h-36.746v-26.686h36.746v2.447h4.549v-15.947h36.15v13.5h17.61v-13.5h153.362v60.431h4.863v-60.431h41.295v13.5h17.317v-13.5h30.367v156.123h-30.367v-13.186h-17.317v13.186h-199.519v-13.186h-17.61v13.186h-82.307v5.218zM1120.69 94.86h30.367M845.545 51.914v21.782M1074.522 192.09v-49.075M1120.69 49.467v32.208"/><path id="Shape" stroke="#fff" stroke-linecap="square" d="M1062.078 133.813v9.202h-49.807v49.075h-4.863v-54.293h49.807v-3.984h4.863zM1089.099 192.09v-49.075"/><path d="M837.598 67.84l-16.501 2.478" id="Shape" stroke="#fff" stroke-width=".5" stroke-linecap="round" stroke-linejoin="round"/><path d="M821.337 55.323c-2.911-.432-5.808.864-7.426 3.322-1.618 2.458-1.662 5.632-.114 8.135 1.549 2.503 4.409 3.879 7.33 3.528" id="Shape" stroke="#fff" stroke-width=".5" stroke-linecap="round"/><path d="M837.629 67.819c2.331-.435 4.021-2.47 4.021-4.842 0-2.372-1.69-4.406-4.021-4.842" id="Shape" stroke="#fff" stroke-width=".5" stroke-linecap="round" stroke-linejoin="round"/><path d="M837.765 58.156l-16.449-2.834" id="Shape" stroke="#fff" stroke-width=".5" stroke-linecap="round"/></g><g><path d="M1569.467 197.203v11.649M1534.238 197.203v11.649" id="Shape" stroke="#fff" stroke-linecap="square"/><path d="M1563.392 208.852h-5.155M1540.01 208.852h5.166" id="Shape" stroke="#fff" stroke-width=".5" stroke-linecap="square"/><path id="Shape" fill="#fff" d="M1563.392 207.932v1.84l6.076-.92z"/><path id="Shape" fill="#fff" fill-rule="nonzero" d="M1563.392 207.932v1.84l6.076-.92-6.076-.92z"/><path id="Shape" fill="#fff" d="M1540.01 207.932v1.84l-5.772-.92z"/><text id="600" fill="#fff" font-family="RFDewi-Regular, RF Dewi" font-size="7.92" transform="translate(1 1) translate(1251.16 29.28)"><tspan x="291.646" y="181.218">600</tspan></text><path id="Shape" fill="#fff" fill-rule="nonzero" d="M1540.01 207.932v1.84l-5.772-.92 5.772-.92z"/><path d="M1604.697 197.203v11.649M1569.467 197.203v11.649" id="Shape" stroke="#fff" stroke-linecap="square"/><path d="M1598.621 208.852h-5.166M1575.239 208.852h5.166" id="Shape" stroke="#fff" stroke-width=".5" stroke-linecap="square"/><path id="Shape" fill="#fff" d="M1598.621 207.932v1.84l6.076-.92z"/><path id="Shape" fill="#fff" fill-rule="nonzero" d="M1598.621 207.932v1.84l6.076-.92-6.076-.92z"/><path id="Shape" fill="#fff" d="M1575.239 207.932v1.84l-5.772-.92z"/><text id="600" fill="#fff" font-family="RFDewi-Regular, RF Dewi" font-size="7.92" transform="translate(1 1) translate(1251.16 29.28)"><tspan x="327.597" y="181.218">600</tspan></text><path id="Shape" fill="#fff" fill-rule="nonzero" d="M1575.239 207.932v1.84l-5.772-.92 5.772-.92z"/><path d="M1534.238 197.203v11.649M1334.718 197.203v11.649" id="Shape" stroke="#fff" stroke-linecap="square"/><path d="M1528.162 208.852h-85.026M1340.49 208.852h85.026" id="Shape" stroke="#fff" stroke-width=".5" stroke-linecap="square"/><path id="Shape" fill="#fff" d="M1528.173 207.932v1.84l6.065-.92z"/><path id="Shape" fill="#fff" fill-rule="nonzero" d="M1528.173 207.932v1.84l6.065-.92-6.065-.92z"/><path id="Shape" fill="#fff" d="M1340.49 207.932v1.84l-5.772-.92z"/><text fill="#fff" font-family="RFDewi-Regular, RF Dewi" font-size="7.92" transform="translate(1 1) translate(1251.16 29.28)"><tspan x="172.028" y="181.218">3400</tspan></text><path id="Shape" fill="#fff" fill-rule="nonzero" d="M1340.49 207.932v1.84l-5.772-.92 5.772-.92z"/><path d="M1334.718 197.203v11.649M1293.413 197.203v11.649" id="Shape" stroke="#fff" stroke-linecap="square"/><path d="M1328.643 208.852h-8.198M1299.488 208.852h8.198" id="Shape" stroke="#fff" stroke-width=".5" stroke-linecap="square"/><path id="Shape" fill="#fff" d="M1328.643 207.932v1.84l6.076-.92z"/><path id="Shape" fill="#fff" fill-rule="nonzero" d="M1328.643 207.932v1.84l6.076-.92-6.076-.92z"/><path id="Shape" fill="#fff" d="M1299.488 207.932v1.84l-6.076-.92z"/><text id="700" fill="#fff" font-family="RFDewi-Regular, RF Dewi" font-size="7.92" transform="translate(1 1) translate(1251.16 29.28)"><tspan x="53.895" y="181.218">700</tspan></text><path id="Shape" fill="#fff" fill-rule="nonzero" d="M1299.488 207.932v1.84l-6.076-.92 6.076-.92z"/><path id="Shape" stroke="#fff" stroke-linecap="square" d="M1617.151 89.538l-28.244 14.42-1.213-.617v2.144l-1.213-.303-28.244 14.42M1293.413 197.203v11.649M1252.422 197.203v11.649"/><path d="M1287.651 208.852h-8.209M1258.183 208.852h8.512" id="Shape" stroke="#fff" stroke-width=".5" stroke-linecap="square"/><path id="Shape" fill="#fff" d="M1287.651 207.932v1.84l5.762-.92z"/><path id="Shape" fill="#fff" fill-rule="nonzero" d="M1287.651 207.932v1.84l5.762-.92-5.762-.92z"/><path id="Shape" fill="#fff" d="M1258.194 207.932v1.84l-5.772-.92z"/><text id="700" fill="#fff" font-family="RFDewi-Regular, RF Dewi" font-size="7.92" transform="translate(1 1) translate(1251.16 29.28)"><tspan x="12.883" y="181.218">700</tspan></text><path id="Shape" fill="#fff" fill-rule="nonzero" d="M1258.194 207.932v1.84l-5.772-.92 5.772-.92z"/><path d="M1556.406 76.038v-25.149" id="Shape" stroke="#fff" stroke-linecap="square"/><path id="Shape" stroke="#fff" stroke-width=".5" stroke-linecap="square" d="M1553.677 107.639v-42.633h29.154v42.016l-2.123-4.298M1534.238 146.288l-5.155.303-5.166 1.223-4.863 1.84-4.549 2.457-4.256 3.378-3.639 3.681-3.346 4.287-2.426 4.601-1.82 4.915-1.223 5.208-.303 5.218"/><path d="M1569.467 50.889v62.878M1569.467 76.038h-13.061M1569.467 108.559h10.332M1534.238 183.4h-37.049M1569.467 87.697h-30.367M1569.467 95.362h30.064" id="Shape" stroke="#fff" stroke-linecap="square"/><path id="Shape" stroke="#fff" stroke-linecap="square" d="M1604.697 30.958v166.245h-352.275v-4.915h82.297v-13.49h17.61v13.49h181.91v-8.888h4.863v8.888h12.758v-13.49h17.61v13.49h30.064v-156.123h-30.064v14.723h-17.61v-14.723h-12.758v109.809h-4.863v-109.809h-181.91v14.723h-12.747v30.67h-4.863v-45.394h-36.139v14.723h-41.002v25.463h41.002v5.208h-46.157v-35.575h40.991v-15.027h311.284zM1569.467 82.479h30.064M1252.422 192.288v-110.729M1569.467 102.421h-30.367"/><path d="M1288.205 68.676l-16.512 2.478" id="Shape" stroke="#fff" stroke-width=".5" stroke-linecap="round" stroke-linejoin="round"/><path d="M1271.945 56.159c-2.911-.432-5.808.864-7.426 3.322-1.618 2.458-1.662 5.632-.114 8.135 1.549 2.503 4.409 3.879 7.33 3.528" id="Shape" stroke="#fff" stroke-width=".5" stroke-linecap="round"/><path d="M1288.237 68.655c2.331-.435 4.021-2.47 4.021-4.842 0-2.372-1.69-4.406-4.021-4.842" id="Shape" stroke="#fff" stroke-width=".5" stroke-linecap="round" stroke-linejoin="round"/><path d="M1288.362 58.993l-16.438-2.834" id="Shape" stroke="#fff" stroke-width=".5" stroke-linecap="round"/></g><g><path d="M304.999 197.307h13.971M304.999 90.259h13.971" id="Shape" stroke="#fff" stroke-linecap="square"/><path d="M318.667 191.169v-38.952M318.667 96.397v38.952" id="Shape" stroke="#fff" stroke-width=".5" stroke-linecap="square"/><path id="Shape" fill="#000" d="M317.746 191.169h2.133l-1.213 6.138z"/><path id="Shape" fill="#fff" fill-rule="nonzero" d="M317.746 191.169h2.133l-1.213 6.138-.92-6.138z"/><path id="Shape" fill="#000" d="M317.746 96.397h2.133l-1.213-6.138z"/><g id="1800" transform="translate(1 1) rotate(-90 315.772 144.3)" fill="#fff"><use xlink:href="#h"/><use xlink:href="#h"/></g><path id="Shape" fill="#fff" fill-rule="nonzero" d="M317.746 96.397h2.133l-1.213-6.138-.92 6.138z"/><path d="M70.24 197.307v22.388M29.248 197.307v22.388" id="Shape" stroke="#fff" stroke-linecap="square"/><path d="M64.478 219.696h-8.198M35.324 219.696h8.198" id="Shape" stroke="#fff" stroke-width=".5" stroke-linecap="square"/><path id="Shape" fill="#000" d="M64.478 218.775v1.84l5.772-.92z"/><path id="Shape" fill="#fff" fill-rule="nonzero" d="M64.478 218.775v1.84l5.772-.92-5.772-.92z"/><path id="Shape" fill="#000" d="M35.324 218.775v1.84l-6.076-.92z"/><g id="700" fill="#fff" transform="translate(1 1)"><use xlink:href="#i"/><use xlink:href="#i"/></g><path id="Shape" fill="#fff" fill-rule="nonzero" d="M35.324 218.775v1.84l-6.076-.92 6.076-.92z"/><path d="M304.999 90.259h13.971M304.999 31.062h13.971" id="Shape" stroke="#fff" stroke-linecap="square"/><path d="M318.667 84.434v-15.037M318.667 36.886v15.34" id="Shape" stroke="#fff" stroke-width=".5" stroke-linecap="square"/><path id="Shape" fill="#000" d="M317.746 84.434h2.133l-1.213 5.825z"/><path id="Shape" fill="#fff" fill-rule="nonzero" d="M317.746 84.434h2.133l-1.213 5.825-.92-5.825z"/><path id="Shape" fill="#000" d="M317.746 36.886h2.133l-1.213-5.825z"/><g id="1000" transform="translate(1 1) rotate(-90 316.429 60.644)" fill="#fff"><use xlink:href="#j"/><use xlink:href="#j"/></g><path id="Shape" fill="#fff" fill-rule="nonzero" d="M317.746 36.886h2.133l-1.213-5.825-.92 5.825z"/><path d="M70.24 197.307v22.388" id="Shape" stroke="#fff" stroke-linecap="square"/><path d="M299.227 219.696h-102.646M76.315 219.696h102.646" id="Shape" stroke="#fff" stroke-width=".5" stroke-linecap="square"/><path id="Shape" fill="#000" d="M299.227 218.775v1.84l5.772-.92z"/><path id="Shape" fill="#fff" fill-rule="nonzero" d="M299.227 218.775v1.84l5.772-.92-5.772-.92z"/><path id="Shape" fill="#000" d="M76.315 218.775v1.84l-6.065-.92z"/><g id="4000" fill="#fff" transform="translate(1 1)"><use xlink:href="#k"/><use xlink:href="#k"/></g><path id="Shape" fill="#fff" fill-rule="nonzero" d="M76.315 218.775v1.84l-6.065-.92 6.065-.92z"/><path id="Shape" stroke="#fff" stroke-width=".5" stroke-linecap="square" d="M300.137 178.903l4.559-3.378-4.863-2.761 4.559-2.447-4.559-2.761 4.559-3.074-4.559-2.761 4.559-2.761-4.559-2.761 4.863-2.761-4.559-2.761 4.559-2.761-4.863-2.761"/><path d="M34.414 90.876h40.991M34.414 123.073h30.974M71.766 139.637l-17.014 24.846M119.137 143.015v31.591" id="Shape" stroke="#fff" stroke-linecap="square"/><path id="Shape" stroke="#fff" stroke-linecap="square" d="M304.999 87.802h-229.594v7.979h4.863v-2.761h224.731v-5.218zM38.356 197.307v15.33M304.999 1.312v29.75"/><path id="Shape" stroke="#fff" stroke-linecap="square" d="M34.414 123.083v69.006h35.836v-13.186h17.61v13.186h199.519v-13.186h17.62v18.404h-275.751v-74.224h5.166zM34.414 164.483h20.339M102.437 143.015v49.075"/><path id="Shape" stroke="#fff" stroke-width=".5" stroke-linecap="square" d="M301.047 49.466l3.953 2.144-4.256 3.378 4.256 2.447-3.953 3.074 3.953 2.447-4.256 3.378"/><path d="M86.04 49.466v38.335" id="Shape" stroke="#fff" stroke-linecap="square"/><path id="Shape" stroke="#fff" stroke-linecap="square" d="M29.248 31.062v-29.761h46.157v29.761h229.594v18.404h-17.62v-13.5h-199.519v13.5h-17.61v-42.947h-35.836v24.543h-5.166zM32.887 31.062v18.404M33.494 197.307v15.33"/><path id="Shape" stroke="#fff" stroke-linecap="square" d="M34.414 49.466v41.41h-5.166v-41.41h5.166zM300.137 1.312v29.75M34.414 139.637h40.991M86.344 143.015v35.888M29.248 31.062h-28.244M138.576 137.796h-58.308v-3.064h-4.863v8.282h60.431M30.765 31.062v18.404M34.414 49.466v41.41M304.999 197.307v32.208M65.388 123.073v16.564M71.766 139.637v39.266"/><path id="Shape" stroke="#fff" stroke-width=".5" stroke-linecap="square" d="M86.04 74.919h-35.23v83.123h77.131l-5.459 3.074"/><path d="M300.137 197.307v32.208M70.24 49.466h-35.826M29.248 49.466v41.41M30.765 90.876v32.197M29.248 26.147h-28.244M32.887 90.876v32.197M103.043 205.275l21.259-40.176 1.213-.617-1.213-1.527 1.213-.617 16.093-30.367" id="Shape" stroke="#fff" stroke-linecap="square"/><path d="M47.067 38.424l-2.478-16.501" id="Shape" stroke="#fff" stroke-width=".5" stroke-linecap="round" stroke-linejoin="round"/><path d="M59.574 22.153c.432-2.911-.864-5.808-3.322-7.426-2.458-1.618-5.632-1.662-8.135-.114-2.503 1.549-3.879 4.409-3.528 7.33" id="Shape" stroke="#fff" stroke-width=".5" stroke-linecap="round"/><path d="M47.078 38.445c.435 2.331 2.47 4.021 4.842 4.021 2.372 0 4.406-1.69 4.842-4.021" id="Shape" stroke="#fff" stroke-width=".5" stroke-linecap="round" stroke-linejoin="round"/><path d="M56.74 38.591l2.834-16.449" id="Shape" stroke="#fff" stroke-width=".5" stroke-linecap="round"/></g><g><path d="M2020.007 197.203v13.49M1984.788 197.203v13.49" id="Shape" stroke="#fff" stroke-linecap="square"/><path d="M2014.245 210.693h-5.166M1990.853 210.693h5.166" id="Shape" stroke="#fff" stroke-width=".5" stroke-linecap="square"/><path id="Shape" fill="#fff" d="M2014.245 209.772v1.84l5.762-.92z"/><path id="Shape" fill="#fff" fill-rule="nonzero" d="M2014.245 209.772v1.84l5.762-.92-5.762-.92z"/><path id="Shape" fill="#fff" d="M1990.853 209.772v1.84l-6.065-.92z"/><text fill="#fff" font-family="RFDewi-Regular, RF Dewi" font-size="7.92" transform="translate(1 1) translate(1689.653 29.28)"><tspan x="306.882" y="183.038">600</tspan></text><path id="Shape" fill="#fff" fill-rule="nonzero" d="M1990.853 209.772v1.84l-6.065-.92 6.065-.92z"/><path d="M1750.028 197.203v13.49M1691.416 197.203v13.49" id="Shape" stroke="#fff" stroke-linecap="square"/><path d="M1744.266 210.693h-14.88M1697.189 210.693h15.184" id="Shape" stroke="#fff" stroke-width=".5" stroke-linecap="square"/><path id="Shape" fill="#fff" d="M1744.266 209.772v1.84l5.762-.92z"/><path id="Shape" fill="#fff" fill-rule="nonzero" d="M1744.266 209.772v1.84l5.762-.92-5.762-.92z"/><path id="Shape" fill="#fff" d="M1697.189 209.772v1.84l-5.772-.92z"/><text id="1000" fill="#fff" font-family="RFDewi-Regular, RF Dewi" font-size="7.92" transform="translate(1 1) translate(1689.653 29.28)"><tspan x="20.517" y="183.038">1000</tspan></text><path id="Shape" fill="#fff" fill-rule="nonzero" d="M1697.189 209.772v1.84l-5.772-.92 5.772-.92z"/><path d="M2020.007 138.006h13.667M2020.007 30.958h13.667" id="Shape" stroke="#fff" stroke-linecap="square"/><path d="M2033.674 131.868v-38.952M2033.674 37.086v38.952" id="Shape" stroke="#fff" stroke-width=".5" stroke-linecap="square"/><path id="Shape" fill="#fff" d="M2032.764 131.868h1.82l-.91 6.138z"/><path id="Shape" fill="#fff" fill-rule="nonzero" d="M2032.764 131.868h1.82l-.91 6.138-.91-6.138z"/><path id="Shape" fill="#fff" d="M2032.764 37.086h1.82l-.91-6.128z"/><text id="1800" fill="#fff" transform="matrix(0 -1 1 0 1690.653 30.28)" font-family="RFDewi-Regular, RF Dewi" font-size="7.84"><tspan x="332.219" y="57.962">1800</tspan></text><path id="Shape" fill="#fff" fill-rule="nonzero" d="M2032.764 37.086h1.82l-.91-6.128-.91 6.128z"/><path d="M1984.788 197.203v13.49M1750.028 197.203v13.49" id="Shape" stroke="#fff" stroke-linecap="square"/><path d="M1979.015 210.693h-102.646M1756.103 210.693h102.343" id="Shape" stroke="#fff" stroke-width=".5" stroke-linecap="square"/><path id="Shape" fill="#fff" d="M1979.015 209.772v1.84l5.772-.92z"/><path id="Shape" fill="#fff" fill-rule="nonzero" d="M1979.015 209.772v1.84l5.772-.92-5.772-.92z"/><path id="Shape" fill="#fff" d="M1756.103 209.772v1.84l-6.076-.92z"/><text id="4000" fill="#fff" font-family="RFDewi-Regular, RF Dewi" font-size="7.92" transform="translate(1 1) translate(1689.653 29.28)"><tspan x="169.853" y="183.038">400</tspan><tspan x="169.853" y="193.038">0</tspan></text><path id="Shape" fill="#fff" fill-rule="nonzero" d="M1756.103 209.772v1.84l-6.076-.92 6.076-.92z"/><path d="M2020.007 197.203h13.667M2020.007 138.006h13.667" id="Shape" stroke="#fff" stroke-linecap="square"/><path d="M2033.674 191.368v-15.33M2033.674 143.831v15.027" id="Shape" stroke="#fff" stroke-width=".5" stroke-linecap="square"/><path id="Shape" fill="#fff" d="M2032.764 191.368h1.82l-.91 5.835z"/><path id="Shape" fill="#fff" fill-rule="nonzero" d="M2032.764 191.368h1.82l-.91 5.835-.91-5.835z"/><path id="Shape" fill="#fff" d="M2032.764 143.831h1.82l-.91-5.825z"/><text id="1000" fill="#fff" transform="matrix(0 -1 1 0 1690.653 30.28)" font-family="RFDewi-Regular, RF Dewi" font-size="7.84"><tspan x="332.219" y="140.08">1000</tspan></text><path id="Shape" fill="#fff" fill-rule="nonzero" d="M2032.764 143.831h1.82l-.91-5.825-.91 5.825z"/><path d="M1984.788 94.442h30.367" id="Shape" stroke="#fff" stroke-linecap="square"/><path id="Shape" stroke="#fff" stroke-width=".5" stroke-linecap="square" d="M1979.925 138.006l-5.469.303-5.155 1.223-4.863 1.84-4.559 2.761-4.549 3.074-3.649 3.681-3.033 4.601-2.74 4.601-1.82 4.904-1.213 5.208-.303 5.521"/><path d="M1984.788 107.325h30.367M1691.416 192.288v-110.729M1979.925 175.724h-37.656M1984.788 122.969h30.367" id="Shape" stroke="#fff" stroke-linecap="square"/><path id="Shape" stroke="#fff" stroke-width=".5" stroke-linecap="square" d="M1984.788 64.389h13.05v73.617l-2.123-3.995"/><path id="Shape" stroke="#fff" stroke-linecap="square" d="M2020.007 30.958h-311.88v13.49h-16.71v37.112h35.23v-5.208h-30.367v-26.99h16.7v-13.197h37.049v40.186h-4.852v5.208h10.018v-32.197h12.454v-13.197h199.519v13.197h12.758v88.644h4.863v-101.841h30.367v156.123h-30.367v-16.564h-4.863v3.074h-12.758v13.49h-199.519v-13.49h-17.62v13.49h-58.611v4.915h328.59v-166.245zM1984.788 138.006h30.367M1984.788 81.873h30.367"/><path d="M1725.151 67.756l-16.501 2.478" id="Shape" stroke="#fff" stroke-width=".5" stroke-linecap="round" stroke-linejoin="round"/><path d="M1708.89 55.239c-2.911-.432-5.808.864-7.426 3.322-1.618 2.458-1.662 5.632-.114 8.135 1.549 2.503 4.409 3.879 7.33 3.528" id="Shape" stroke="#fff" stroke-width=".5" stroke-linecap="round"/><path d="M1725.182 67.735c2.331-.435 4.021-2.47 4.021-4.842 0-2.372-1.69-4.406-4.021-4.842" id="Shape" stroke="#fff" stroke-width=".5" stroke-linecap="round" stroke-linejoin="round"/><path d="M1725.318 58.073l-16.449-2.834" id="Shape" stroke="#fff" stroke-width=".5" stroke-linecap="round"/></g><g><path d="M680.776 137.796h37.049M680.776 197.307h37.049" id="Shape" stroke="#fff" stroke-linecap="square"/><path d="M717.825 143.631v15.33M717.825 191.169v-15.027" id="Shape" stroke="#fff" stroke-width=".5" stroke-linecap="square"/><path id="Shape" fill="#000" d="M716.915 143.631h2.123l-1.213-5.835z"/><path id="Shape" fill="#fff" fill-rule="nonzero" d="M716.915 143.631h2.123l-1.213-5.835-.91 5.835z"/><path id="Shape" fill="#000" d="M716.915 191.169h2.123l-1.213 6.138z"/><g transform="matrix(0 -1 1 0 369.91 1)" fill="#fff"><use xlink:href="#l"/><use xlink:href="#l"/></g><path id="Shape" fill="#fff" fill-rule="nonzero" d="M716.915 191.169h2.123l-1.213 6.138-.91-6.138z"/><path d="M680.776 137.796h37.352M680.776 31.062h37.352" id="Shape" stroke="#fff" stroke-linecap="square"/><path d="M717.825 131.972v-38.952M717.825 36.886v38.952" id="Shape" stroke="#fff" stroke-width=".5" stroke-linecap="square"/><path id="Shape" fill="#000" d="M716.915 131.972h2.123l-1.213 5.825z"/><path id="Shape" fill="#fff" fill-rule="nonzero" d="M716.915 131.972h2.123l-1.213 5.825-.91-5.825z"/><path id="Shape" fill="#000" d="M716.915 36.886h2.123l-1.213-5.825z"/><g transform="matrix(0 -1 1 0 369.91 1)" fill="#fff"><use xlink:href="#m"/><use xlink:href="#m"/></g><path id="Shape" fill="#fff" fill-rule="nonzero" d="M716.915 36.886h2.123l-1.213-5.825-.91 5.825z"/><path d="M446.016 197.307v22.388M405.025 197.307v22.388" id="Shape" stroke="#fff" stroke-linecap="square"/><path d="M440.254 219.696h-8.198M410.797 219.696h8.198" id="Shape" stroke="#fff" stroke-width=".5" stroke-linecap="square"/><path id="Shape" fill="#000" d="M440.254 218.472v2.144l5.762-.92z"/><path id="Shape" fill="#fff" fill-rule="nonzero" d="M440.254 218.472v2.144l5.762-.92-5.762-1.223z"/><path id="Shape" fill="#000" d="M410.797 218.472v2.144l-5.772-.92z"/><g fill="#fff" transform="translate(1 1) translate(368.91)"><use xlink:href="#n"/><use xlink:href="#n"/></g><path id="Shape" fill="#fff" fill-rule="nonzero" d="M410.797 218.472v2.144l-5.772-.92 5.772-1.223z"/><path d="M446.016 197.307v22.388" id="Shape" stroke="#fff" stroke-linecap="square"/><path d="M675.003 219.696h-102.646M451.788 219.696h102.646" id="Shape" stroke="#fff" stroke-width=".5" stroke-linecap="square"/><path id="Shape" fill="#000" d="M675.003 218.472v2.144l5.772-.92z"/><path id="Shape" fill="#fff" fill-rule="nonzero" d="M675.003 218.472v2.144l5.772-.92-5.772-1.223z"/><path id="Shape" fill="#000" d="M451.788 218.472v2.144l-5.772-.92z"/><g fill="#fff" transform="translate(1 1) translate(368.91)"><use xlink:href="#o"/><use xlink:href="#o"/></g><path id="Shape" fill="#fff" fill-rule="nonzero" d="M451.788 218.472v2.144l-5.772-.92 5.772-1.223z"/><path id="Shape" stroke="#fff" stroke-linecap="square" d="M584.195 132.589l-17.61 34.048-1.213.607 1.213 1.537-1.213.617-17.62 34.351"/><path id="Shape" stroke="#fff" stroke-width=".5" stroke-linecap="square" d="M370.402 51.307l.303 5.521 1.516 5.521 1.83 4.904 3.033 4.904 3.346 3.995 4.246 3.681 4.559 2.761 5.155 2.144 5.166 1.537 5.469.303"/><path d="M440.254 140.557v-17.787" id="Shape" stroke="#fff" stroke-linecap="square"/><path id="Shape" stroke="#fff" stroke-width=".5" stroke-linecap="square" d="M446.016 140.557l-17.003 23.622h-19.126M712.356 178.903l-.303-4.904-1.213-4.915-1.82-4.601-2.74-4.287-3.033-3.995-3.953-3.064-4.246-2.761-4.559-1.84-4.863-1.223-4.852-.314"/><path d="M680.776 178.903v-129.437M675.913 197.307v33.128M562.026 143.015h-36.746M376.78 43.945h28.244v4.904h-28.244M440.254 122.77h-30.367M712.659 178.903h-31.883M460.593 178.903v-35.888" id="Shape" stroke="#fff" stroke-linecap="square"/><path id="Shape" stroke="#fff" stroke-width=".5" stroke-linecap="square" d="M680.776 81.36l4.852-.303 4.863-1.223 4.559-1.84 4.246-2.761 3.953-3.074 3.033-3.984 2.74-4.298 1.82-4.601 1.213-4.904.303-4.904"/><path d="M405.025 51.307h-34.926M452.092 140.557h-42.204M492.487 192.089v-49.075" id="Shape" stroke="#fff" stroke-linecap="square"/><path d="M562.026 137.796h19.44" id="Shape" stroke="#fff" stroke-linecap="round"/><path d="M559.6 180.743v-37.729M413.223 197.307v15.33M446.016 178.903v-38.346M476.394 192.089v-49.075M525.28 137.796v-37.112M541.384 192.089v-49.075M449.666 134.733v-42.33h-39.778v99.687h36.129v-13.186h17.62v13.186h199.519v-13.186h17.62v18.404h-275.751v-110.729h4.863v.92h44.641v46.931" id="Shape" stroke="#fff" stroke-linecap="square"/><path id="Shape" stroke="#fff" stroke-width=".5" stroke-linecap="square" d="M680.776 146.695l5.155-.303 4.863-1.234 4.559-2.144 4.246-2.457 3.953-3.367 3.336-3.995 2.436-4.287 2.123-4.601 1.213-4.904.303-5.218-.303-5.218-1.213-4.904-2.123-4.601-2.436-4.298-3.336-3.984-3.953-3.378-4.246-2.447-4.559-2.154-4.863-1.223-5.155-.303"/><path id="Shape" stroke="#fff" stroke-linecap="round" d="M457.237 137.796h67.113v5.218h-66.81"/><path id="Shape" stroke="#fff" stroke-width=".5" stroke-linecap="square" d="M561.723 137.796l-.303-5.825-1.516-5.521-2.123-5.208-3.043-5.218-3.639-4.298-4.256-3.681-5.155-3.064-5.166-2.144-5.469-1.537-5.772-.314M425.071 92.403v64.718h146.377l-5.166 3.074"/><path d="M562.026 143.015h16.71" id="Shape" stroke="#fff" stroke-linecap="round"/><path id="Shape" stroke="#fff" stroke-linecap="square" d="M405.025 51.307v-50.005h45.854v29.761h229.897v18.404h-17.62v-13.5h-199.519v13.5h-17.62v-42.947h-36.129v44.787h-4.863zM408.361 197.307v15.33M712.659 114.185h-31.883M524.067 192.089v-49.075M680.776 197.307v33.128M712.659 49.466h-31.883M562.026 137.796v5.218M508.277 192.089v-49.075"/><path d="M432.202 39.114l-13.427-9.913" id="Shape" stroke="#fff" stroke-width=".5" stroke-linecap="round" stroke-linejoin="round"/><path d="M429.546 18.764c-1.76-2.347-4.718-3.463-7.59-2.866-2.872.598-5.138 2.803-5.815 5.657-.677 2.854.358 5.842 2.655 7.666" id="Shape" stroke="#fff" stroke-width=".5" stroke-linecap="round"/><path d="M432.234 39.124c1.949 1.344 4.578 1.112 6.261-.553 1.683-1.665 1.943-4.292.62-6.255" id="Shape" stroke="#fff" stroke-width=".5" stroke-linecap="round" stroke-linejoin="round"/><path d="M439.156 32.39l-9.62-13.636" id="Shape" stroke="#fff" stroke-width=".5" stroke-linecap="round"/><path d="M449.666 134.733c-.062 2.149.739 4.233 2.225 5.787 1.485 1.554 3.531 2.449 5.681 2.484M454.528 134.691c-.059 1.594 1.123 2.963 2.708 3.137" stroke="#fff" stroke-linecap="round"/></g></g></svg>