<?xml version="1.0" encoding="UTF-8"?>
<svg width="201px" height="51px" viewBox="0 0 201 51" version="1.1" xmlns="http://www.w3.org/2000/svg" xmlns:xlink="http://www.w3.org/1999/xlink">
    <!-- Generator: Sketch 51.2 (57519) - http://www.bohemiancoding.com/sketch -->
    <title>Group 11</title>
    <desc>Created with Sketch.</desc>
    <defs></defs>
    <g id="Page-3" stroke="none" stroke-width="1" fill="none" fill-rule="evenodd" stroke-linejoin="round">
        <g id="Group-11" transform="translate(1.000000, -0.254285)" stroke="#FFFFFF" stroke-width="0.5">
            <g id="Слой_1-4">
                <polygon id="Shape" points="0.24106683 0.504558481 99.5437822 0.504558481 198.852104 36.6533706 99.5437822 36.6533706"></polygon>
            </g>
            <polyline id="Shape" points="198.852104 43.5658218 198.852104 50.287662 99.5437822 50.287662 99.5437822 43.5658218 99.5437822 50.287662 0.24106683 14.1388499 0.24106683 7.41140347"></polyline>
            <path d="M99.5437822,36.6589768 L99.5437822,43.5658218" id="Shape"></path>
            <path d="M0.24106683,0.504558481 L0.24106683,7.41140347" id="Shape"></path>
            <path d="M198.852104,36.6533706 L198.852104,43.5658218" id="Shape"></path>
            <path d="M76.1434811,10.04632 L58.8315189,3.74494517" id="Shape" fill="#FFFFFF" fill-rule="nonzero"></path>
            <path d="M74.5064691,9.45206222 L76.4125789,10.1416255" id="Shape" fill="#FFFFFF" fill-rule="nonzero" stroke-linecap="round"></path>
            <polyline id="Shape" fill="#FFFFFF" fill-rule="nonzero" stroke-linecap="round" points="72.3817173 6.18925071 76.4181851 10.1304131 73.0544619 8.91947271 72.3817173 6.18925071"></polyline>
            <path d="M74.5064691,9.45206222 L73.0544619,8.91947271" id="Shape" fill="#FFFFFF" fill-rule="nonzero" stroke-linecap="round"></path>
            <path d="M74.5064691,9.45206222 L76.4125789,10.1416255" id="Shape" fill="#FFFFFF" fill-rule="nonzero" stroke-linecap="round"></path>
            <polyline id="Shape" fill="#FFFFFF" fill-rule="nonzero" stroke-linecap="round" points="70.7839487 10.5845157 76.4069727 10.1584441 73.0544619 8.91947271 70.7839487 10.5845157"></polyline>
            <path d="M74.5064691,9.45206222 L73.0544619,8.91947271" id="Shape" fill="#FFFFFF" fill-rule="nonzero" stroke-linecap="round"></path>
            <path d="M58.8315189,3.74494517 L49.9288648,0.504558481" id="Shape"></path>
            <path d="M122.927265,27.1396401 L140.239227,33.4410149" id="Shape" fill="#FFFFFF" fill-rule="nonzero"></path>
            <path d="M124.55867,27.7338979 L122.658167,27.0443346" id="Shape" fill="#FFFFFF" fill-rule="nonzero" stroke-linecap="round"></path>
            <polyline id="Shape" fill="#FFFFFF" fill-rule="nonzero" stroke-linecap="round" points="126.689028 31.0023156 122.652561 27.055547 126.016284 28.2664874 126.689028 31.0023156"></polyline>
            <path d="M124.55867,27.7338979 L126.016284,28.2664874" id="Shape" fill="#FFFFFF" fill-rule="nonzero" stroke-linecap="round"></path>
            <path d="M124.55867,27.7338979 L122.658167,27.0443346" id="Shape" fill="#FFFFFF" fill-rule="nonzero" stroke-linecap="round"></path>
            <polyline id="Shape" fill="#FFFFFF" fill-rule="nonzero" stroke-linecap="round" points="128.286797 26.6014444 122.663773 27.0331222 126.016284 28.2664874 128.286797 26.6014444"></polyline>
            <path d="M124.55867,27.7338979 L126.016284,28.2664874" id="Shape" fill="#FFFFFF" fill-rule="nonzero" stroke-linecap="round"></path>
            <path d="M140.239227,33.4410149 L149.136275,36.6814016" id="Shape"></path>
            <path d="M120.785694,18.5789645 L139.207685,18.5789645" id="Shape" fill="#FFFFFF" fill-rule="nonzero"></path>
            <path d="M122.523618,18.5789645 L120.499778,18.5789645" id="Shape" fill="#FFFFFF" fill-rule="nonzero" stroke-linecap="round"></path>
            <polyline id="Shape" fill="#FFFFFF" fill-rule="nonzero" stroke-linecap="round" points="125.635062 20.9223584 120.499778 18.5957831 124.070931 18.5789645 125.635062 20.9223584"></polyline>
            <path d="M122.523618,18.5789645 L124.070931,18.5789645" id="Shape" fill="#FFFFFF" fill-rule="nonzero" stroke-linecap="round"></path>
            <path d="M122.523618,18.5789645 L120.499778,18.5789645" id="Shape" fill="#FFFFFF" fill-rule="nonzero" stroke-linecap="round"></path>
            <polyline id="Shape" fill="#FFFFFF" fill-rule="nonzero" stroke-linecap="round" points="125.635062 16.2411769 120.499778 18.5677521 124.070931 18.5789645 125.635062 16.2411769"></polyline>
            <path d="M122.523618,18.5789645 L124.070931,18.5789645" id="Shape" fill="#FFFFFF" fill-rule="nonzero" stroke-linecap="round"></path>
            <path d="M139.207685,18.5789645 L148.676566,18.5789645" id="Shape"></path>
            <path d="M74.5737436,17.4128738 L56.157359,17.4128738" id="Shape" fill="#FFFFFF" fill-rule="nonzero"></path>
            <path d="M72.8358199,17.4128738 L74.85966,17.4128738" id="Shape" fill="#FFFFFF" fill-rule="nonzero" stroke-linecap="round"></path>
            <polyline id="Shape" fill="#FFFFFF" fill-rule="nonzero" stroke-linecap="round" points="69.7243759 15.06948 74.85966 17.4016614 71.2885072 17.4128738 69.7243759 15.06948"></polyline>
            <path d="M72.8358199,17.4128738 L71.2885072,17.4128738" id="Shape" fill="#FFFFFF" fill-rule="nonzero" stroke-linecap="round"></path>
            <path d="M72.8358199,17.4128738 L74.85966,17.4128738" id="Shape" fill="#FFFFFF" fill-rule="nonzero" stroke-linecap="round"></path>
            <polyline id="Shape" fill="#FFFFFF" fill-rule="nonzero" stroke-linecap="round" points="69.7243759 19.7506614 74.85966 17.4240862 71.2885072 17.4128738 69.7243759 19.7506614"></polyline>
            <path d="M72.8358199,17.4128738 L71.2885072,17.4128738" id="Shape" fill="#FFFFFF" fill-rule="nonzero" stroke-linecap="round"></path>
            <path d="M56.157359,17.4128738 L46.6828719,17.4128738" id="Shape"></path>
        </g>
    </g>
</svg>