<svg xmlns="http://www.w3.org/2000/svg" viewBox="0 0 1440 502" enable-background="new 0 0 1440 502"><style type="text/css">.st0{fill:#FFFFFF;} .st1{fill:url(#Shape_4_);} .st2{fill:url(#Rectangle-path_2_);} .st3{fill:url(#Shape_5_);} .st4{fill:url(#Rectangle-path_3_);}</style><title>K1</title><desc>Created with Sketch.</desc><g id="K1"><path id="Shape" class="st0" d="M960 458.3v43.7h-240l-719.9-262v-239.9h239.9l240 87.3v-87.3h240v131l720 130.9v240h-240z"/><linearGradient id="Shape_4_" gradientUnits="userSpaceOnUse" x1="575.573" y1="1285.962" x2="575.827" y2="1286.958" gradientTransform="matrix(719.969 0 0 -501.929 -414126.313 645962)"><stop offset="0" stop-color="#fff"/><stop offset=".4" stop-color="#fff"/><stop offset="1" stop-color="#F0F0F0"/></linearGradient><path id="Shape_1_" class="st1" d="M720 262l-719.9-261.9v239.9l719.9 262z"/><linearGradient id="Rectangle-path_2_" gradientUnits="userSpaceOnUse" x1="574.1" y1="1283.154" x2="574.1" y2="1284.154" gradientTransform="matrix(239.991 0 0 -239.939 -136458.781 308380.156)"><stop offset="0" stop-color="#fff"/><stop offset="1" stop-color="#EDEDED"/></linearGradient><path id="Rectangle-path" class="st2" d="M1200 262h240v239.9h-240z"/><linearGradient id="Shape_5_" gradientUnits="userSpaceOnUse" x1="575.233" y1="1284.587" x2="575.366" y2="1285.589" gradientTransform="matrix(479.875 0 0 -327.234 -275112 420862.906)"><stop offset="0" stop-color="#fff"/><stop offset=".4" stop-color="#fff"/><stop offset="1" stop-color="#F0F0F0"/></linearGradient><path id="Shape_2_" class="st3" d="M1200 262l-479.9-87.2v239.9l479.9 87.3z"/><linearGradient id="Rectangle-path_3_" gradientUnits="userSpaceOnUse" x1="574.1" y1="1283.154" x2="574.1" y2="1284.154" gradientTransform="matrix(239.99 0 0 -239.939 -136938.094 308380.156)"><stop offset="0" stop-color="#fff"/><stop offset="1" stop-color="#EDEDED"/></linearGradient><path id="Rectangle-path_1_" class="st4" d="M720 262h240v239.9h-240z"/><path id="Shape_3_" class="st0" d="M960 262h-240l-719.9-261.9h239.9l240 87.3v-87.3h240v131l720 130.9h-240l-480-87.3z"/></g></svg>